<svg xmlns="http://www.w3.org/2000/svg" width="111" height="111" viewBox="0 0 111 111">
  <g id="_2FA_Biometric_Verification" data-name="2FA &amp; Biometric Verification" transform="translate(-297 -4658)">
    <rect id="Rectangle_2164" data-name="Rectangle 2164" width="111" height="111" rx="10" transform="translate(297 4658)" fill="#222"/>
    <g id="noun-biometrics-3883820" transform="translate(255.951 4678.673)">
      <path id="Path_153" data-name="Path 153" d="M259.518,376.557a1.085,1.085,0,0,0-1.325.839,43.623,43.623,0,0,1-1.369,4.771,1.1,1.1,0,0,0,.707,1.414.975.975,0,0,0,.353.044,1.192,1.192,0,0,0,1.06-.751,47.888,47.888,0,0,0,1.414-4.992,1.106,1.106,0,0,0-.84-1.325Z" transform="translate(-167.344 -334.06)" fill="#f2a214"/>
      <path id="Path_154" data-name="Path 154" d="M287.342,191.427a1.12,1.12,0,0,0-1.148-1.06,1.093,1.093,0,0,0-1.06,1.148,59.2,59.2,0,0,1-.8,10.6,1.109,1.109,0,0,0,.928,1.281h.177a1.134,1.134,0,0,0,1.1-.928,58.366,58.366,0,0,0,.8-11.043Z" transform="translate(-192.739 -162.58)" fill="#f2a214"/>
      <path id="Path_155" data-name="Path 155" d="M321.909,234.08a1.123,1.123,0,0,0-1.148,1.06,62.7,62.7,0,0,1-2.695,15.991,1.146,1.146,0,0,0,.751,1.414.976.976,0,0,0,.353.044,1.087,1.087,0,0,0,1.06-.795,63.859,63.859,0,0,0,2.783-16.566,1.162,1.162,0,0,0-1.1-1.149Z" transform="translate(-223.772 -202.848)" fill="#f2a214"/>
      <path id="Path_156" data-name="Path 156" d="M208.429,131.574a5.637,5.637,0,0,0-3.976,1.855,5.757,5.757,0,0,0-1.5,4.153,55,55,0,0,1-2.739,17.67,1.071,1.071,0,0,0,.707,1.414.975.975,0,0,0,.353.044,1.192,1.192,0,0,0,1.06-.751,56.4,56.4,0,0,0,2.871-18.509,3.322,3.322,0,0,1,.928-2.518,3.429,3.429,0,0,1,2.43-1.148,3.522,3.522,0,0,1,3.711,3.357,1.105,1.105,0,0,0,2.209-.088,5.839,5.839,0,0,0-6.053-5.478Z" transform="translate(-115.195 -108.426)" fill="#f2a214"/>
      <path id="Path_157" data-name="Path 157" d="M151.209,307.3a1.109,1.109,0,0,0-1.281.928,44.321,44.321,0,0,1-1.546,6.538,1.159,1.159,0,0,0,.707,1.414.976.976,0,0,0,.353.044,1.087,1.087,0,0,0,1.06-.795,47.327,47.327,0,0,0,1.59-6.847,1.051,1.051,0,0,0-.884-1.281Z" transform="translate(-67.472 -270.278)" fill="#f2a214"/>
      <path id="Path_158" data-name="Path 158" d="M176.04,83.535a8.18,8.18,0,0,1,16.345-.707,67.234,67.234,0,0,1-.618,11,11.159,11.159,0,0,1,2.43-1.634,55.886,55.886,0,0,0,.4-9.454,10.358,10.358,0,0,0-10.47-9.939h-.4a10.437,10.437,0,0,0-9.939,10.823v.044a43.3,43.3,0,0,1-.221,4.859,1.166,1.166,0,0,0,1.016,1.237,1.1,1.1,0,0,0,1.193-1.016,33.954,33.954,0,0,0,.265-5.213Z" transform="translate(-90.713 -54.29)" fill="#f2a214"/>
      <path id="Path_159" data-name="Path 159" d="M108.8,67.721a1.125,1.125,0,0,0-1.59-1.59,15.068,15.068,0,0,0-4.329,11.176A48,48,0,0,1,101.6,88.483a1.085,1.085,0,0,0,.839,1.325c.088,0,.177.044.265.044a1.089,1.089,0,0,0,1.06-.839,51.151,51.151,0,0,0,1.369-11.795,12.6,12.6,0,0,1,3.666-9.5Z" transform="translate(-24.401 -47.842)" fill="#f2a214"/>
      <path id="Path_160" data-name="Path 160" d="M208.046,17.8a12.905,12.905,0,0,1,5.831-1.679,12.711,12.711,0,0,1,13.341,12.237,56.616,56.616,0,0,1-.177,7.245,1.1,1.1,0,0,0,1.016,1.193h.088a1.107,1.107,0,0,0,1.1-1.016,61.37,61.37,0,0,0,.177-7.554,14.875,14.875,0,0,0-15.638-14.357,15.55,15.55,0,0,0-6.847,1.988,1.09,1.09,0,0,0-.4,1.5,1.068,1.068,0,0,0,1.5.442Z" transform="translate(-120.953)" fill="#f2a214"/>
      <path id="Path_161" data-name="Path 161" d="M394.233,332.64a8.393,8.393,0,1,0,8.393,8.393,8.39,8.39,0,0,0-8.393-8.393Zm4.02,7.377-4.329,4.329a1.2,1.2,0,0,1-.883.353,1.313,1.313,0,0,1-.883-.353l-2.165-2.164a1.249,1.249,0,0,1,1.767-1.767L393,341.7l3.446-3.446a1.253,1.253,0,0,1,1.767,0,1.213,1.213,0,0,1,.044,1.767Z" transform="translate(-286.245 -293.633)" fill="#f2a214"/>
    </g>
  </g>
</svg>
