<svg xmlns="http://www.w3.org/2000/svg" xmlns:xlink="http://www.w3.org/1999/xlink" width="596" height="387" viewBox="0 0 596 387">
  <defs>
    <filter id="Rectangle_2186" x="49" y="43" width="547" height="344" filterUnits="userSpaceOnUse">
      <feOffset dy="8" input="SourceAlpha"/>
      <feGaussianBlur stdDeviation="12.5" result="blur"/>
      <feFlood flood-opacity="0.239"/>
      <feComposite operator="in" in2="blur"/>
      <feComposite in="SourceGraphic"/>
    </filter>
    <filter id="Rectangle_2187" x="0" y="0" width="582" height="370" filterUnits="userSpaceOnUse">
      <feOffset dy="8" input="SourceAlpha"/>
      <feGaussianBlur stdDeviation="12.5" result="blur-2"/>
      <feFlood flood-opacity="0.239"/>
      <feComposite operator="in" in2="blur-2"/>
      <feComposite in="SourceGraphic"/>
    </filter>
  </defs>
  <g id="Super_Low_Fees_Fast" data-name="Super Low Fees, Fast" transform="translate(-4826.5 -3840.5)">
    <g transform="matrix(1, 0, 0, 1, 4826.5, 3840.5)" filter="url(#Rectangle_2186)">
      <rect id="Rectangle_2186-2" data-name="Rectangle 2186" width="472" height="269" rx="12" transform="translate(86.5 72.5)" fill="#f2a214"/>
    </g>
    <g transform="matrix(1, 0, 0, 1, 4826.5, 3840.5)" filter="url(#Rectangle_2187)">
      <rect id="Rectangle_2187-2" data-name="Rectangle 2187" width="507" height="295" rx="12" transform="translate(37.5 29.5)" fill="#35363a"/>
    </g>
    <line id="Line_13" data-name="Line 13" x2="507" transform="translate(4864.5 3941.5)" fill="none" stroke="#707070" stroke-width="1"/>
    <path id="Path_193" data-name="Path 193" d="M-175.154,0V-19.6h2.24l.98,3.7V0Zm13.58,0-11.732-15.316.392-4.284,11.732,15.316Zm0,0-.98-3.444V-19.6h3.22V0Zm12.32.28a7.239,7.239,0,0,1-3.626-.91,6.77,6.77,0,0,1-2.548-2.506,6.94,6.94,0,0,1-.938-3.584,6.946,6.946,0,0,1,.924-3.57,6.865,6.865,0,0,1,2.506-2.506,6.839,6.839,0,0,1,3.514-.924,6.307,6.307,0,0,1,3.318.868,6.182,6.182,0,0,1,2.268,2.38,7.066,7.066,0,0,1,.826,3.444,5.756,5.756,0,0,1-.042.686q-.042.35-.126.77H-154.21v-2.52h9.436l-1.148,1.008a5.137,5.137,0,0,0-.476-2.072,3,3,0,0,0-1.19-1.288,3.7,3.7,0,0,0-1.89-.448,4,4,0,0,0-2.044.5,3.445,3.445,0,0,0-1.344,1.414,4.625,4.625,0,0,0-.476,2.17,4.659,4.659,0,0,0,.5,2.212,3.554,3.554,0,0,0,1.428,1.47,4.278,4.278,0,0,0,2.128.518,4.979,4.979,0,0,0,1.918-.364,4,4,0,0,0,1.5-1.064l1.96,1.988a6.287,6.287,0,0,1-2.38,1.736A7.587,7.587,0,0,1-149.254.28ZM-138.838,0V-19.04h3.08V0Zm-3.22-10.64v-2.8h9.52v2.8ZM-126.378,0l-5.4-13.44h3.192l3.64,9.772-.952.028,3.556-9.8h1.792L-117-3.64l-.952-.028,3.64-9.772h3.192L-116.522,0h-1.792l-3.64-9.3h1.008l-3.64,9.3Zm23.016.28a6.887,6.887,0,0,1-3.556-.938,7.017,7.017,0,0,1-2.534-2.534,6.887,6.887,0,0,1-.938-3.556,6.739,6.739,0,0,1,.938-3.528,7.088,7.088,0,0,1,2.534-2.506,6.887,6.887,0,0,1,3.556-.938,7.022,7.022,0,0,1,3.584.924,6.941,6.941,0,0,1,2.534,2.506,6.813,6.813,0,0,1,.938,3.542,6.887,6.887,0,0,1-.938,3.556A7.017,7.017,0,0,1-99.778-.658,6.94,6.94,0,0,1-103.362.28Zm0-2.968a3.933,3.933,0,0,0,2.03-.518A3.584,3.584,0,0,0-99.96-4.648a4.413,4.413,0,0,0,.49-2.1,4.154,4.154,0,0,0-.5-2.072,3.766,3.766,0,0,0-1.372-1.414,3.858,3.858,0,0,0-2.016-.518,3.879,3.879,0,0,0-2,.518,3.632,3.632,0,0,0-1.372,1.414,4.249,4.249,0,0,0-.49,2.072,4.413,4.413,0,0,0,.49,2.1,3.583,3.583,0,0,0,1.372,1.442A3.879,3.879,0,0,0-103.362-2.688ZM-93.758,0V-13.44h3.08V0Zm3.08-7.476-1.064-.532a6.931,6.931,0,0,1,1.134-4.13,3.941,3.941,0,0,1,3.43-1.582,4.4,4.4,0,0,1,1.82.364,4.386,4.386,0,0,1,1.512,1.176l-2.016,2.072a2.123,2.123,0,0,0-.812-.56,2.941,2.941,0,0,0-1.036-.168,2.937,2.937,0,0,0-2.128.812A3.407,3.407,0,0,0-90.678-7.476ZM-73.822,0l-5.684-6.86,5.656-6.58h3.668l-6.5,7.392.14-1.764L-69.9,0Zm-8.54,0V-20.16h3.08V0Zm20.328,0V-19.6h3.22V0Zm2.212-8.4v-2.94h9.968V-8.4Zm0-8.26V-19.6h10.444v2.94ZM-40.866.28a7.239,7.239,0,0,1-3.626-.91A6.77,6.77,0,0,1-47.04-3.136a6.94,6.94,0,0,1-.938-3.584,6.946,6.946,0,0,1,.924-3.57A6.865,6.865,0,0,1-44.548-12.8a6.839,6.839,0,0,1,3.514-.924,6.307,6.307,0,0,1,3.318.868,6.182,6.182,0,0,1,2.268,2.38,7.066,7.066,0,0,1,.826,3.444,5.756,5.756,0,0,1-.042.686q-.042.35-.126.77H-45.822v-2.52h9.436l-1.148,1.008a5.137,5.137,0,0,0-.476-2.072,3,3,0,0,0-1.19-1.288,3.7,3.7,0,0,0-1.89-.448,4,4,0,0,0-2.044.5,3.445,3.445,0,0,0-1.344,1.414,4.625,4.625,0,0,0-.476,2.17,4.659,4.659,0,0,0,.5,2.212,3.554,3.554,0,0,0,1.428,1.47,4.278,4.278,0,0,0,2.128.518,4.979,4.979,0,0,0,1.918-.364,4,4,0,0,0,1.5-1.064l1.96,1.988A6.287,6.287,0,0,1-37.9-.308,7.586,7.586,0,0,1-40.866.28Zm14.952,0A7.239,7.239,0,0,1-29.54-.63a6.77,6.77,0,0,1-2.548-2.506,6.94,6.94,0,0,1-.938-3.584,6.946,6.946,0,0,1,.924-3.57A6.865,6.865,0,0,1-29.6-12.8a6.839,6.839,0,0,1,3.514-.924,6.307,6.307,0,0,1,3.318.868,6.182,6.182,0,0,1,2.268,2.38,7.066,7.066,0,0,1,.826,3.444,5.755,5.755,0,0,1-.042.686q-.042.35-.126.77H-30.87v-2.52h9.436l-1.148,1.008a5.137,5.137,0,0,0-.476-2.072,3,3,0,0,0-1.19-1.288,3.7,3.7,0,0,0-1.89-.448,4,4,0,0,0-2.044.5,3.445,3.445,0,0,0-1.344,1.414A4.625,4.625,0,0,0-30-6.8a4.659,4.659,0,0,0,.5,2.212,3.554,3.554,0,0,0,1.428,1.47,4.278,4.278,0,0,0,2.128.518,4.979,4.979,0,0,0,1.918-.364,4,4,0,0,0,1.5-1.064l1.96,1.988a6.287,6.287,0,0,1-2.38,1.736A7.586,7.586,0,0,1-25.914.28ZM-9.758,0V-15.2a5.291,5.291,0,0,1,.686-2.716,4.9,4.9,0,0,1,1.9-1.848,5.73,5.73,0,0,1,2.814-.672,4.787,4.787,0,0,1,2.1.42,5.73,5.73,0,0,1,1.624,1.2l-1.988,1.988a2.8,2.8,0,0,0-.728-.532,2.254,2.254,0,0,0-1.008-.2,2.33,2.33,0,0,0-1.722.6,2.33,2.33,0,0,0-.6,1.722V0Zm-3.22-10.64v-2.8h10.36v2.8ZM5.166.28A6.887,6.887,0,0,1,1.61-.658,7.017,7.017,0,0,1-.924-3.192a6.887,6.887,0,0,1-.938-3.556,6.739,6.739,0,0,1,.938-3.528A7.088,7.088,0,0,1,1.61-12.782a6.887,6.887,0,0,1,3.556-.938A7.022,7.022,0,0,1,8.75-12.8a6.941,6.941,0,0,1,2.534,2.506,6.813,6.813,0,0,1,.938,3.542,6.887,6.887,0,0,1-.938,3.556A7.017,7.017,0,0,1,8.75-.658,6.94,6.94,0,0,1,5.166.28Zm0-2.968A3.933,3.933,0,0,0,7.2-3.206,3.583,3.583,0,0,0,8.568-4.648a4.413,4.413,0,0,0,.49-2.1,4.154,4.154,0,0,0-.5-2.072,3.766,3.766,0,0,0-1.372-1.414,3.858,3.858,0,0,0-2.016-.518,3.879,3.879,0,0,0-2,.518A3.632,3.632,0,0,0,1.792-8.82,4.249,4.249,0,0,0,1.3-6.748a4.413,4.413,0,0,0,.49,2.1A3.583,3.583,0,0,0,3.164-3.206,3.879,3.879,0,0,0,5.166-2.688ZM14.77,0V-13.44h3.08V0Zm3.08-7.476-1.064-.532a6.931,6.931,0,0,1,1.134-4.13,3.941,3.941,0,0,1,3.43-1.582,4.4,4.4,0,0,1,1.82.364,4.386,4.386,0,0,1,1.512,1.176l-2.016,2.072a2.123,2.123,0,0,0-.812-.56,2.941,2.941,0,0,0-1.036-.168,2.937,2.937,0,0,0-2.128.812A3.407,3.407,0,0,0,17.85-7.476ZM37.17,0V-19.04h3.22V0ZM30.786-16.66V-19.6H46.774v2.94ZM46.3,0V-13.44h3.08V0Zm3.08-7.476-1.064-.532a6.931,6.931,0,0,1,1.134-4.13,3.941,3.941,0,0,1,3.43-1.582,4.4,4.4,0,0,1,1.82.364A4.386,4.386,0,0,1,56.21-12.18l-2.016,2.072a2.123,2.123,0,0,0-.812-.56,2.941,2.941,0,0,0-1.036-.168,2.937,2.937,0,0,0-2.128.812A3.407,3.407,0,0,0,49.378-7.476ZM62.93.28a6.055,6.055,0,0,1-3.29-.924A6.608,6.608,0,0,1,57.316-3.15a7.335,7.335,0,0,1-.854-3.542,7.394,7.394,0,0,1,.854-3.57,6.717,6.717,0,0,1,2.324-2.52,5.988,5.988,0,0,1,3.29-.938,5.548,5.548,0,0,1,2.73.658,5.019,5.019,0,0,1,1.89,1.806,4.9,4.9,0,0,1,.7,2.6v3.864a4.978,4.978,0,0,1-.686,2.6,4.887,4.887,0,0,1-1.89,1.806A5.628,5.628,0,0,1,62.93.28Zm.5-2.912A3.561,3.561,0,0,0,66.192-3.78a4.187,4.187,0,0,0,1.05-2.94,4.582,4.582,0,0,0-.476-2.128,3.547,3.547,0,0,0-1.33-1.442,3.785,3.785,0,0,0-2-.518,3.731,3.731,0,0,0-1.974.518,3.645,3.645,0,0,0-1.344,1.442,4.474,4.474,0,0,0-.49,2.128,4.474,4.474,0,0,0,.49,2.128A3.645,3.645,0,0,0,61.46-3.15,3.731,3.731,0,0,0,63.434-2.632ZM67.046,0V-3.612l.532-3.276-.532-3.248v-3.3h3.08V0ZM82.754,0V-7.756A3.023,3.023,0,0,0,81.9-9.968a2.949,2.949,0,0,0-2.2-.868,3.21,3.21,0,0,0-1.6.392,2.792,2.792,0,0,0-1.092,1.092,3.21,3.21,0,0,0-.392,1.6l-1.2-.672a5.455,5.455,0,0,1,.672-2.73,4.924,4.924,0,0,1,1.862-1.876,5.256,5.256,0,0,1,2.674-.686,4.8,4.8,0,0,1,2.688.77,5.548,5.548,0,0,1,1.848,1.988,5.177,5.177,0,0,1,.672,2.534V0ZM73.542,0V-13.44h3.08V0ZM93.366.28A7.859,7.859,0,0,1,91.21-.014a7.294,7.294,0,0,1-1.9-.84,6.248,6.248,0,0,1-1.512-1.33l1.96-1.96a4.578,4.578,0,0,0,1.61,1.218,5,5,0,0,0,2.058.406,3.189,3.189,0,0,0,1.568-.308.979.979,0,0,0,.532-.9,1.078,1.078,0,0,0-.5-.952,4.855,4.855,0,0,0-1.3-.574q-.8-.238-1.68-.49a8.247,8.247,0,0,1-1.68-.686,3.622,3.622,0,0,1-1.3-1.19,3.471,3.471,0,0,1-.5-1.96,3.962,3.962,0,0,1,.6-2.212,3.917,3.917,0,0,1,1.708-1.428,6.343,6.343,0,0,1,2.646-.5,6.791,6.791,0,0,1,2.87.574,5.3,5.3,0,0,1,2.086,1.722L96.5-9.464a3.905,3.905,0,0,0-1.344-1.092,3.955,3.955,0,0,0-1.736-.364,2.978,2.978,0,0,0-1.428.28.884.884,0,0,0-.5.812.966.966,0,0,0,.5.868,5.22,5.22,0,0,0,1.3.532q.8.224,1.68.49a7.887,7.887,0,0,1,1.68.728,3.826,3.826,0,0,1,1.3,1.232,3.6,3.6,0,0,1,.5,2A3.841,3.841,0,0,1,97.09-.868,5.622,5.622,0,0,1,93.366.28Zm13.272,0a6.055,6.055,0,0,1-3.29-.924,6.608,6.608,0,0,1-2.324-2.506,7.335,7.335,0,0,1-.854-3.542,7.394,7.394,0,0,1,.854-3.57,6.717,6.717,0,0,1,2.324-2.52,5.988,5.988,0,0,1,3.29-.938,5.548,5.548,0,0,1,2.73.658,5.019,5.019,0,0,1,1.89,1.806,4.9,4.9,0,0,1,.7,2.6v3.864a4.978,4.978,0,0,1-.686,2.6,4.887,4.887,0,0,1-1.89,1.806A5.628,5.628,0,0,1,106.638.28Zm.5-2.912A3.561,3.561,0,0,0,109.9-3.78a4.187,4.187,0,0,0,1.05-2.94,4.582,4.582,0,0,0-.476-2.128,3.547,3.547,0,0,0-1.33-1.442,3.785,3.785,0,0,0-2-.518,3.731,3.731,0,0,0-1.974.518,3.645,3.645,0,0,0-1.344,1.442,4.474,4.474,0,0,0-.49,2.128,4.474,4.474,0,0,0,.49,2.128,3.645,3.645,0,0,0,1.344,1.442A3.731,3.731,0,0,0,107.142-2.632ZM110.754,0V-3.612l.532-3.276-.532-3.248v-3.3h3.08V0Zm12.684.28a7.1,7.1,0,0,1-3.6-.924,6.77,6.77,0,0,1-2.534-2.52,6.968,6.968,0,0,1-.924-3.556,6.946,6.946,0,0,1,.924-3.57A6.8,6.8,0,0,1,119.84-12.8a7.1,7.1,0,0,1,3.6-.924,7.138,7.138,0,0,1,2.926.6,6.391,6.391,0,0,1,2.31,1.722l-2.016,2.044a3.72,3.72,0,0,0-1.414-1.05,4.582,4.582,0,0,0-1.806-.35,3.933,3.933,0,0,0-2.03.518,3.632,3.632,0,0,0-1.372,1.414,4.31,4.31,0,0,0-.49,2.1,4.331,4.331,0,0,0,.49,2.086,3.607,3.607,0,0,0,1.372,1.428,3.933,3.933,0,0,0,2.03.518,4.582,4.582,0,0,0,1.806-.35,3.72,3.72,0,0,0,1.414-1.05l2.016,2.044a6.391,6.391,0,0,1-2.31,1.722A7.138,7.138,0,0,1,123.438.28ZM132.706,0V-19.04h3.08V0Zm-3.22-10.64v-2.8h9.52v2.8ZM141.274,0V-13.44h3.08V0Zm1.54-15.9a1.741,1.741,0,0,1-1.3-.532,1.813,1.813,0,0,1-.518-1.316,1.813,1.813,0,0,1,.518-1.316,1.741,1.741,0,0,1,1.3-.532,1.73,1.73,0,0,1,1.316.532,1.84,1.84,0,0,1,.5,1.316,1.84,1.84,0,0,1-.5,1.316A1.73,1.73,0,0,1,142.814-15.9ZM153.958.28A6.887,6.887,0,0,1,150.4-.658a7.017,7.017,0,0,1-2.534-2.534,6.887,6.887,0,0,1-.938-3.556,6.739,6.739,0,0,1,.938-3.528,7.088,7.088,0,0,1,2.534-2.506,6.887,6.887,0,0,1,3.556-.938,7.022,7.022,0,0,1,3.584.924,6.941,6.941,0,0,1,2.534,2.506,6.813,6.813,0,0,1,.938,3.542,6.887,6.887,0,0,1-.938,3.556,7.017,7.017,0,0,1-2.534,2.534A6.94,6.94,0,0,1,153.958.28Zm0-2.968a3.933,3.933,0,0,0,2.03-.518,3.584,3.584,0,0,0,1.372-1.442,4.413,4.413,0,0,0,.49-2.1,4.154,4.154,0,0,0-.5-2.072,3.766,3.766,0,0,0-1.372-1.414,3.859,3.859,0,0,0-2.016-.518,3.879,3.879,0,0,0-2,.518,3.632,3.632,0,0,0-1.372,1.414,4.249,4.249,0,0,0-.49,2.072,4.413,4.413,0,0,0,.49,2.1,3.583,3.583,0,0,0,1.372,1.442A3.879,3.879,0,0,0,153.958-2.688ZM172.774,0V-7.756a3.022,3.022,0,0,0-.854-2.212,2.949,2.949,0,0,0-2.2-.868,3.21,3.21,0,0,0-1.6.392,2.792,2.792,0,0,0-1.092,1.092,3.21,3.21,0,0,0-.392,1.6l-1.2-.672a5.455,5.455,0,0,1,.672-2.73,4.924,4.924,0,0,1,1.862-1.876,5.256,5.256,0,0,1,2.674-.686,4.8,4.8,0,0,1,2.688.77,5.548,5.548,0,0,1,1.848,1.988,5.177,5.177,0,0,1,.672,2.534V0Zm-9.212,0V-13.44h3.08V0Z" transform="translate(5118 3917.285)" fill="#ababac"/>
    <g id="Group_208" data-name="Group 208" transform="translate(4599 126)">
      <path id="Path_189" data-name="Path 189" d="M9.456.24A8.508,8.508,0,0,1,6.084-.42a8.2,8.2,0,0,1-2.7-1.848,8.344,8.344,0,0,1-1.776-2.76A9.056,9.056,0,0,1,.984-8.4a9.056,9.056,0,0,1,.624-3.372A8.212,8.212,0,0,1,3.384-14.52a8.448,8.448,0,0,1,2.7-1.848,8.376,8.376,0,0,1,3.372-.672,8.515,8.515,0,0,1,3.528.672,8.86,8.86,0,0,1,2.64,1.824l-1.872,1.872a5.156,5.156,0,0,0-1.812-1.272A6.284,6.284,0,0,0,9.456-14.4a5.848,5.848,0,0,0-2.28.432,5.161,5.161,0,0,0-1.788,1.236,5.565,5.565,0,0,0-1.164,1.908A6.943,6.943,0,0,0,3.816-8.4a6.943,6.943,0,0,0,.408,2.424A5.565,5.565,0,0,0,5.388-4.068,5.161,5.161,0,0,0,7.176-2.832a5.848,5.848,0,0,0,2.28.432,6.476,6.476,0,0,0,2.6-.468,5.291,5.291,0,0,0,1.812-1.284L15.744-2.28A8.413,8.413,0,0,1,13.032-.432,8.965,8.965,0,0,1,9.456.24ZM18.216,0V-16.8h2.76V0Zm8.3-6.336v-2.4h4.2a3.22,3.22,0,0,0,1.524-.348,2.63,2.63,0,0,0,1.044-.984,2.846,2.846,0,0,0,.384-1.5,2.846,2.846,0,0,0-.384-1.5,2.63,2.63,0,0,0-1.044-.984A3.22,3.22,0,0,0,30.72-14.4h-4.2v-2.4h4.344a6.127,6.127,0,0,1,2.844.648A4.983,4.983,0,0,1,35.7-14.328a5.115,5.115,0,0,1,.732,2.76,5.115,5.115,0,0,1-.732,2.76,4.983,4.983,0,0,1-1.992,1.824,6.128,6.128,0,0,1-2.844.648ZM24.624,0V-16.8h2.76V0ZM43.2.24a7.3,7.3,0,0,1-3.036-.612A6.1,6.1,0,0,1,37.872-2.16l1.872-1.872A3.544,3.544,0,0,0,41.16-2.808a4.391,4.391,0,0,0,1.992.456,3.828,3.828,0,0,0,1.776-.384,2.863,2.863,0,0,0,1.164-1.08,3.051,3.051,0,0,0,.42-1.608,3.019,3.019,0,0,0-.42-1.632,2.791,2.791,0,0,0-1.2-1.044,4.347,4.347,0,0,0-1.884-.372,6.806,6.806,0,0,0-.888.06,4.4,4.4,0,0,0-.816.18l1.224-1.584A8.329,8.329,0,0,1,43.6-10.14a4.787,4.787,0,0,1,1.092-.132,4.473,4.473,0,0,1,2.34.624,4.5,4.5,0,0,1,1.656,1.74A5.383,5.383,0,0,1,49.3-5.28a5.383,5.383,0,0,1-.768,2.88A5.237,5.237,0,0,1,46.392-.456,6.95,6.95,0,0,1,43.2.24ZM41.3-8.232V-9.864L45.792-15.1l3.312-.072-4.68,5.376Zm-2.592-6.1V-16.8H49.1v1.632l-2.376.84Zm12.216,12.7L57.12-8.208a16.7,16.7,0,0,0,1.248-1.464,5.113,5.113,0,0,0,.7-1.224,3.324,3.324,0,0,0,.216-1.176,2.213,2.213,0,0,0-.732-1.764,2.734,2.734,0,0,0-1.86-.636,3.755,3.755,0,0,0-2.112.6A5.3,5.3,0,0,0,52.944-12l-1.92-1.584a7.069,7.069,0,0,1,2.424-2.58,6.291,6.291,0,0,1,3.336-.876,5.753,5.753,0,0,1,2.736.624,4.5,4.5,0,0,1,1.824,1.74,5.044,5.044,0,0,1,.648,2.58,6.47,6.47,0,0,1-.252,1.884,5.632,5.632,0,0,1-.852,1.656,19.262,19.262,0,0,1-1.656,1.932L54.48-1.7Zm0,1.632V-1.632l2.376-.84h9.024V0Z" transform="translate(287 3883)" fill="#fff"/>
      <path id="Path_190" data-name="Path 190" d="M5.094.18A5.014,5.014,0,0,1,2.709-.36,5.9,5.9,0,0,1,.864-1.944L2.25-3.33A4.566,4.566,0,0,0,3.474-2.106a2.98,2.98,0,0,0,1.692.468,2.78,2.78,0,0,0,1.665-.45,1.485,1.485,0,0,0,.621-1.278,1.568,1.568,0,0,0-.324-1.026,2.519,2.519,0,0,0-.855-.657A8.8,8.8,0,0,0,5.1-5.517q-.639-.207-1.278-.468a5.3,5.3,0,0,1-1.17-.657A2.926,2.926,0,0,1,1.8-7.668a3.491,3.491,0,0,1-.324-1.6,3.224,3.224,0,0,1,.549-1.9,3.5,3.5,0,0,1,1.485-1.2A5.107,5.107,0,0,1,5.6-12.78a4.494,4.494,0,0,1,2.07.486,4.76,4.76,0,0,1,1.566,1.242L7.848-9.666a4.821,4.821,0,0,0-1.107-.954,2.281,2.281,0,0,0-1.2-.342A2.633,2.633,0,0,0,4-10.575a1.335,1.335,0,0,0-.54,1.161,1.291,1.291,0,0,0,.333.927,2.728,2.728,0,0,0,.873.594q.54.243,1.179.459t1.287.486a5.092,5.092,0,0,1,1.188.693,3.145,3.145,0,0,1,.873,1.089,3.73,3.73,0,0,1,.333,1.674A3.3,3.3,0,0,1,8.325-.81,4.914,4.914,0,0,1,5.094.18ZM4.806,1.8V-14.4h1.44V1.8ZM16.434.18a4.529,4.529,0,0,1-2.6-.8A5.582,5.582,0,0,1,11.952-2.88a7.849,7.849,0,0,1-.7-3.438,7.876,7.876,0,0,1,.693-3.429,5.489,5.489,0,0,1,1.863-2.241A4.523,4.523,0,0,1,16.4-12.78a4.552,4.552,0,0,1,2.61.792,5.489,5.489,0,0,1,1.863,2.241A7.921,7.921,0,0,1,21.564-6.3a7.936,7.936,0,0,1-.693,3.438,5.507,5.507,0,0,1-1.854,2.25A4.482,4.482,0,0,1,16.434.18ZM16.4-1.764a2.656,2.656,0,0,0,1.62-.5A3.27,3.27,0,0,0,19.089-3.78a7.147,7.147,0,0,0,.387-2.538,7.086,7.086,0,0,0-.387-2.52,3.182,3.182,0,0,0-1.08-1.5,2.7,2.7,0,0,0-1.611-.5,2.7,2.7,0,0,0-1.611.5,3.131,3.131,0,0,0-1.071,1.494,7.224,7.224,0,0,0-.378,2.529,7.3,7.3,0,0,0,.378,2.538,3.187,3.187,0,0,0,1.071,1.512A2.666,2.666,0,0,0,16.4-1.764ZM24.48.18a1.248,1.248,0,0,1-.945-.387,1.318,1.318,0,0,1-.369-.945,1.31,1.31,0,0,1,.369-.954,1.263,1.263,0,0,1,.945-.378,1.263,1.263,0,0,1,.945.378,1.31,1.31,0,0,1,.369.954,1.318,1.318,0,0,1-.369.945A1.248,1.248,0,0,1,24.48.18Zm8.1,0a4.529,4.529,0,0,1-2.6-.8A5.582,5.582,0,0,1,28.1-2.88a7.849,7.849,0,0,1-.7-3.438,7.876,7.876,0,0,1,.693-3.429,5.489,5.489,0,0,1,1.863-2.241,4.523,4.523,0,0,1,2.592-.792,4.552,4.552,0,0,1,2.61.792,5.489,5.489,0,0,1,1.863,2.241A7.921,7.921,0,0,1,37.71-6.3a7.936,7.936,0,0,1-.693,3.438,5.507,5.507,0,0,1-1.854,2.25A4.482,4.482,0,0,1,32.58.18Zm-.036-1.944a2.656,2.656,0,0,0,1.62-.5A3.27,3.27,0,0,0,35.235-3.78a7.147,7.147,0,0,0,.387-2.538,7.086,7.086,0,0,0-.387-2.52,3.182,3.182,0,0,0-1.08-1.5,2.7,2.7,0,0,0-1.611-.5,2.7,2.7,0,0,0-1.611.5,3.131,3.131,0,0,0-1.071,1.494,7.224,7.224,0,0,0-.378,2.529,7.3,7.3,0,0,0,.378,2.538,3.187,3.187,0,0,0,1.071,1.512A2.666,2.666,0,0,0,32.544-1.764ZM42.894.18a5.675,5.675,0,0,1-2.34-.459A4.556,4.556,0,0,1,38.826-1.62l1.4-1.4a2.645,2.645,0,0,0,1.071.918,3.471,3.471,0,0,0,1.557.342,3.143,3.143,0,0,0,1.386-.288,2.239,2.239,0,0,0,.936-.828,2.338,2.338,0,0,0,.342-1.278,2.318,2.318,0,0,0-.333-1.287,2.116,2.116,0,0,0-.882-.774,2.711,2.711,0,0,0-1.179-.261,4.689,4.689,0,0,0-1.287.162,3.324,3.324,0,0,0-1.107.576l.054-1.3a2.609,2.609,0,0,1,.666-.621,2.935,2.935,0,0,1,.882-.369,4.94,4.94,0,0,1,1.188-.126,4.209,4.209,0,0,1,2.241.558,3.643,3.643,0,0,1,1.377,1.485A4.507,4.507,0,0,1,47.61-4.05a3.989,3.989,0,0,1-.6,2.178,4.211,4.211,0,0,1-1.665,1.5A5.256,5.256,0,0,1,42.894.18Zm-2.16-5.922L39.6-6.876l.558-5.724h1.89L41.4-6.642Zm-.216-5-.36-1.854h6.75v1.854Z" transform="translate(287 3913)" fill="#1ad66d"/>
      <rect id="Rectangle_2167" data-name="Rectangle 2167" width="321" height="64" rx="6" transform="translate(425 3853)" fill="#fff"/>
      <rect id="Rectangle_2168" data-name="Rectangle 2168" width="15" height="64" rx="4" transform="translate(425 3853)" fill="#1ad66d"/>
    </g>
    <g id="Group_209" data-name="Group 209" transform="translate(4599 215)">
      <path id="Path_191" data-name="Path 191" d="M9.456.24A8.508,8.508,0,0,1,6.084-.42a8.2,8.2,0,0,1-2.7-1.848,8.344,8.344,0,0,1-1.776-2.76A9.056,9.056,0,0,1,.984-8.4a9.056,9.056,0,0,1,.624-3.372A8.212,8.212,0,0,1,3.384-14.52a8.448,8.448,0,0,1,2.7-1.848,8.376,8.376,0,0,1,3.372-.672,8.515,8.515,0,0,1,3.528.672,8.86,8.86,0,0,1,2.64,1.824l-1.872,1.872a5.156,5.156,0,0,0-1.812-1.272A6.284,6.284,0,0,0,9.456-14.4a5.848,5.848,0,0,0-2.28.432,5.161,5.161,0,0,0-1.788,1.236,5.565,5.565,0,0,0-1.164,1.908A6.943,6.943,0,0,0,3.816-8.4a6.943,6.943,0,0,0,.408,2.424A5.565,5.565,0,0,0,5.388-4.068,5.161,5.161,0,0,0,7.176-2.832a5.848,5.848,0,0,0,2.28.432,6.476,6.476,0,0,0,2.6-.468,5.291,5.291,0,0,0,1.812-1.284L15.744-2.28A8.413,8.413,0,0,1,13.032-.432,8.965,8.965,0,0,1,9.456.24ZM16.536,0l6.912-16.8h1.92L32.232,0H29.256L23.88-13.608h1.008L19.464,0Zm3.408-3.24v-2.4h8.9v2.4ZM36.336-7.128v-2.28h4.248a2.793,2.793,0,0,0,1.98-.66,2.387,2.387,0,0,0,.708-1.836,2.457,2.457,0,0,0-.7-1.776,2.61,2.61,0,0,0-1.968-.72H36.336v-2.4h4.392a5.858,5.858,0,0,1,2.784.636,4.68,4.68,0,0,1,1.86,1.728,4.707,4.707,0,0,1,.66,2.484,4.782,4.782,0,0,1-.66,2.544,4.462,4.462,0,0,1-1.86,1.68,6.148,6.148,0,0,1-2.784.6ZM34.44,0V-16.8H37.2V0Zm9.216,0-5.88-7.3,2.568-.936L47.136,0Zm7.416,0V-2.52h4.416a6.034,6.034,0,0,0,3.036-.744,5.25,5.25,0,0,0,2.04-2.076A6.3,6.3,0,0,0,61.3-8.424a6.1,6.1,0,0,0-.744-3.048A5.355,5.355,0,0,0,58.5-13.536a5.985,5.985,0,0,0-3.012-.744H51.072V-16.8H55.56a8.878,8.878,0,0,1,3.384.636,8.36,8.36,0,0,1,2.724,1.776,8.157,8.157,0,0,1,1.812,2.664A8.407,8.407,0,0,1,64.128-8.4a8.433,8.433,0,0,1-.648,3.312,8.215,8.215,0,0,1-1.8,2.676A8.224,8.224,0,0,1,58.968-.636,8.814,8.814,0,0,1,55.608,0Zm-1.9,0V-16.8h2.76V0ZM65.688,0,72.6-16.8h1.92L81.384,0H78.408L73.032-13.608H74.04L68.616,0ZM69.1-3.24v-2.4H78v2.4ZM83.592,0V-16.8h1.92l.84,3.168V0Zm11.64,0L85.176-13.128l.336-3.672L95.568-3.672Zm0,0-.84-2.952V-16.8h2.76V0Zm13.3.24a8.4,8.4,0,0,1-3.36-.672,8.6,8.6,0,0,1-2.736-1.86,8.634,8.634,0,0,1-1.836-2.76,8.621,8.621,0,0,1-.66-3.372,8.534,8.534,0,0,1,.66-3.36,8.772,8.772,0,0,1,1.824-2.748,8.334,8.334,0,0,1,2.712-1.848,8.447,8.447,0,0,1,3.348-.66,8.447,8.447,0,0,1,3.348.66,8.47,8.47,0,0,1,2.724,1.848,8.634,8.634,0,0,1,1.836,2.76,8.621,8.621,0,0,1,.66,3.372,8.621,8.621,0,0,1-.66,3.372,8.593,8.593,0,0,1-1.824,2.748,8.59,8.59,0,0,1-2.712,1.848A8.256,8.256,0,0,1,108.528.24ZM108.48-2.4a5.709,5.709,0,0,0,2.988-.768,5.426,5.426,0,0,0,2.016-2.124,6.491,6.491,0,0,0,.732-3.132,6.668,6.668,0,0,0-.42-2.412,5.645,5.645,0,0,0-1.188-1.9,5.255,5.255,0,0,0-1.812-1.236,6,6,0,0,0-2.316-.432,5.732,5.732,0,0,0-2.964.756,5.361,5.361,0,0,0-2.016,2.1,6.421,6.421,0,0,0-.732,3.12,6.863,6.863,0,0,0,.42,2.436,5.562,5.562,0,0,0,1.176,1.908,5.325,5.325,0,0,0,1.812,1.236A5.885,5.885,0,0,0,108.48-2.4Z" transform="translate(287 3883)" fill="#fff"/>
      <path id="Path_192" data-name="Path 192" d="M2.988,0V-12.6H5.022V0ZM.468-10.746V-12.6H4.842v1.854ZM9.918,0,15.1-12.6h1.44L21.69,0H19.458L15.426-10.206h.756L12.114,0Zm2.556-2.43v-1.8h6.678v1.8ZM24.768,0V-1.89H28.08a4.526,4.526,0,0,0,2.277-.558,3.937,3.937,0,0,0,1.53-1.557,4.725,4.725,0,0,0,.549-2.313A4.576,4.576,0,0,0,31.878-8.6a4.016,4.016,0,0,0-1.539-1.548,4.489,4.489,0,0,0-2.259-.558H24.768V-12.6h3.366a6.659,6.659,0,0,1,2.538.477,6.27,6.27,0,0,1,2.043,1.332,6.118,6.118,0,0,1,1.359,2A6.305,6.305,0,0,1,34.56-6.3a6.324,6.324,0,0,1-.486,2.484,6.161,6.161,0,0,1-1.35,2.007A6.168,6.168,0,0,1,30.69-.477,6.611,6.611,0,0,1,28.17,0ZM23.346,0V-12.6h2.07V0ZM35.73,0l5.184-12.6h1.44L47.5,0H45.27L41.238-10.206h.756L37.926,0Zm2.556-2.43v-1.8h6.678v1.8Z" transform="translate(287 3913)" fill="#e74646"/>
      <rect id="Rectangle_2167-2" data-name="Rectangle 2167" width="321" height="64" rx="6" transform="translate(425 3853)" fill="#fff"/>
      <rect id="Rectangle_2168-2" data-name="Rectangle 2168" width="321" height="64" rx="4" transform="translate(425 3853)" fill="#e74646"/>
    </g>
  </g>
</svg>
