<svg xmlns="http://www.w3.org/2000/svg" width="111" height="111" viewBox="0 0 111 111">
  <g id="Ledger_Support" data-name="Ledger Support" transform="translate(-297 -4658)">
    <rect id="Rectangle_2164" data-name="Rectangle 2164" width="111" height="111" rx="10" transform="translate(297 4658)" fill="#222"/>
    <g id="noun-accounts-book-2069271" transform="translate(244.322 4682.985)">
      <path id="Path_162" data-name="Path 162" d="M131.531,137.561h12.74a2.879,2.879,0,0,0,2.861-2.861,2.879,2.879,0,0,0,2.861,2.861h12.74a1.977,1.977,0,0,0,1.976-1.976v-23.3a1.977,1.977,0,0,0-1.976-1.976h-5.586v.613a10.082,10.082,0,1,1-20.165,0v-.613H131.4a1.977,1.977,0,0,0-1.976,1.976v23.368a2.192,2.192,0,0,0,2.111,1.907Zm19.144-16.283h10.492a.681.681,0,0,1,0,1.362H150.675a.681.681,0,0,1,0-1.362Zm0,4.019h10.492a.681.681,0,0,1,0,1.362H150.675a.681.681,0,0,1,0-1.362Zm0,3.952h10.492a.683.683,0,0,1,.681.681.644.644,0,0,1-.681.681H150.675a.681.681,0,0,1,0-1.362Zm0,4.019h10.492a.681.681,0,1,1,0,1.362H150.675a.681.681,0,1,1,0-1.362ZM133.1,121.278H143.59a.681.681,0,1,1,0,1.362H133.1a.683.683,0,0,1-.681-.681A.644.644,0,0,1,133.1,121.278Zm0,4.019H143.59a.681.681,0,0,1,0,1.362H133.1a.683.683,0,0,1-.681-.681A.644.644,0,0,1,133.1,125.3Zm0,3.952H143.59a.683.683,0,0,1,.681.681.644.644,0,0,1-.681.681H133.1a.683.683,0,0,1-.681-.681A.644.644,0,0,1,133.1,129.249Zm0,4.019H143.59a.681.681,0,1,1,0,1.362H133.1a.683.683,0,0,1-.681-.681A.644.644,0,0,1,133.1,133.269Z" transform="translate(-39.05 -93.645)" fill="#f2a214"/>
      <path id="Path_163" data-name="Path 163" d="M127.022,156.117v21.6a3.271,3.271,0,0,1-3.27,3.27H110.943a4.015,4.015,0,0,1-2.861-1.158,4.325,4.325,0,0,1-2.861,1.158H92.48a3.271,3.271,0,0,1-3.27-3.27v-21.6a2.651,2.651,0,0,0-2.248,2.657v21.869a2.66,2.66,0,0,0,2.657,2.657H102.9a5.23,5.23,0,0,0,5.178,4.565,5.351,5.351,0,0,0,5.246-4.633h13.285a2.66,2.66,0,0,0,2.657-2.657v-21.8a2.778,2.778,0,0,0-2.248-2.657Z" transform="translate(0 -135.773)" fill="#f2a214"/>
      <path id="Path_164" data-name="Path 164" d="M249.338,26a8.754,8.754,0,1,0-8.788-8.721A8.81,8.81,0,0,0,249.338,26Zm0-8.107a2.588,2.588,0,0,1-2.589-2.589,2.636,2.636,0,0,1,1.908-2.521v-.749a.683.683,0,0,1,.681-.681.644.644,0,0,1,.681.681v.818a2.576,2.576,0,0,1,1.908,2.521.683.683,0,0,1-.681.681.644.644,0,0,1-.681-.681,1.294,1.294,0,1,0-2.589,0,1.253,1.253,0,0,0,1.294,1.294,2.588,2.588,0,0,1,2.589,2.589,2.636,2.636,0,0,1-1.908,2.521v.818a.683.683,0,0,1-.681.681.644.644,0,0,1-.681-.681v-.818a2.576,2.576,0,0,1-1.908-2.521.681.681,0,0,1,1.362,0,1.294,1.294,0,0,0,2.589,0A1.354,1.354,0,0,0,249.338,17.892Z" transform="translate(-141.256)" fill="#f2a214"/>
    </g>
  </g>
</svg>
