<svg xmlns="http://www.w3.org/2000/svg" width="36" height="36" viewBox="0 0 36 36">
  <path id="medium" d="M0,0V36H36V0ZM29.907,8.529l-1.93,1.851a.564.564,0,0,0-.214.543v13.6a.564.564,0,0,0,.214.541l1.885,1.851v.407H20.379v-.405l1.953-1.9c.192-.192.192-.247.192-.54v-11l-5.43,13.793h-.735L10.035,13.485V22.73a1.275,1.275,0,0,0,.35,1.06l2.541,3.081v.407h-7.2v-.405L8.265,23.79a1.23,1.23,0,0,0,.327-1.06V12.04a.936.936,0,0,0-.3-.79L6.029,8.529v-.4H13.04l5.42,11.884L23.224,8.122h6.684v.407Z" fill="#ababac"/>
</svg>
