<svg xmlns="http://www.w3.org/2000/svg" width="111" height="111" viewBox="0 0 111 111">
  <g id="Privacy" transform="translate(-297 -4658)">
    <rect id="Rectangle_2164" data-name="Rectangle 2164" width="111" height="111" rx="10" transform="translate(297 4658)" fill="#222"/>
    <g id="shield-fill-check" transform="translate(334.128 4694.875)">
      <path id="Path_149" data-name="Path 149" d="M18,1.125a30.192,30.192,0,0,0-6.329,1.181q-3.14.843-6.237,1.834A3.272,3.272,0,0,0,3.177,6.8C1.888,16.247,4.878,23.245,8.5,27.875a25.182,25.182,0,0,0,5.438,5.175,15.665,15.665,0,0,0,2.266,1.319A4.674,4.674,0,0,0,18,34.875a4.66,4.66,0,0,0,1.791-.506,15.665,15.665,0,0,0,2.266-1.319A25.18,25.18,0,0,0,27.5,27.875c3.625-4.63,6.615-11.628,5.326-21.071A3.272,3.272,0,0,0,30.567,4.14q-3.1-.991-6.237-1.834A30.188,30.188,0,0,0,18,1.125Zm6.421,14.3a1.126,1.126,0,1,0-1.593-1.593l-5.953,5.956L14.3,17.2A1.126,1.126,0,0,0,12.7,18.8l3.375,3.375a1.125,1.125,0,0,0,1.593,0Z" fill="#f2a214" fill-rule="evenodd"/>
    </g>
  </g>
</svg>
