<svg xmlns="http://www.w3.org/2000/svg" width="111" height="111" viewBox="0 0 111 111">
  <g id="Recovery_Tool" data-name="Recovery Tool" transform="translate(-297 -4658)">
    <rect id="Rectangle_2164" data-name="Rectangle 2164" width="111" height="111" rx="10" transform="translate(297 4658)" fill="#222"/>
    <g id="noun-recovery-3747305" transform="translate(132.87 4563.785)">
      <path id="Path_150" data-name="Path 150" d="M214,221.031a1.311,1.311,0,0,1-1.975,1.408l-3.336-2.088-4.161,6.671a2.623,2.623,0,0,0,2.218,4.016H211a.987.987,0,0,1,.988.987v3.239a.988.988,0,0,1-.988.988h-4.242a7.886,7.886,0,0,1-6.687-12.047l4.178-6.671-3.336-2.04a1.312,1.312,0,0,1,.389-2.4l9.035-2.089h0a1.312,1.312,0,0,1,1.619.987Z" transform="translate(0 -70.783)" fill="#f2a214"/>
      <path id="Path_151" data-name="Path 151" d="M301.036,135.19l3.384,5.408-3.336,2.154a1.312,1.312,0,0,0,.4,2.4l9.035,2.089a1.312,1.312,0,0,0,1.619-.988l2.089-9.035a1.312,1.312,0,0,0-1.976-1.408l-3.336,2.089-3.384-5.424h0a7.869,7.869,0,0,0-13.342,0l-1.473,2.364a.987.987,0,0,0,.307,1.36l2.785,1.733h0a.988.988,0,0,0,1.36-.324l1.425-2.413a2.607,2.607,0,0,1,4.437,0Z" transform="translate(-78.962)" fill="#f2a214"/>
      <path id="Path_152" data-name="Path 152" d="M345.387,281.351l-2.267-3.611h0a.972.972,0,0,0-1.344-.307l-2.785,1.733a.988.988,0,0,0-.308,1.36l2.251,3.611a2.623,2.623,0,0,1-2.218,4.016h-7.869v-3.935a1.311,1.311,0,0,0-2.235-.923l-6.558,6.558a1.295,1.295,0,0,0,0,1.845l6.558,6.477a1.312,1.312,0,0,0,2.235-.923V293.4H338.7a7.885,7.885,0,0,0,6.687-12.046Z" transform="translate(-105.743 -127.897)" fill="#f2a214"/>
    </g>
  </g>
</svg>
