<svg xmlns="http://www.w3.org/2000/svg" width="111" height="111" viewBox="0 0 111 111">
  <g id="Self-_Custodial" data-name="Self- Custodial" transform="translate(-297 -4658)">
    <rect id="Rectangle_2164" data-name="Rectangle 2164" width="111" height="111" rx="10" transform="translate(297 4658)" fill="#222"/>
    <path id="lock" d="M8.182,16.364H21.273V11.455a6.307,6.307,0,0,0-1.918-4.628,6.307,6.307,0,0,0-4.628-1.918A6.307,6.307,0,0,0,10.1,6.827a6.307,6.307,0,0,0-1.918,4.628v4.909Zm21.273,2.455V33.546A2.445,2.445,0,0,1,27,36H2.455a2.368,2.368,0,0,1-1.739-.716A2.368,2.368,0,0,1,0,33.546V18.818a2.368,2.368,0,0,1,.716-1.739,2.368,2.368,0,0,1,1.739-.716h.818V11.455a11.024,11.024,0,0,1,3.375-8.08A11.023,11.023,0,0,1,14.727,0a11.026,11.026,0,0,1,8.08,3.375,11.019,11.019,0,0,1,3.375,8.08v4.909H27a2.445,2.445,0,0,1,2.455,2.455Z" transform="translate(338 4695)" fill="#f2a214"/>
  </g>
</svg>
