<svg xmlns="http://www.w3.org/2000/svg" xmlns:xlink="http://www.w3.org/1999/xlink" width="506" height="593" viewBox="0 0 506 593">
  <defs>
    <clipPath id="clip-path">
      <path id="Union_6" data-name="Union 6" d="M-2254,340a252.116,252.116,0,0,1,21-101.081V0h462V234.453A252.1,252.1,0,0,1-1748,340c0,139.728-113.272,253-253,253S-2254,479.728-2254,340Z" transform="translate(3403 1636)" fill="#fff"/>
    </clipPath>
    <clipPath id="clip-path-2">
      <path id="screen" d="M314.7,834.787H37.575A37.544,37.544,0,0,1,0,797.212V109.576A37.544,37.544,0,0,1,37.575,72h35.7a4.7,4.7,0,0,1,4.7,4.613v2.9a20.65,20.65,0,0,0,20.666,20.667H255.515A18.773,18.773,0,0,0,274.3,81.394V76.7a4.7,4.7,0,0,1,4.692-4.7h35.7a37.545,37.545,0,0,1,37.575,37.576V797.212A37.544,37.544,0,0,1,314.7,834.787Z" transform="translate(0 -72)" fill="#424256"/>
    </clipPath>
  </defs>
  <g id="Stake_to_Earn" data-name="Stake to Earn" transform="translate(-4348 -1761)">
    <g id="Ellipse_31" data-name="Ellipse 31" transform="translate(4348 1848)" fill="#f2a214" stroke="#707070" stroke-width="1">
      <circle cx="253" cy="253" r="253" stroke="none"/>
      <circle cx="253" cy="253" r="252.5" fill="none"/>
    </g>
    <g id="Stake_to_Earn-2" data-name="Stake to Earn" transform="translate(3199 125)" clip-path="url(#clip-path)">
      <g id="Staking_SVG" data-name="Staking SVG" transform="translate(958 1454)">
        <g id="phone" transform="translate(243 219)">
          <path id="body" d="M60.121-175.243A56.363,56.363,0,0,1,3.757-231.606V-686.273A3.758,3.758,0,0,1,0-690.031v-50.727a3.758,3.758,0,0,1,3.757-3.757v-15.031A3.758,3.758,0,0,1,0-763.3V-814.03a3.758,3.758,0,0,1,3.757-3.758V-845.97A3.758,3.758,0,0,1,0-849.727v-22.546a3.758,3.758,0,0,1,3.757-3.758v-52.606A56.363,56.363,0,0,1,60.121-985H342.879a56.363,56.363,0,0,1,56.363,56.363V-798.06A3.758,3.758,0,0,1,403-794.3v84.545A3.758,3.758,0,0,1,399.242-706v474.394a56.363,56.363,0,0,1-56.363,56.363Z" transform="translate(0 985)" fill="#3a3c3d"/>
          <path id="camera" d="M109.94-960.364A5.635,5.635,0,0,1,115.575-966a5.636,5.636,0,0,1,5.637,5.636,5.637,5.637,0,0,1-5.637,5.637A5.636,5.636,0,0,1,109.94-960.364Zm-60.121,2.819A2.819,2.819,0,0,1,47-960.364a2.818,2.818,0,0,1,2.819-2.818H93.97a2.818,2.818,0,0,1,2.818,2.818,2.818,2.818,0,0,1-2.818,2.819Z" transform="translate(129.606 992.303)" fill="#424256"/>
        </g>
        <g id="YOUR_DESIGN" data-name="YOUR DESIGN" transform="translate(268.364 243.424)" clip-path="url(#clip-path-2)">
          <g id="Staking" transform="translate(-0.488 -0.655)">
            <rect id="Rectangle_2188" data-name="Rectangle 2188" width="353" height="763" transform="translate(0.124 0.1)" fill="#222"/>
            <g id="Group_212" data-name="Group 212" transform="translate(0 0)">
              <rect id="Rectangle_2127" data-name="Rectangle 2127" width="353" height="88" transform="translate(0.124 0.1)" fill="#2c2d30"/>
              <g id="Status_Bar" data-name="Status Bar">
                <rect id="Frame" width="353" height="41" transform="translate(0.124 0.1)" fill="#fff" opacity="0.001"/>
                <g id="Status_Bar-2" data-name="Status Bar" transform="translate(34.067 15.056)">
                  <g id="Battery" transform="translate(282.37 0.002)">
                    <g id="Border" transform="translate(0 0)" fill="#fff" stroke="#fff" stroke-miterlimit="10" stroke-width="1" opacity="0.35">
                      <rect width="20.667" height="10.646" rx="2.667" stroke="none"/>
                      <rect x="0.5" y="0.5" width="19.667" height="9.646" rx="2.167" fill="none"/>
                    </g>
                    <path id="Cap" d="M0,0V3.758A2.038,2.038,0,0,0,1.248,1.879,2.038,2.038,0,0,0,0,0" transform="translate(21.606 3.444)" fill="#fff" opacity="0.4"/>
                    <rect id="Capacity" width="16.909" height="6.889" rx="1.333" transform="translate(1.879 1.879)" fill="#fff"/>
                  </g>
                  <path id="Wifi" d="M7.2,10.333a.3.3,0,0,1-.209-.087l-1.885-1.9a.291.291,0,0,1-.088-.217.3.3,0,0,1,.1-.213,3.228,3.228,0,0,1,4.168,0,.3.3,0,0,1,.008.43l-1.884,1.9A.3.3,0,0,1,7.2,10.333ZM10.512,7a.294.294,0,0,1-.2-.08,4.63,4.63,0,0,0-6.212,0A.294.294,0,0,1,3.9,7a.29.29,0,0,1-.206-.085L2.6,5.814a.3.3,0,0,1,0-.432,6.756,6.756,0,0,1,9.2,0A.3.3,0,0,1,11.9,5.6a.3.3,0,0,1-.089.216l-1.089,1.1A.29.29,0,0,1,10.512,7Zm2.508-2.53a.286.286,0,0,1-.2-.083,8.154,8.154,0,0,0-11.23,0,.289.289,0,0,1-.408,0L.088,3.285a.3.3,0,0,1,0-.429,10.284,10.284,0,0,1,14.223,0,.3.3,0,0,1,0,.429l-1.091,1.1A.287.287,0,0,1,13.019,4.47Z" transform="translate(263.269 0)" fill="#fff"/>
                  <path id="Cellular_Connection" data-name="Cellular Connection" d="M15.03,10.02h-.939a.94.94,0,0,1-.939-.939V.939A.94.94,0,0,1,14.091,0h.939a.94.94,0,0,1,.939.939V9.081A.94.94,0,0,1,15.03,10.02Zm-4.384,0h-.94a.94.94,0,0,1-.939-.939V3.132a.94.94,0,0,1,.939-.939h.94a.94.94,0,0,1,.939.939V9.081A.94.94,0,0,1,10.647,10.02Zm-4.385,0H5.323a.94.94,0,0,1-.939-.939V5.323a.94.94,0,0,1,.939-.939h.939a.941.941,0,0,1,.94.939V9.081A.941.941,0,0,1,6.262,10.02Zm-4.384,0H.939A.94.94,0,0,1,0,9.081V7.2a.941.941,0,0,1,.939-.94h.939a.941.941,0,0,1,.939.94V9.081A.94.94,0,0,1,1.879,10.02Z" transform="translate(242.602 0.316)" fill="#fff"/>
                  <g id="Time_Style" data-name="Time Style" transform="translate(0 1.815)">
                    <path id="Time" d="M21.358,9.879a8.922,8.922,0,0,1-.32,2.546,5.036,5.036,0,0,1-.881,1.754,3.464,3.464,0,0,1-1.314,1.015,4.027,4.027,0,0,1-1.62.327,4.742,4.742,0,0,1-.568-.034q-.286-.034-.544-.089t-.468-.12a3.142,3.142,0,0,1-.347-.127V13.712a2.847,2.847,0,0,0,.358.182,3.782,3.782,0,0,0,.464.165,4.58,4.58,0,0,0,.523.117,3.241,3.241,0,0,0,.526.045,2.447,2.447,0,0,0,1.063-.227,2.188,2.188,0,0,0,.815-.674,3.262,3.262,0,0,0,.519-1.111,5.831,5.831,0,0,0,.182-1.538h-.028a1.824,1.824,0,0,1-.327.416,2.281,2.281,0,0,1-.464.344,2.594,2.594,0,0,1-.581.237,2.533,2.533,0,0,1-.685.089,3.031,3.031,0,0,1-1.152-.217,2.715,2.715,0,0,1-.925-.616,2.843,2.843,0,0,1-.616-.97,3.465,3.465,0,0,1-.224-1.273A3.651,3.651,0,0,1,15,7.289a3.051,3.051,0,0,1,1.754-1.734,3.569,3.569,0,0,1,1.314-.237,3.214,3.214,0,0,1,1.263.251,2.719,2.719,0,0,1,1.046.8,4.07,4.07,0,0,1,.716,1.414A7.247,7.247,0,0,1,21.358,9.879ZM19.693,8.827a3,3,0,0,0-.127-.9,2.157,2.157,0,0,0-.354-.695,1.6,1.6,0,0,0-.54-.447,1.5,1.5,0,0,0-.685-.158,1.522,1.522,0,0,0-.63.134,1.555,1.555,0,0,0-.523.382,1.841,1.841,0,0,0-.354.6,2.212,2.212,0,0,0-.131.777,2.458,2.458,0,0,0,.127.826,1.716,1.716,0,0,0,.354.6,1.486,1.486,0,0,0,.547.372,1.892,1.892,0,0,0,.705.127,1.577,1.577,0,0,0,.636-.127,1.635,1.635,0,0,0,.509-.344,1.578,1.578,0,0,0,.341-.513A1.623,1.623,0,0,0,19.693,8.827ZM23.436,15.5a.987.987,0,0,1-.7-.272.862.862,0,0,1-.289-.65.88.88,0,0,1,.289-.661.98.98,0,0,1,.7-.275,1,1,0,0,1,.712.275.875.875,0,0,1,.292.661.857.857,0,0,1-.292.65A1.008,1.008,0,0,1,23.436,15.5Zm0-5.442a.987.987,0,0,1-.7-.272.862.862,0,0,1-.289-.65.88.88,0,0,1,.289-.661.98.98,0,0,1,.7-.275,1,1,0,0,1,.712.275.875.875,0,0,1,.292.661.857.857,0,0,1-.292.65A1.008,1.008,0,0,1,23.436,10.058Zm7.789-4.575v6.371h1.466v1.328H31.225v2.167H29.677V13.182H25.212V11.84q.605-.681,1.242-1.476t1.225-1.624q.588-.829,1.091-1.662a15.162,15.162,0,0,0,.846-1.6Zm-1.548,6.371V7.712a22.861,22.861,0,0,1-1.483,2.353q-.733,1-1.373,1.789Zm7.245-6.591V15.349h-1.6V7.217a5.085,5.085,0,0,1-.932.526,7.685,7.685,0,0,1-1.139.382V6.763q.4-.131.771-.275t.733-.323q.361-.179.729-.4t.76-.5Z" transform="translate(-14.746 -5.263)" fill="#fff"/>
                  </g>
                </g>
              </g>
              <path id="Path_216" data-name="Path 216" d="M-23.177-.5a4.458,4.458,0,0,1-2.518-.691A3.658,3.658,0,0,1-27.16-3.081l1.2-.691a2.647,2.647,0,0,0,2.811,1.909,2.652,2.652,0,0,0,1.653-.444,1.419,1.419,0,0,0,.571-1.18,1.26,1.26,0,0,0-.571-1.128,8.206,8.206,0,0,0-1.909-.8l-1-.345a7.129,7.129,0,0,1-.868-.383,2.724,2.724,0,0,1-.774-.541,2.72,2.72,0,0,1-.458-.729,2.465,2.465,0,0,1-.2-1.022,2.684,2.684,0,0,1,.962-2.172,3.534,3.534,0,0,1,2.345-.8,3.757,3.757,0,0,1,2.172.631,3.93,3.93,0,0,1,1.39,1.668l-1.172.676a2.408,2.408,0,0,0-2.39-1.623,2.148,2.148,0,0,0-1.383.421,1.384,1.384,0,0,0-.526,1.142,1.218,1.218,0,0,0,.5,1.051,6.5,6.5,0,0,0,1.714.751l.611.217.569.2a5.359,5.359,0,0,1,.564.226q.18.09.488.256a1.988,1.988,0,0,1,.458.316q.15.151.353.369a1.45,1.45,0,0,1,.293.444,3.574,3.574,0,0,1,.158.519,2.778,2.778,0,0,1,.068.625,2.691,2.691,0,0,1-1.007,2.2A4.037,4.037,0,0,1-23.177-.5Zm9.018-6.448h-2v4.073a1.143,1.143,0,0,0,.218.789.9.9,0,0,0,.669.24q.451.008,1.112-.023V-.691a3.867,3.867,0,0,1-2.51-.278,2.075,2.075,0,0,1-.8-1.9V-6.944h-1.488V-8.207h1.488V-9.92l1.308-.391v2.1h2Zm7.395-1.263h1.308V-.691H-6.764V-1.984A3.189,3.189,0,0,1-9.6-.5a3.606,3.606,0,0,1-2.69-1.15,3.881,3.881,0,0,1-1.112-2.8,3.881,3.881,0,0,1,1.112-2.8A3.606,3.606,0,0,1-9.6-8.4,3.189,3.189,0,0,1-6.764-6.914ZM-9.439-1.759A2.578,2.578,0,0,0-7.53-2.533a2.616,2.616,0,0,0,.767-1.916A2.616,2.616,0,0,0-7.53-6.365a2.578,2.578,0,0,0-1.909-.774,2.56,2.56,0,0,0-1.894.774A2.616,2.616,0,0,0-12.1-4.449a2.616,2.616,0,0,0,.767,1.916A2.56,2.56,0,0,0-9.439-1.759ZM2.886-.691H1.262L-2.165-4.25V-.691H-3.472V-11.213h1.308V-4.9L1.082-8.207H2.765L-.827-4.569ZM4.764-9.574a.858.858,0,0,1-.631-.256.84.84,0,0,1-.256-.616.865.865,0,0,1,.256-.624.845.845,0,0,1,.631-.263.828.828,0,0,1,.616.263.865.865,0,0,1,.256.624.84.84,0,0,1-.256.616A.84.84,0,0,1,4.764-9.574ZM4.1-.691V-8.207H5.411V-.691ZM11.152-8.4a2.794,2.794,0,0,1,2.119.834,3.14,3.14,0,0,1,.8,2.262V-.691H12.76V-5.231a1.938,1.938,0,0,0-.5-1.42,1.833,1.833,0,0,0-1.368-.5,2.12,2.12,0,0,0-1.578.609,2.569,2.569,0,0,0-.6,1.871V-.691H7.41V-8.207H8.717v1.082A2.672,2.672,0,0,1,11.152-8.4Zm10.972.2h1.293v7.2A3.166,3.166,0,0,1,22.29,1.586a4.131,4.131,0,0,1-2.705.924A4.694,4.694,0,0,1,17.4,2.037,3.156,3.156,0,0,1,16.022.676L17.164.03a2.455,2.455,0,0,0,2.45,1.263A2.613,2.613,0,0,0,21.456.676a2.176,2.176,0,0,0,.669-1.683V-2.074A3.189,3.189,0,0,1,19.3-.571a3.651,3.651,0,0,1-2.72-1.142,3.837,3.837,0,0,1-1.112-2.781,3.812,3.812,0,0,1,1.112-2.773A3.663,3.663,0,0,1,19.3-8.4a3.175,3.175,0,0,1,2.826,1.488ZM17.54-2.585a2.591,2.591,0,0,0,1.909.767,2.591,2.591,0,0,0,1.909-.767,2.591,2.591,0,0,0,.767-1.909,2.573,2.573,0,0,0-.767-1.894,2.591,2.591,0,0,0-1.909-.767,2.591,2.591,0,0,0-1.909.767,2.573,2.573,0,0,0-.767,1.894A2.591,2.591,0,0,0,17.54-2.585Z" transform="translate(178.74 68.043)" fill="#fff"/>
              <path id="android-menu" d="M4.5,22.129H24.193V19.941H4.5Zm0-5.47H24.193V14.47H4.5ZM4.5,9v2.188H24.193V9Z" transform="translate(7.26 46.14)" fill="#fff"/>
              <g id="bell-solid-badged" transform="translate(325.276 53.261)">
                <path id="Path_1" data-name="Path 1" d="M16.68,33.157A1.355,1.355,0,0,0,17.989,32H15.32A1.355,1.355,0,0,0,16.68,33.157Z" transform="translate(-9.094 -16.271)" fill="#fff"/>
                <path id="Path_2" data-name="Path 2" d="M18.171,15.148,18,15a7.291,7.291,0,0,1-1.274-1.487,6.409,6.409,0,0,1-.685-2.441V8.561a5.541,5.541,0,0,0-.081-.908,3.806,3.806,0,0,1-3.039-3.734V3.6a5.363,5.363,0,0,0-1.685-.507V2.452a.677.677,0,1,0-1.355,0v.665A5.485,5.485,0,0,0,5.161,8.561v2.507a6.408,6.408,0,0,1-.685,2.441A7.306,7.306,0,0,1,3.223,15l-.173.152v1.431H18.171Z" transform="translate(-3.05 -1.382)" fill="#fff"/>
                <path id="Path_3" data-name="Path 3" d="M30.074,3.537A2.537,2.537,0,1,1,27.537,1,2.537,2.537,0,0,1,30.074,3.537Z" transform="translate(-13.863 -1)" fill="#f2a214"/>
              </g>
              <path id="Path_217" data-name="Path 217" d="M-48.489-12.079a6.17,6.17,0,0,1,3.451,1.817,5.042,5.042,0,0,1,1.344,3.607A5.246,5.246,0,0,1-45.535-2.42,6.706,6.706,0,0,1-50.006-.868a7.223,7.223,0,0,1-3.735-.96A5.281,5.281,0,0,1-56.056-4.6L-54-5.813q.815,2.551,4,2.551a4.223,4.223,0,0,0,2.788-.894,3.067,3.067,0,0,0,1.078-2.5,3.106,3.106,0,0,0-1.078-2.512,4.183,4.183,0,0,0-2.789-.907h-.631l-.973-1.5,4.262-5.76h-8.18v-2.288h11.047l-.014,2.147ZM-38.2-19.622h2.1V-1.21h-2.42V-16.992l-3.919,1.157-.6-2.1Zm17.676,16.15a6.072,6.072,0,0,1-5.234,2.6,6.072,6.072,0,0,1-5.234-2.6,11.675,11.675,0,0,1-1.868-6.944,11.675,11.675,0,0,1,1.868-6.944,6.072,6.072,0,0,1,5.234-2.6,6.072,6.072,0,0,1,5.234,2.6,11.675,11.675,0,0,1,1.868,6.944A11.675,11.675,0,0,1-20.521-3.472ZM-29.2-5.129a3.871,3.871,0,0,0,3.446,1.868A3.9,3.9,0,0,0-22.3-5.129a9.626,9.626,0,0,0,1.223-5.287,9.7,9.7,0,0,0-1.223-5.3A3.9,3.9,0,0,0-25.755-17.6,3.871,3.871,0,0,0-29.2-15.729a9.768,9.768,0,0,0-1.21,5.313A9.709,9.709,0,0,0-29.2-5.129Zm16.413-14.493h2.1V-1.21H-13.1V-16.992l-3.919,1.157-.6-2.1ZM12.043-1.21l-1.5-4.13H2.262L.759-1.21h-2.6L5.02-19.622H7.781L14.647-1.21ZM3.093-7.628H9.708L6.4-16.718ZM24.01-19.622a8.175,8.175,0,0,1,6.247,2.67,9.237,9.237,0,0,1,2.486,6.536A9.237,9.237,0,0,1,30.257-3.88,8.175,8.175,0,0,1,24.01-1.21H16.83V-19.622Zm0,16.1a5.931,5.931,0,0,0,4.6-1.973A7.049,7.049,0,0,0,30.4-10.416a7.049,7.049,0,0,0-1.789-4.919,5.931,5.931,0,0,0-4.6-1.973H19.276V-3.525ZM47.183-1.21l-1.5-4.13H37.4L35.9-1.21H33.3L40.16-19.622h2.762L49.787-1.21ZM38.234-7.628h6.614l-3.307-9.09Z" transform="translate(190.824 137.137)" fill="#fff"/>
              <path id="Path_218" data-name="Path 218" d="M-74.012-11.63a8.921,8.921,0,0,1-2.63,6.693A11.515,11.515,0,0,1-83.5-1.861V2.273h-3.147V-1.814a13.453,13.453,0,0,1-6.764-2.208A10.635,10.635,0,0,1-97.45-9.235l5.589-3.241A6.3,6.3,0,0,0-86.647-8.2v-8.126h-.047l-.094-.047q-1.644-.611-2.677-1.08a19.565,19.565,0,0,1-2.419-1.362,9,9,0,0,1-2.161-1.855,9.334,9.334,0,0,1-1.362-2.466,8.961,8.961,0,0,1-.587-3.288,8.575,8.575,0,0,1,2.7-6.623,11.061,11.061,0,0,1,6.646-2.865V-40H-83.5v4.18A10.65,10.65,0,0,1-74.482-29.2L-79.93-26a5.192,5.192,0,0,0-3.57-3.429v7.844a34.273,34.273,0,0,1,5.871,2.771A8.336,8.336,0,0,1-74.012-11.63ZM-89.559-26.379A2.709,2.709,0,0,0-88.9-24.57,7.21,7.21,0,0,0-86.647-23v-6.576a3.779,3.779,0,0,0-2.161,1.127A3,3,0,0,0-89.559-26.379ZM-83.5-8.3q3.006-.658,3.006-3.288a2.819,2.819,0,0,0-.728-1.973,6.986,6.986,0,0,0-2.278-1.5Zm27.242-13.668a11.023,11.023,0,0,1,5.425,3.452,8.884,8.884,0,0,1,2.09,5.942,9.813,9.813,0,0,1-3.405,7.938,12.513,12.513,0,0,1-8.337,2.865,13.437,13.437,0,0,1-6.881-1.761,10.127,10.127,0,0,1-4.392-5.19l5.542-3.194q1.221,3.8,5.73,3.8a5.739,5.739,0,0,0,3.875-1.2,4.091,4.091,0,0,0,1.386-3.264,4.108,4.108,0,0,0-1.386-3.241,5.666,5.666,0,0,0-3.875-1.221h-1.409l-2.489-3.758,6.482-8.455h-12.87V-35.3H-50.1v5.355Zm21.7-1.362a11.68,11.68,0,0,1,7.985,2.842,9.972,9.972,0,0,1,3.241,7.914,9.813,9.813,0,0,1-3.405,7.938,12.513,12.513,0,0,1-8.337,2.865A13.7,13.7,0,0,1-42.12-3.552a10.2,10.2,0,0,1-4.415-5.261l5.542-3.241q1.221,3.945,5.918,3.945a5.739,5.739,0,0,0,3.875-1.2,4.091,4.091,0,0,0,1.386-3.264,4.141,4.141,0,0,0-1.362-3.241,5.355,5.355,0,0,0-3.711-1.221h-9.958L-43.529-35.3h18.647v6.059H-37.517l-.423,5.918Zm12.635,20.9V-7.262L-10.7-18.817q3.758-3.945,3.758-6.576a4.146,4.146,0,0,0-1.2-3.1,4.21,4.21,0,0,0-3.077-1.174q-3.711,0-5.5,3.852l-5.448-3.194A11.485,11.485,0,0,1-17.7-34.176a11.991,11.991,0,0,1,6.388-1.785,11.234,11.234,0,0,1,7.656,2.795A9.509,9.509,0,0,1-.458-25.627q-.008,5.112-5.395,10.5L-12.3-8.671H.059v6.247Zm38,.658A11.39,11.39,0,0,1,6.423-6.44q-3.5-4.673-3.5-12.423t3.5-12.423a11.39,11.39,0,0,1,9.652-4.673,11.375,11.375,0,0,1,9.676,4.673q3.476,4.673,3.476,12.423T25.751-6.44A11.375,11.375,0,0,1,16.076-1.767ZM11.1-10.855a5.486,5.486,0,0,0,4.979,2.748,5.53,5.53,0,0,0,5-2.771q1.714-2.771,1.714-7.985,0-5.261-1.714-8.032a5.53,5.53,0,0,0-5-2.771A5.476,5.476,0,0,0,11.1-26.9q-1.691,2.771-1.691,8.032T11.1-10.855ZM38.574-2.988a3.843,3.843,0,0,1-2.818,1.174,3.843,3.843,0,0,1-2.818-1.174,3.843,3.843,0,0,1-1.174-2.818,3.843,3.843,0,0,1,1.174-2.818A3.843,3.843,0,0,1,35.756-9.8a3.843,3.843,0,0,1,2.818,1.174,3.843,3.843,0,0,1,1.174,2.818A3.843,3.843,0,0,1,38.574-2.988ZM63.656-24.547a11.676,11.676,0,0,1-1.925,6.67h0L51.491-2.424H44.07l7.321-10.709A11.686,11.686,0,0,1,43.058-16.4a10.948,10.948,0,0,1-3.216-8.149,10.917,10.917,0,0,1,3.311-8.22,11.833,11.833,0,0,1,8.572-3.194,11.946,11.946,0,0,1,8.619,3.17A10.9,10.9,0,0,1,63.656-24.547Zm-17.379,0a5.055,5.055,0,0,0,1.573,3.9,5.492,5.492,0,0,0,3.875,1.456,5.533,5.533,0,0,0,3.945-1.456,5.094,5.094,0,0,0,1.55-3.9,5.019,5.019,0,0,0-1.55-3.875,5.585,5.585,0,0,0-3.945-1.433A5.492,5.492,0,0,0,47.851-28.4,5,5,0,0,0,46.277-24.547ZM64.4-35.3H85.638v5.493L74.506-2.424H67.648L78.443-29.1H64.4Z" transform="translate(193.333 195.655)" fill="#fff"/>
              <g id="Group_4" data-name="Group 4" transform="translate(160.205 219.909)">
                <g id="Rectangle_2117" data-name="Rectangle 2117" transform="translate(-0.081 0.191)" fill="#222" stroke="#fff" stroke-width="1">
                  <rect width="56" height="24" rx="12" stroke="none"/>
                  <rect x="0.5" y="0.5" width="55" height="23" rx="11.5" fill="none"/>
                </g>
                <path id="Path_219" data-name="Path 219" d="M-12.1-.372a3.343,3.343,0,0,1-1.888-.519,2.743,2.743,0,0,1-1.1-1.42l.9-.519A1.985,1.985,0,0,0-12.08-1.4a1.989,1.989,0,0,0,1.24-.333,1.064,1.064,0,0,0,.428-.885.945.945,0,0,0-.428-.846,6.154,6.154,0,0,0-1.431-.6l-.753-.259a5.347,5.347,0,0,1-.651-.287,2.043,2.043,0,0,1-.581-.406,2.04,2.04,0,0,1-.344-.547,1.849,1.849,0,0,1-.152-.767,2.013,2.013,0,0,1,.721-1.629,2.651,2.651,0,0,1,1.759-.6,2.818,2.818,0,0,1,1.629.473A2.947,2.947,0,0,1-9.6-6.831l-.879.507a1.806,1.806,0,0,0-1.792-1.217,1.611,1.611,0,0,0-1.037.315,1.038,1.038,0,0,0-.395.856.914.914,0,0,0,.372.789,4.874,4.874,0,0,0,1.286.563l.459.162.427.151a4.019,4.019,0,0,1,.423.17q.135.068.366.192a1.491,1.491,0,0,1,.344.237q.113.113.265.277a1.087,1.087,0,0,1,.22.333,2.68,2.68,0,0,1,.118.39,2.084,2.084,0,0,1,.051.469A2.019,2.019,0,0,1-10.13-.986,3.028,3.028,0,0,1-12.1-.372Zm6.764-4.836h-1.5v3.055a.857.857,0,0,0,.163.592.672.672,0,0,0,.5.18q.338.006.834-.017v.879A2.9,2.9,0,0,1-7.222-.727a1.556,1.556,0,0,1-.6-1.426V-5.208H-8.935v-.947h1.116V-7.44l.981-.293v1.578h1.5ZM.207-6.155h.981V-.519H.207v-.969A2.391,2.391,0,0,1-1.923-.372a2.7,2.7,0,0,1-2.018-.862,2.911,2.911,0,0,1-.834-2.1,2.911,2.911,0,0,1,.834-2.1A2.7,2.7,0,0,1-1.923-6.3,2.391,2.391,0,0,1,.207-5.185ZM-1.8-1.319A1.933,1.933,0,0,0-.368-1.9,1.962,1.962,0,0,0,.207-3.337,1.962,1.962,0,0,0-.368-4.774,1.933,1.933,0,0,0-1.8-5.355a1.92,1.92,0,0,0-1.42.581,1.962,1.962,0,0,0-.575,1.437A1.962,1.962,0,0,0-3.22-1.9,1.92,1.92,0,0,0-1.8-1.319Zm9.244.8H6.227L3.657-3.187V-.519H2.676V-8.409h.981v4.736L6.091-6.155H7.354L4.66-3.427ZM8.526-2.886A1.858,1.858,0,0,0,9.22-1.713a2.156,2.156,0,0,0,1.347.417,1.764,1.764,0,0,0,1.623-.823l.834.473a2.754,2.754,0,0,1-2.48,1.274,2.951,2.951,0,0,1-2.181-.84,2.88,2.88,0,0,1-.84-2.125,2.916,2.916,0,0,1,.823-2.119A2.842,2.842,0,0,1,10.477-6.3a2.593,2.593,0,0,1,2.023.874,3.04,3.04,0,0,1,.783,2.1,2.962,2.962,0,0,1-.034.44Zm1.95-2.491a1.936,1.936,0,0,0-1.308.445,1.928,1.928,0,0,0-.643,1.189h3.765A1.879,1.879,0,0,0,11.66-4.96,1.808,1.808,0,0,0,10.477-5.377Z" transform="translate(29.076 17.052)" fill="#fff"/>
              </g>
              <g id="Group_5" data-name="Group 5" transform="translate(11.941 281.603)">
                <rect id="Rectangle_2124" data-name="Rectangle 2124" width="329" height="101" rx="6" transform="translate(0.183 0.498)" fill="#2c2d30"/>
                <path id="Rectangle_2125" data-name="Rectangle 2125" d="M8,0H321a8,8,0,0,1,8,8V36a0,0,0,0,1,0,0H0a0,0,0,0,1,0,0V8A8,8,0,0,1,8,0Z" transform="translate(0.183 0.498)" fill="#2c2d30"/>
                <path id="Path_220" data-name="Path 220" d="M-19.663-.594l-.751-2.065h-4.139l-.751,2.065h-1.3L-23.174-9.8h1.381l3.433,9.206ZM-24.138-3.8h3.307l-1.654-4.545Zm9.683,3.38a3.342,3.342,0,0,1-2.472-.993,3.36,3.36,0,0,1-.986-2.466,3.36,3.36,0,0,1,.986-2.466,3.342,3.342,0,0,1,2.472-.993,3.326,3.326,0,0,1,1.749.467,2.932,2.932,0,0,1,1.157,1.256l-.96.552a1.949,1.949,0,0,0-.769-.842,2.222,2.222,0,0,0-1.177-.316,2.229,2.229,0,0,0-1.651.671,2.279,2.279,0,0,0-.664,1.67,2.263,2.263,0,0,0,.664,1.657,2.229,2.229,0,0,0,1.651.671,2.293,2.293,0,0,0,1.184-.309,2.07,2.07,0,0,0,.8-.835l.973.566A3.2,3.2,0,0,1-12.706-.89,3.371,3.371,0,0,1-14.455-.423Zm7.089,0a3.342,3.342,0,0,1-2.472-.993,3.36,3.36,0,0,1-.986-2.466,3.36,3.36,0,0,1,.986-2.466,3.342,3.342,0,0,1,2.472-.993,3.326,3.326,0,0,1,1.749.467A2.932,2.932,0,0,1-4.46-5.618l-.96.552a1.949,1.949,0,0,0-.769-.842,2.222,2.222,0,0,0-1.177-.316,2.229,2.229,0,0,0-1.651.671,2.279,2.279,0,0,0-.664,1.67,2.263,2.263,0,0,0,.664,1.657,2.229,2.229,0,0,0,1.651.671,2.293,2.293,0,0,0,1.184-.309,2.07,2.07,0,0,0,.8-.835l.973.566A3.2,3.2,0,0,1-5.617-.89,3.371,3.371,0,0,1-7.366-.423Zm9.548-1a3.371,3.371,0,0,1-2.459,1,3.349,3.349,0,0,1-2.453-1A3.331,3.331,0,0,1-3.737-3.882,3.331,3.331,0,0,1-2.73-6.341a3.349,3.349,0,0,1,2.453-1,3.371,3.371,0,0,1,2.459,1A3.32,3.32,0,0,1,3.194-3.882,3.32,3.32,0,0,1,2.182-1.422ZM-.278-1.541a2.251,2.251,0,0,0,1.657-.671,2.267,2.267,0,0,0,.671-1.67,2.267,2.267,0,0,0-.671-1.67A2.251,2.251,0,0,0-.278-6.223a2.235,2.235,0,0,0-1.644.671,2.267,2.267,0,0,0-.671,1.67,2.267,2.267,0,0,0,.671,1.67A2.235,2.235,0,0,0-.278-1.541ZM9.086-7.17H10.23V-.594H9.086v-.947A2.338,2.338,0,0,1,6.956-.423,2.445,2.445,0,0,1,5.1-1.153a2.747,2.747,0,0,1-.7-1.979V-7.17H5.548V-3.2a1.7,1.7,0,0,0,.434,1.243,1.6,1.6,0,0,0,1.2.441A1.855,1.855,0,0,0,8.56-2.047a2.247,2.247,0,0,0,.526-1.637Zm6.155-.171a2.445,2.445,0,0,1,1.854.73,2.747,2.747,0,0,1,.7,1.979V-.594H16.648V-4.566a1.7,1.7,0,0,0-.434-1.243,1.6,1.6,0,0,0-1.2-.441,1.855,1.855,0,0,0-1.381.533,2.247,2.247,0,0,0-.526,1.637V-.594H11.966V-7.17h1.144v.947A2.338,2.338,0,0,1,15.241-7.341Zm7.72,1.276H21.212V-2.5a1,1,0,0,0,.191.69.784.784,0,0,0,.585.21q.395.007.973-.02V-.594a3.384,3.384,0,0,1-2.2-.243,1.816,1.816,0,0,1-.7-1.664V-6.065h-1.3v-1.1h1.3v-1.5l1.144-.342V-7.17h1.749Z" transform="translate(78.462 24.009)" fill="#f2a214"/>
                <path id="Path_221" data-name="Path 221" d="M-22.03-.619l-2.575-9.206h1.286l2.107,7.575,2.236-7.575h1.236L-15.5-2.249l2.1-7.576h1.218L-14.755-.619h-1.42l-2.19-7.374-2.19,7.374ZM-6.259-7.2h1.144V-.619H-6.259V-1.75a2.79,2.79,0,0,1-2.486,1.3A3.155,3.155,0,0,1-11.1-1.455a3.4,3.4,0,0,1-.973-2.453A3.4,3.4,0,0,1-11.1-6.36,3.155,3.155,0,0,1-8.744-7.366a2.79,2.79,0,0,1,2.486,1.3ZM-8.6-1.553a2.256,2.256,0,0,0,1.67-.677,2.289,2.289,0,0,0,.671-1.677,2.289,2.289,0,0,0-.671-1.677A2.256,2.256,0,0,0-8.6-6.261a2.24,2.24,0,0,0-1.657.677,2.289,2.289,0,0,0-.671,1.677,2.289,2.289,0,0,0,.671,1.677A2.24,2.24,0,0,0-8.6-1.553Zm5.221.934v-9.6h1.144v9.6Zm2.893,0v-9.6H.659v9.6Zm3.7-2.762a2.168,2.168,0,0,0,.809,1.368,2.515,2.515,0,0,0,1.572.487,2.058,2.058,0,0,0,1.894-.96l.973.552A3.213,3.213,0,0,1,5.565-.448a3.443,3.443,0,0,1-2.545-.98,3.36,3.36,0,0,1-.98-2.479A3.4,3.4,0,0,1,3-6.38a3.315,3.315,0,0,1,2.486-.986A3.025,3.025,0,0,1,7.846-6.347,3.546,3.546,0,0,1,8.76-3.894a3.456,3.456,0,0,1-.039.513ZM5.486-6.288a2.259,2.259,0,0,0-1.526.519,2.249,2.249,0,0,0-.75,1.387H7.6A2.192,2.192,0,0,0,6.867-5.8,2.109,2.109,0,0,0,5.486-6.288Zm7.97.2H11.706v3.564a1,1,0,0,0,.191.69.784.784,0,0,0,.585.21q.395.007.973-.02V-.619a3.384,3.384,0,0,1-2.2-.243,1.816,1.816,0,0,1-.7-1.664V-6.09H9.26V-7.2h1.3v-1.5l1.144-.342V-7.2h1.749Zm6.418-3.735h1.052V-.619h-1.21V-8.51l-1.96.579-.3-1.052Z" transform="translate(254.007 24.035)" fill="#777"/>
                <line id="Line_1" data-name="Line 1" x2="329.727" transform="translate(0.289 37.037)" fill="none" stroke="#777" stroke-width="1" opacity="0.25"/>
                <line id="Line_2" data-name="Line 2" x2="329.727" transform="translate(0.289 71.325)" fill="none" stroke="#777" stroke-width="1" opacity="0.25"/>
                <rect id="Rectangle_2126" data-name="Rectangle 2126" width="6" height="1" rx="0.5" transform="translate(73.183 27.498)" fill="#f2a214"/>
                <path id="Path_223" data-name="Path 223" d="M2.915-.531.1-8.422H1.223l2.29,6.58,2.275-6.58H6.927L4.1-.531Zm8.826-5.636h.981V-.531h-.981V-1.5A2.391,2.391,0,0,1,9.61-.384a2.7,2.7,0,0,1-2.018-.862,2.911,2.911,0,0,1-.834-2.1,2.911,2.911,0,0,1,.834-2.1A2.7,2.7,0,0,1,9.61-6.314,2.391,2.391,0,0,1,11.741-5.2ZM9.734-1.331a1.933,1.933,0,0,0,1.432-.581,1.962,1.962,0,0,0,.575-1.437,1.962,1.962,0,0,0-.575-1.437,1.933,1.933,0,0,0-1.432-.581,1.92,1.92,0,0,0-1.42.581,1.962,1.962,0,0,0-.575,1.437,1.962,1.962,0,0,0,.575,1.437A1.92,1.92,0,0,0,9.734-1.331Zm4.475.8V-8.76h.981V-.531Zm2.976-6.662a.643.643,0,0,1-.473-.192.63.63,0,0,1-.192-.462.649.649,0,0,1,.192-.468.634.634,0,0,1,.473-.2.621.621,0,0,1,.462.2.649.649,0,0,1,.192.468.63.63,0,0,1-.192.462A.63.63,0,0,1,17.185-7.193Zm-.5,6.662V-6.167h.981V-.531Zm7.147-7.891h.981V-.531h-.981V-1.5A2.391,2.391,0,0,1,21.706-.384a2.7,2.7,0,0,1-2.018-.862,2.911,2.911,0,0,1-.834-2.1,2.911,2.911,0,0,1,.834-2.1,2.7,2.7,0,0,1,2.018-.862A2.391,2.391,0,0,1,23.836-5.2ZM21.83-1.331a1.933,1.933,0,0,0,1.432-.581,1.962,1.962,0,0,0,.575-1.437,1.962,1.962,0,0,0-.575-1.437,1.933,1.933,0,0,0-1.432-.581,1.92,1.92,0,0,0-1.42.581,1.962,1.962,0,0,0-.575,1.437,1.962,1.962,0,0,0,.575,1.437A1.92,1.92,0,0,0,21.83-1.331Zm9.142-4.836h.981V-.531h-.981V-1.5A2.391,2.391,0,0,1,28.841-.384a2.7,2.7,0,0,1-2.018-.862,2.911,2.911,0,0,1-.834-2.1,2.911,2.911,0,0,1,.834-2.1,2.7,2.7,0,0,1,2.018-.862A2.391,2.391,0,0,1,30.972-5.2ZM28.965-1.331A1.933,1.933,0,0,0,30.4-1.912a1.962,1.962,0,0,0,.575-1.437A1.962,1.962,0,0,0,30.4-4.786a1.933,1.933,0,0,0-1.432-.581,1.92,1.92,0,0,0-1.42.581,1.962,1.962,0,0,0-.575,1.437,1.962,1.962,0,0,0,.575,1.437A1.92,1.92,0,0,0,28.965-1.331ZM36.507-5.22h-1.5v3.055a.857.857,0,0,0,.163.592.672.672,0,0,0,.5.18q.338.006.834-.017v.879a2.9,2.9,0,0,1-1.883-.209,1.556,1.556,0,0,1-.6-1.426V-5.22H32.911v-.947h1.116V-7.452l.981-.293v1.578h1.5Zm5.636,3.979a2.889,2.889,0,0,1-2.108.857,2.87,2.87,0,0,1-2.1-.857,2.856,2.856,0,0,1-.862-2.108,2.856,2.856,0,0,1,.862-2.108,2.87,2.87,0,0,1,2.1-.857,2.889,2.889,0,0,1,2.108.857,2.846,2.846,0,0,1,.868,2.108A2.846,2.846,0,0,1,42.143-1.241Zm-2.108-.1a1.93,1.93,0,0,0,1.42-.575,1.943,1.943,0,0,0,.575-1.432,1.943,1.943,0,0,0-.575-1.432,1.93,1.93,0,0,0-1.42-.575,1.916,1.916,0,0,0-1.409.575,1.943,1.943,0,0,0-.575,1.432,1.943,1.943,0,0,0,.575,1.432A1.916,1.916,0,0,0,40.035-1.343ZM45.153-5.22a1.768,1.768,0,0,1,1.759-1.048v1.026a1.777,1.777,0,0,0-1.24.383,1.621,1.621,0,0,0-.519,1.341V-.531h-.981V-6.167h.981Z" transform="translate(13.904 59.643)" fill="#fff"/>
                <path id="Path_224" data-name="Path 224" d="M4.582-.372A3.979,3.979,0,0,1,1.623-1.556,3.983,3.983,0,0,1,.456-4.464,3.983,3.983,0,0,1,1.623-7.372,3.979,3.979,0,0,1,4.582-8.556a3.94,3.94,0,0,1,1.99.519,3.744,3.744,0,0,1,1.415,1.4l-.913.53A2.54,2.54,0,0,0,6.064-7.153a2.9,2.9,0,0,0-1.482-.389,2.982,2.982,0,0,0-2.226.879,3.013,3.013,0,0,0-.862,2.2,3,3,0,0,0,.862,2.187A2.982,2.982,0,0,0,4.582-1.4a2.9,2.9,0,0,0,1.482-.389A2.559,2.559,0,0,0,7.073-2.818l.913.519A3.69,3.69,0,0,1,6.577-.9,3.938,3.938,0,0,1,4.582-.372ZM13.8-1.229a2.889,2.889,0,0,1-2.108.857,2.87,2.87,0,0,1-2.1-.857A2.856,2.856,0,0,1,8.73-3.337a2.856,2.856,0,0,1,.862-2.108,2.87,2.87,0,0,1,2.1-.857,2.889,2.889,0,0,1,2.108.857,2.846,2.846,0,0,1,.868,2.108A2.846,2.846,0,0,1,13.8-1.229Zm-2.108-.1a1.93,1.93,0,0,0,1.42-.575,1.943,1.943,0,0,0,.575-1.432,1.943,1.943,0,0,0-.575-1.432,1.93,1.93,0,0,0-1.42-.575,1.916,1.916,0,0,0-1.409.575,1.943,1.943,0,0,0-.575,1.432,1.943,1.943,0,0,0,.575,1.432A1.916,1.916,0,0,0,11.695-1.33ZM21.919-6.3a2.022,2.022,0,0,1,1.533.614,2.309,2.309,0,0,1,.586,1.663V-.519h-.981V-3.991a1.426,1.426,0,0,0-.338-1.015,1.177,1.177,0,0,0-.9-.361,1.286,1.286,0,0,0-1.009.423,1.891,1.891,0,0,0-.378,1.291V-.519h-.981V-3.991a1.474,1.474,0,0,0-.321-1.015,1.111,1.111,0,0,0-.874-.361,1.371,1.371,0,0,0-1.031.428,1.79,1.79,0,0,0-.411,1.285V-.519h-.981V-6.155h.981V-5.4a1.869,1.869,0,0,1,1.68-.9,1.749,1.749,0,0,1,1.657.958A1.937,1.937,0,0,1,21.919-6.3Zm9.571,0a2.022,2.022,0,0,1,1.533.614,2.309,2.309,0,0,1,.586,1.663V-.519h-.981V-3.991a1.426,1.426,0,0,0-.338-1.015,1.177,1.177,0,0,0-.9-.361,1.286,1.286,0,0,0-1.009.423A1.891,1.891,0,0,0,30-3.652V-.519h-.981V-3.991A1.474,1.474,0,0,0,28.7-5.005a1.111,1.111,0,0,0-.874-.361,1.371,1.371,0,0,0-1.031.428,1.79,1.79,0,0,0-.411,1.285V-.519H25.4V-6.155h.981V-5.4a1.869,1.869,0,0,1,1.68-.9,1.749,1.749,0,0,1,1.657.958A1.937,1.937,0,0,1,31.49-6.3ZM42.436-7.417H38.941v2.559h3.348v.992H38.941V-.519H37.893V-8.409h4.543Zm2.322,5.907h3.664v.992H43.709V-8.409h4.656v.992H44.758v2.424h3.325v.981H44.758Zm5.975,0H54.4v.992H49.684V-8.409H54.34v.992H50.732v2.424h3.325v.981H50.732Z" transform="translate(13.882 90.631)" fill="#fff"/>
                <path id="Path_222" data-name="Path 222" d="M-31.781-8.409a2.47,2.47,0,0,1,1.821.727,2.456,2.456,0,0,1,.727,1.809,2.461,2.461,0,0,1-.727,1.8,2.46,2.46,0,0,1-1.821.733H-33.6V-.519h-1.048V-8.409Zm0,4.092A1.438,1.438,0,0,0-30.7-4.763a1.538,1.538,0,0,0,.428-1.11A1.533,1.533,0,0,0-30.7-6.989a1.447,1.447,0,0,0-1.082-.44H-33.6v3.111Zm3.788-4.092h1.048V-.519h-1.048ZM-17.645-4.43v.473A3.411,3.411,0,0,1-18.7-1.392a3.877,3.877,0,0,1-2.807,1.02,4.021,4.021,0,0,1-2.982-1.189,3.969,3.969,0,0,1-1.178-2.9,3.969,3.969,0,0,1,1.178-2.9,3.993,3.993,0,0,1,2.959-1.189,3.959,3.959,0,0,1,2.007.524,3.741,3.741,0,0,1,1.409,1.381l-.9.53a2.541,2.541,0,0,0-1.02-1.031,2.985,2.985,0,0,0-1.5-.389,2.977,2.977,0,0,0-2.221.885,3.008,3.008,0,0,0-.868,2.193,2.979,2.979,0,0,0,.874,2.187A3.048,3.048,0,0,0-21.5-1.4a3,3,0,0,0,1.916-.581,2.366,2.366,0,0,0,.891-1.5h-2.9V-4.43Zm8.883,0v.473a3.411,3.411,0,0,1-1.06,2.565,3.877,3.877,0,0,1-2.807,1.02A4.021,4.021,0,0,1-15.61-1.561a3.969,3.969,0,0,1-1.178-2.9,3.969,3.969,0,0,1,1.178-2.9,3.993,3.993,0,0,1,2.959-1.189,3.959,3.959,0,0,1,2.007.524A3.741,3.741,0,0,1-9.235-6.651l-.9.53a2.541,2.541,0,0,0-1.02-1.031,2.985,2.985,0,0,0-1.5-.389,2.977,2.977,0,0,0-2.221.885,3.008,3.008,0,0,0-.868,2.193,2.979,2.979,0,0,0,.874,2.187,3.048,3.048,0,0,0,2.26.879A3,3,0,0,0-10.7-1.978a2.366,2.366,0,0,0,.891-1.5h-2.9V-4.43ZM-2.19-8.409l-2.8,4.7v3.19H-6.034v-3.2L-8.818-8.409h1.172l2.147,3.7,2.137-3.7Z" transform="translate(317.555 59.631)" fill="#fff"/>
                <path id="Path_225" data-name="Path 225" d="M-10.529-4.6a2.31,2.31,0,0,1,.9.789A2,2,0,0,1-9.3-2.683a2.067,2.067,0,0,1-.755,1.7,2.992,2.992,0,0,1-1.95.614,2.974,2.974,0,0,1-1.939-.614,2.067,2.067,0,0,1-.755-1.7,2,2,0,0,1,.327-1.127,2.31,2.31,0,0,1,.9-.789,1.926,1.926,0,0,1-.969-1.725,2,2,0,0,1,.716-1.651,2.643,2.643,0,0,1,1.719-.581,2.66,2.66,0,0,1,1.73.581A2,2,0,0,1-9.56-6.324,1.926,1.926,0,0,1-10.529-4.6Zm-1.477-2.953a1.561,1.561,0,0,0-1,.316,1.119,1.119,0,0,0-.4.936,1.135,1.135,0,0,0,.406.93,1.514,1.514,0,0,0,.992.333,1.514,1.514,0,0,0,.992-.333,1.135,1.135,0,0,0,.406-.93A1.127,1.127,0,0,0-11-7.237,1.556,1.556,0,0,0-12.006-7.553Zm0,6.177a1.92,1.92,0,0,0,1.212-.355,1.216,1.216,0,0,0,.457-1.02,1.2,1.2,0,0,0-.457-1.009,1.92,1.92,0,0,0-1.212-.355,1.9,1.9,0,0,0-1.2.355,1.2,1.2,0,0,0-.457,1.009,1.216,1.216,0,0,0,.457,1.02A1.9,1.9,0,0,0-12.006-1.375ZM-6.7-5.061A1.728,1.728,0,0,1-7.97-5.569a1.687,1.687,0,0,1-.507-1.24,1.683,1.683,0,0,1,.513-1.234A1.723,1.723,0,0,1-6.7-8.556a1.728,1.728,0,0,1,1.274.507,1.687,1.687,0,0,1,.507,1.24,1.7,1.7,0,0,1-.5,1.24A1.723,1.723,0,0,1-6.7-5.061Zm-.648-1.088a.858.858,0,0,0,.648.265.849.849,0,0,0,.648-.271.922.922,0,0,0,.254-.654.9.9,0,0,0-.254-.648A.858.858,0,0,0-6.7-7.722a.858.858,0,0,0-.648.265.9.9,0,0,0-.254.648A.916.916,0,0,0-7.345-6.149Zm-.6,4.515L-2.706-7.5l.552.3L-7.407-1.319Zm5.929.744a1.728,1.728,0,0,1-1.274.507A1.728,1.728,0,0,1-4.566-.891a1.687,1.687,0,0,1-.507-1.24,1.687,1.687,0,0,1,.507-1.24,1.728,1.728,0,0,1,1.274-.507,1.728,1.728,0,0,1,1.274.507,1.687,1.687,0,0,1,.507,1.24A1.687,1.687,0,0,1-2.018-.891ZM-3.94-1.482a.858.858,0,0,0,.648.265.858.858,0,0,0,.648-.265.9.9,0,0,0,.254-.648.9.9,0,0,0-.254-.648.858.858,0,0,0-.648-.265.858.858,0,0,0-.648.265.9.9,0,0,0-.254.648A.9.9,0,0,0-3.94-1.482Z" transform="translate(316.346 90.631)" fill="#fff"/>
              </g>
              <g id="Component_1_18" data-name="Component 1 – 18" transform="translate(0.124 675.1)">
                <rect id="Rectangle_2128" data-name="Rectangle 2128" width="352" height="88" fill="#292a2c"/>
                <g id="Wallet" transform="translate(22.033 15.03)">
                  <path id="bxs-wallet" d="M18.539,7.953V6.227A1.728,1.728,0,0,0,16.812,4.5H5.59A2.593,2.593,0,0,0,3,7.09V17.449a2.517,2.517,0,0,0,2.59,2.59H18.539a1.728,1.728,0,0,0,1.727-1.727V9.68A1.728,1.728,0,0,0,18.539,7.953Zm-1.727,7.769H15.086V12.269h1.727ZM5.59,7.953a.864.864,0,0,1,0-1.727H16.812V7.953Z" transform="translate(2.031 -4.5)" fill="#777"/>
                  <path id="Path_226" data-name="Path 226" d="M-12.706-.442l-1.839-6.576h.919l1.5,5.411,1.6-5.411h.883l1.6,5.412,1.5-5.412h.87L-7.509-.442H-8.523l-1.564-5.267L-11.652-.442Zm11.265-4.7h.817v4.7H-1.44V-1.25a1.993,1.993,0,0,1-1.775.93A2.254,2.254,0,0,1-4.9-1.039a2.426,2.426,0,0,1-.7-1.752,2.426,2.426,0,0,1,.7-1.752,2.254,2.254,0,0,1,1.682-.719,1.993,1.993,0,0,1,1.775.93Zm-1.672,4.03A1.611,1.611,0,0,0-1.92-1.593a1.635,1.635,0,0,0,.479-1.2,1.635,1.635,0,0,0-.479-1.2,1.611,1.611,0,0,0-1.193-.484A1.6,1.6,0,0,0-4.3-3.989a1.635,1.635,0,0,0-.479,1.2,1.635,1.635,0,0,0,.479,1.2A1.6,1.6,0,0,0-3.113-1.109ZM.617-.442V-7.3h.817V-.442Zm2.067,0V-7.3H3.5V-.442Zm2.64-1.973a1.549,1.549,0,0,0,.578.977,1.8,1.8,0,0,0,1.123.348,1.47,1.47,0,0,0,1.353-.686l.7.395A2.3,2.3,0,0,1,7-.32a2.459,2.459,0,0,1-1.818-.7,2.4,2.4,0,0,1-.7-1.771,2.43,2.43,0,0,1,.686-1.766,2.368,2.368,0,0,1,1.775-.7,2.161,2.161,0,0,1,1.686.728,2.533,2.533,0,0,1,.653,1.752,2.469,2.469,0,0,1-.028.366ZM6.948-4.491a1.613,1.613,0,0,0-1.09.371,1.606,1.606,0,0,0-.535.991H8.461a1.565,1.565,0,0,0-.526-1.015A1.506,1.506,0,0,0,6.948-4.491Zm5.693.141H11.392V-1.8a.715.715,0,0,0,.136.493.56.56,0,0,0,.418.15q.282,0,.7-.014v.733a2.417,2.417,0,0,1-1.569-.174,1.3,1.3,0,0,1-.5-1.188V-4.35h-.93v-.789h.93V-6.21l.817-.244v1.315h1.249Z" transform="translate(14.545 35.2)" fill="#777"/>
                </g>
                <g id="Staking-2" data-name="Staking" transform="translate(90.205 15.03)">
                  <path id="layersalt" d="M14.962,5.742,9.22,9.341a2.752,2.752,0,0,1-1.443.365,2.752,2.752,0,0,1-1.443-.365L.592,5.742A1.047,1.047,0,0,1,0,4.853a1.079,1.079,0,0,1,.592-.9L6.334.365A2.752,2.752,0,0,1,7.777,0,2.752,2.752,0,0,1,9.22.365l5.742,3.585a1.08,1.08,0,0,1,.592.9A1.046,1.046,0,0,1,14.962,5.742ZM.592,9.782,2.278,8.734l4.056,2.552a2.752,2.752,0,0,0,1.443.365,2.752,2.752,0,0,0,1.443-.365l4.056-2.552,1.686,1.048a1.08,1.08,0,0,1,.592.9,1.046,1.046,0,0,1-.592.888l-5.742,3.6a2.752,2.752,0,0,1-1.443.365,2.752,2.752,0,0,1-1.443-.365l-5.742-3.6A1.047,1.047,0,0,1,0,10.686,1.079,1.079,0,0,1,.592,9.782Z" transform="translate(8.169 0)" fill="#f2a214"/>
                  <path id="Path_227" data-name="Path 227" d="M-14.486-.31a2.786,2.786,0,0,1-1.573-.432,2.286,2.286,0,0,1-.916-1.184l.752-.432a1.654,1.654,0,0,0,1.757,1.193,1.658,1.658,0,0,0,1.033-.277.887.887,0,0,0,.357-.737.787.787,0,0,0-.357-.7,5.129,5.129,0,0,0-1.193-.5l-.627-.216a4.456,4.456,0,0,1-.542-.239,1.7,1.7,0,0,1-.484-.338,1.7,1.7,0,0,1-.287-.456,1.541,1.541,0,0,1-.127-.639,1.677,1.677,0,0,1,.6-1.357,2.209,2.209,0,0,1,1.465-.5,2.348,2.348,0,0,1,1.357.395A2.456,2.456,0,0,1-12.4-5.693l-.733.423a1.5,1.5,0,0,0-1.494-1.015,1.343,1.343,0,0,0-.864.263.865.865,0,0,0-.329.713.761.761,0,0,0,.31.657,4.061,4.061,0,0,0,1.071.469l.382.135.355.126a3.35,3.35,0,0,1,.353.141q.113.056.305.16a1.242,1.242,0,0,1,.286.2q.094.094.221.231a.906.906,0,0,1,.183.278,2.234,2.234,0,0,1,.1.325,1.736,1.736,0,0,1,.042.391,1.682,1.682,0,0,1-.629,1.376A2.523,2.523,0,0,1-14.486-.31Zm5.636-4.03H-10.1v2.546a.715.715,0,0,0,.136.493.56.56,0,0,0,.418.15q.282,0,.7-.014v.733a2.417,2.417,0,0,1-1.569-.174,1.3,1.3,0,0,1-.5-1.188V-4.34h-.93v-.789h.93V-6.2l.817-.244v1.315h1.249Zm4.622-.789h.817v4.7h-.817V-1.24A1.993,1.993,0,0,1-6-.31a2.254,2.254,0,0,1-1.682-.719,2.426,2.426,0,0,1-.7-1.752,2.426,2.426,0,0,1,.7-1.752A2.254,2.254,0,0,1-6-5.251a1.993,1.993,0,0,1,1.775.93ZM-5.9-1.1a1.611,1.611,0,0,0,1.193-.484,1.635,1.635,0,0,0,.479-1.2,1.635,1.635,0,0,0-.479-1.2A1.611,1.611,0,0,0-5.9-4.462a1.6,1.6,0,0,0-1.184.484,1.635,1.635,0,0,0-.479,1.2,1.635,1.635,0,0,0,.479,1.2A1.6,1.6,0,0,0-5.9-1.1Zm7.7.667H.789L-1.353-2.656V-.432H-2.17V-7.008h.817v3.947L.676-5.129H1.728L-.517-2.856ZM2.978-5.984a.536.536,0,0,1-.395-.16.525.525,0,0,1-.16-.385.541.541,0,0,1,.16-.39.528.528,0,0,1,.395-.164.517.517,0,0,1,.385.164.541.541,0,0,1,.16.39.525.525,0,0,1-.16.385A.525.525,0,0,1,2.978-5.984ZM2.564-.432v-4.7h.817v4.7ZM6.97-5.251a1.746,1.746,0,0,1,1.325.521,1.962,1.962,0,0,1,.5,1.414V-.432H7.975V-3.269a1.211,1.211,0,0,0-.31-.888,1.145,1.145,0,0,0-.855-.315,1.325,1.325,0,0,0-.986.38,1.605,1.605,0,0,0-.376,1.17V-.432H4.631v-4.7h.817v.676A1.67,1.67,0,0,1,6.97-5.251Zm6.858.122h.808v4.5a1.979,1.979,0,0,1-.7,1.62,2.582,2.582,0,0,1-1.691.578,2.934,2.934,0,0,1-1.362-.3,1.972,1.972,0,0,1-.864-.85l.714-.4a1.534,1.534,0,0,0,1.531.789A1.633,1.633,0,0,0,13.41.423a1.36,1.36,0,0,0,.418-1.052V-1.3a1.993,1.993,0,0,1-1.766.939,2.282,2.282,0,0,1-1.7-.714,2.4,2.4,0,0,1-.7-1.738,2.382,2.382,0,0,1,.7-1.733,2.289,2.289,0,0,1,1.7-.709,1.984,1.984,0,0,1,1.766.93ZM10.963-1.616a1.619,1.619,0,0,0,1.193.479,1.619,1.619,0,0,0,1.193-.479,1.619,1.619,0,0,0,.479-1.193,1.608,1.608,0,0,0-.479-1.184,1.619,1.619,0,0,0-1.193-.479,1.619,1.619,0,0,0-1.193.479,1.608,1.608,0,0,0-.479,1.184A1.619,1.619,0,0,0,10.963-1.616Z" transform="translate(16.975 35.19)" fill="#f2a214"/>
                </g>
                <g id="Browser" transform="translate(237.802 15.03)">
                  <g id="network-globe-solid" transform="translate(1.743 0)" opacity="0">
                    <path id="Path_10" data-name="Path 10" d="M14.511,9.465a1.249,1.249,0,0,1-.261.982,8.879,8.879,0,0,0,2.736,2.9c.189.128.383.239.555.35a1.265,1.265,0,0,1,1.432-.316A9.379,9.379,0,0,0,20.7,9.5a9.434,9.434,0,0,0-6.188-.033Z" transform="translate(-8.423 -5.097)" fill="#777"/>
                    <path id="Path_11" data-name="Path 11" d="M11.519,2A7.769,7.769,0,0,0,3.75,9.769a4.666,4.666,0,0,0,.039.738A7.769,7.769,0,1,0,11.519,2Zm5.744,10.594a9.662,9.662,0,0,1-2.4-.311,1.271,1.271,0,0,1-1.665.344A10.228,10.228,0,0,1,9.316,14.57a1.3,1.3,0,0,1-.871.993l-.161.033A6.621,6.621,0,0,1,6.4,14.042h.366a1.293,1.293,0,0,1,2.425-.322,9.4,9.4,0,0,0,3.452-1.731,1.287,1.287,0,0,1-.1-.649c-.233-.133-.466-.272-.694-.422A9.728,9.728,0,0,1,8.883,7.81a1.282,1.282,0,0,1-1.265-.35,15.156,15.156,0,0,0-2.775,2.63V9.775a6.659,6.659,0,0,1,.078-.96A10.405,10.405,0,0,1,7.252,6.706a1.265,1.265,0,0,1,.61-1.249c-.067-.239-.133-.477-.183-.721a1.007,1.007,0,0,0-.061-.355,6.66,6.66,0,0,1,.76-.483c.055.327.078.5.117.671s.111.472.178.7h.139a1.293,1.293,0,0,1,.627.35,10.272,10.272,0,0,1,6.72-.039V5.03a6.659,6.659,0,0,1,1.454,2.137q-.405-.239-.821-.433a10.211,10.211,0,0,1-1.881,4.09,1.293,1.293,0,0,1,.183.66,12.209,12.209,0,0,0,2.775.25,6.592,6.592,0,0,1-.339.849Z" transform="translate(-3.75 -2)" fill="#777"/>
                  </g>
                  <path id="Path_229" data-name="Path 229" d="M-5.769-7H-4.9V-.424h-.7L-8.981-5.337V-.424h-.874V-7h.676l3.411,4.938ZM.3-6.173H-2.612v2.132H.178v.827h-2.79v2.79h-.874V-7H.3ZM5.57-7v.827H3.625V-.424H2.761V-6.173H.826V-7Zm.817,3.133a.482.482,0,0,0,.277.427,2.991,2.991,0,0,0,.659.273l.77.226a1.35,1.35,0,0,1,.656.426,1.189,1.189,0,0,1,.268.8A1.234,1.234,0,0,1,8.524-.687,1.992,1.992,0,0,1,7.261-.3,2.2,2.2,0,0,1,6.087-.6a1.681,1.681,0,0,1-.7-.8l.7-.4a.991.991,0,0,0,.423.535,1.353,1.353,0,0,0,.742.2,1.3,1.3,0,0,0,.667-.155.521.521,0,0,0,.263-.483.494.494,0,0,0-.273-.436,2.869,2.869,0,0,0-.656-.279l-.77-.231a1.429,1.429,0,0,1-.66-.417,1.1,1.1,0,0,1-.272-.77,1.25,1.25,0,0,1,.474-1.005,1.8,1.8,0,0,1,1.188-.395,2,2,0,0,1,1.019.258,1.654,1.654,0,0,1,.672.719l-.686.385a.984.984,0,0,0-1.005-.6,1.053,1.053,0,0,0-.592.161A.514.514,0,0,0,6.387-3.867Z" transform="translate(9.855 35.182)" fill="#777"/>
                  <path id="bxs-dashboard" d="M5.363,13.133h5.18a.863.863,0,0,0,.863-.863V5.363a.863.863,0,0,0-.863-.863H5.363a.863.863,0,0,0-.863.863v6.906A.863.863,0,0,0,5.363,13.133ZM4.5,19.176a.863.863,0,0,0,.863.863h5.18a.863.863,0,0,0,.863-.863V15.722a.863.863,0,0,0-.863-.863H5.363a.863.863,0,0,0-.863.863Zm8.633,0a.863.863,0,0,0,.863.863h5.18a.863.863,0,0,0,.863-.863V13.133a.863.863,0,0,0-.863-.863H14a.863.863,0,0,0-.863.863ZM14,10.543h5.18a.863.863,0,0,0,.863-.863V5.363a.863.863,0,0,0-.863-.863H14a.863.863,0,0,0-.863.863V9.68A.863.863,0,0,0,14,10.543Z" transform="translate(-3.012 -4.5)" fill="#777"/>
                </g>
                <g id="Settings" transform="translate(300.211 15.03)">
                  <path id="ios-settings" d="M18.753,12.268A2,2,0,0,1,20.035,10.4a7.943,7.943,0,0,0-.959-2.31,2.024,2.024,0,0,1-.813.174,1.994,1.994,0,0,1-1.825-2.807A7.891,7.891,0,0,0,14.133,4.5a2,2,0,0,1-3.73,0,7.943,7.943,0,0,0-2.31.959A1.994,1.994,0,0,1,6.268,8.266a1.958,1.958,0,0,1-.813-.174A8.1,8.1,0,0,0,4.5,10.407a2,2,0,0,1,0,3.73,7.943,7.943,0,0,0,.959,2.31A2,2,0,0,1,8.1,19.08a7.96,7.96,0,0,0,2.31.959,1.993,1.993,0,0,1,3.722,0,7.943,7.943,0,0,0,2.31-.959,2,2,0,0,1,2.634-2.634,7.96,7.96,0,0,0,.959-2.31,2.008,2.008,0,0,1-1.279-1.869ZM12.3,15.5a3.237,3.237,0,1,1,3.237-3.237A3.236,3.236,0,0,1,12.3,15.5Z" transform="translate(5.036 -4.5)" fill="#777"/>
                  <path id="Path_230" data-name="Path 230" d="M-15.931-.31A2.786,2.786,0,0,1-17.5-.742a2.286,2.286,0,0,1-.916-1.184l.752-.432a1.654,1.654,0,0,0,1.757,1.193,1.658,1.658,0,0,0,1.033-.277.887.887,0,0,0,.357-.737.787.787,0,0,0-.357-.7,5.128,5.128,0,0,0-1.193-.5L-16.7-3.6a4.456,4.456,0,0,1-.542-.239,1.7,1.7,0,0,1-.484-.338,1.7,1.7,0,0,1-.287-.456,1.541,1.541,0,0,1-.127-.639,1.677,1.677,0,0,1,.6-1.357,2.209,2.209,0,0,1,1.465-.5,2.348,2.348,0,0,1,1.357.395,2.456,2.456,0,0,1,.869,1.043l-.733.423a1.5,1.5,0,0,0-1.494-1.015,1.343,1.343,0,0,0-.864.263.865.865,0,0,0-.329.713.761.761,0,0,0,.31.657,4.061,4.061,0,0,0,1.071.469l.382.135.355.126a3.35,3.35,0,0,1,.353.141q.113.056.305.16a1.242,1.242,0,0,1,.286.2q.094.094.221.231a.906.906,0,0,1,.183.278,2.234,2.234,0,0,1,.1.325,1.736,1.736,0,0,1,.042.391,1.682,1.682,0,0,1-.629,1.376A2.523,2.523,0,0,1-15.931-.31ZM-12.023-2.4a1.549,1.549,0,0,0,.578.977,1.8,1.8,0,0,0,1.123.348A1.47,1.47,0,0,0-8.97-1.766l.7.395A2.3,2.3,0,0,1-10.341-.31a2.459,2.459,0,0,1-1.818-.7,2.4,2.4,0,0,1-.7-1.771,2.43,2.43,0,0,1,.686-1.766,2.368,2.368,0,0,1,1.775-.7,2.161,2.161,0,0,1,1.686.728,2.533,2.533,0,0,1,.653,1.752,2.469,2.469,0,0,1-.028.366ZM-10.4-4.481a1.613,1.613,0,0,0-1.09.371,1.606,1.606,0,0,0-.535.991h3.138a1.565,1.565,0,0,0-.526-1.015A1.506,1.506,0,0,0-10.4-4.481ZM-4.7-4.34H-5.954v2.546a.715.715,0,0,0,.136.493.56.56,0,0,0,.418.15q.282,0,.7-.014v.733A2.417,2.417,0,0,1-6.274-.606a1.3,1.3,0,0,1-.5-1.188V-4.34H-7.7v-.789h.93V-6.2l.817-.244v1.315H-4.7Zm3.278,0H-2.676v2.546A.715.715,0,0,0-2.54-1.3a.56.56,0,0,0,.418.15q.282,0,.7-.014v.733A2.417,2.417,0,0,1-3-.606a1.3,1.3,0,0,1-.5-1.188V-4.34h-.93v-.789h.93V-6.2l.817-.244v1.315h1.249ZM-.045-5.984a.536.536,0,0,1-.395-.16A.525.525,0,0,1-.6-6.529a.541.541,0,0,1,.16-.39.528.528,0,0,1,.395-.164.517.517,0,0,1,.385.164.541.541,0,0,1,.16.39.525.525,0,0,1-.16.385A.525.525,0,0,1-.045-5.984ZM-.459-.432v-4.7H.358v4.7ZM3.947-5.251a1.746,1.746,0,0,1,1.325.521,1.962,1.962,0,0,1,.5,1.414V-.432H4.952V-3.269a1.211,1.211,0,0,0-.31-.888,1.145,1.145,0,0,0-.855-.315,1.325,1.325,0,0,0-.986.38,1.605,1.605,0,0,0-.376,1.17V-.432H1.608v-4.7h.817v.676A1.67,1.67,0,0,1,3.947-5.251Zm6.858.122h.808v4.5a1.979,1.979,0,0,1-.7,1.62,2.582,2.582,0,0,1-1.691.578,2.934,2.934,0,0,1-1.362-.3,1.972,1.972,0,0,1-.864-.85L7.7.019A1.534,1.534,0,0,0,9.236.808,1.633,1.633,0,0,0,10.387.423,1.36,1.36,0,0,0,10.8-.629V-1.3a1.993,1.993,0,0,1-1.766.939,2.282,2.282,0,0,1-1.7-.714,2.4,2.4,0,0,1-.7-1.738,2.382,2.382,0,0,1,.7-1.733,2.289,2.289,0,0,1,1.7-.709,1.984,1.984,0,0,1,1.766.93ZM7.939-1.616a1.619,1.619,0,0,0,1.193.479,1.619,1.619,0,0,0,1.193-.479A1.619,1.619,0,0,0,10.8-2.809a1.608,1.608,0,0,0-.479-1.184,1.619,1.619,0,0,0-1.193-.479,1.619,1.619,0,0,0-1.193.479A1.608,1.608,0,0,0,7.46-2.809,1.619,1.619,0,0,0,7.939-1.616Zm5.608-2.259a.482.482,0,0,0,.277.427,2.991,2.991,0,0,0,.659.273l.77.226a1.35,1.35,0,0,1,.656.426,1.189,1.189,0,0,1,.268.8A1.234,1.234,0,0,1,15.685-.7a1.992,1.992,0,0,1-1.263.385,2.2,2.2,0,0,1-1.174-.3,1.681,1.681,0,0,1-.7-.8l.7-.4a.991.991,0,0,0,.423.535,1.353,1.353,0,0,0,.742.2,1.3,1.3,0,0,0,.667-.155.521.521,0,0,0,.263-.483.494.494,0,0,0-.273-.436,2.87,2.87,0,0,0-.656-.279l-.77-.231a1.429,1.429,0,0,1-.66-.417,1.1,1.1,0,0,1-.272-.77A1.25,1.25,0,0,1,13.2-4.857a1.8,1.8,0,0,1,1.188-.395,2,2,0,0,1,1.019.258,1.654,1.654,0,0,1,.672.719l-.686.385a.984.984,0,0,0-1.005-.6,1.053,1.053,0,0,0-.592.161A.514.514,0,0,0,13.548-3.875Z" transform="translate(18.42 35.19)" fill="#777"/>
                </g>
                <g id="NFTs" transform="translate(161.416 12.212)">
                  <path id="Path_228" data-name="Path 228" d="M-15.3-1.269h3.053v.827H-16.17V-7.018h3.88v.827H-15.3v2.02h2.771v.817H-15.3Zm8.1.827h-.958l-1.32-1.774L-10.8-.442h-.958l1.8-2.418-1.7-2.279h.968l1.21,1.631L-8.26-5.139H-7.3L-9-2.864Zm3.354-4.819a2.254,2.254,0,0,1,1.682.719,2.426,2.426,0,0,1,.7,1.752,2.426,2.426,0,0,1-.7,1.752A2.254,2.254,0,0,1-3.845-.32a1.993,1.993,0,0,1-1.775-.93V1.436h-.817V-5.139h.817v.808A1.993,1.993,0,0,1-3.845-5.262Zm-.1,4.152a1.6,1.6,0,0,0,1.184-.484,1.635,1.635,0,0,0,.479-1.2,1.635,1.635,0,0,0-.479-1.2,1.6,1.6,0,0,0-1.184-.484,1.611,1.611,0,0,0-1.193.484,1.635,1.635,0,0,0-.479,1.2,1.635,1.635,0,0,0,.479,1.2A1.611,1.611,0,0,0-3.948-1.109Zm3.457.667V-7.3H.326V-.442Zm6.031-.592A2.408,2.408,0,0,1,3.783-.32a2.392,2.392,0,0,1-1.752-.714,2.38,2.38,0,0,1-.719-1.757,2.38,2.38,0,0,1,.719-1.757,2.392,2.392,0,0,1,1.752-.714,2.408,2.408,0,0,1,1.757.714,2.372,2.372,0,0,1,.723,1.757A2.372,2.372,0,0,1,5.539-1.034ZM3.783-1.119A1.608,1.608,0,0,0,4.966-1.6a1.619,1.619,0,0,0,.479-1.193,1.619,1.619,0,0,0-.479-1.193,1.608,1.608,0,0,0-1.184-.479,1.6,1.6,0,0,0-1.174.479,1.619,1.619,0,0,0-.479,1.193A1.619,1.619,0,0,0,2.608-1.6,1.6,1.6,0,0,0,3.783-1.119ZM8.048-4.35a1.473,1.473,0,0,1,1.465-.874v.855A1.481,1.481,0,0,0,8.48-4.05a1.351,1.351,0,0,0-.432,1.118V-.442H7.23v-4.7h.817Zm2.583,1.935a1.549,1.549,0,0,0,.578.977,1.8,1.8,0,0,0,1.123.348,1.47,1.47,0,0,0,1.353-.686l.7.395A2.3,2.3,0,0,1,12.312-.32a2.459,2.459,0,0,1-1.818-.7,2.4,2.4,0,0,1-.7-1.771,2.43,2.43,0,0,1,.686-1.766,2.368,2.368,0,0,1,1.775-.7,2.161,2.161,0,0,1,1.686.728A2.533,2.533,0,0,1,14.6-2.782a2.469,2.469,0,0,1-.028.366Zm1.625-2.076a1.613,1.613,0,0,0-1.09.371,1.606,1.606,0,0,0-.535.991h3.138a1.565,1.565,0,0,0-.526-1.015A1.506,1.506,0,0,0,12.256-4.491Z" transform="translate(16.17 38.018)" fill="#777"/>
                  <g id="network-globe-outline-badged" transform="translate(5.031 0)">
                    <path id="Path_187" data-name="Path 187" d="M23.049,10.08a5.116,5.116,0,0,1-1.043.107h-.355a8.709,8.709,0,0,1-.174,4.281A10.855,10.855,0,0,1,18,14.175a1.7,1.7,0,0,0-.229-.849A13.378,13.378,0,0,0,19.7,9.63a5.191,5.191,0,0,1-.911-.585,12.242,12.242,0,0,1-1.815,3.567,1.558,1.558,0,0,0-1.794.407,6.208,6.208,0,0,1-.7-.449,11.3,11.3,0,0,1-3.429-3.731,1.636,1.636,0,0,0,.327-1.263,11.539,11.539,0,0,1,5.932-.442A5.393,5.393,0,0,1,16.929,6a12.6,12.6,0,0,0-6.05.642,1.608,1.608,0,0,0-.793-.435H9.912c-.083-.3-.16-.6-.223-.906s-.1-.578-.132-.87a8.1,8.1,0,0,1,7.281-.307A5.425,5.425,0,0,1,17.207,2.7a9.527,9.527,0,0,0-9.15.939A10.062,10.062,0,0,0,3.75,11.971a6.153,6.153,0,0,0,.049.949,9.967,9.967,0,0,0,5.935,8.264,9.54,9.54,0,0,0,9.9-1.468,10.13,10.13,0,0,0,3.412-9.65ZM8.625,5.029a2.591,2.591,0,0,0,.07.457c.063.314.146.621.229.928a1.641,1.641,0,0,0-.765,1.605A12.858,12.858,0,0,0,5.245,10.7a8.6,8.6,0,0,1,3.38-5.672Zm0,11.209A1.656,1.656,0,0,0,7.54,17.493H7.1a8.64,8.64,0,0,1-1.919-4.866l.076-.136A11.917,11.917,0,0,1,8.6,9a1.58,1.58,0,0,0,1.586.449A12.379,12.379,0,0,0,13.9,13.483c.285.193.577.371.869.542a1.694,1.694,0,0,0,.125.8,11.669,11.669,0,0,1-4.312,2.219,1.61,1.61,0,0,0-1.961-.792Zm4.868,4.281a8.127,8.127,0,0,1-4.041-1.077l.195-.043a1.656,1.656,0,0,0,1.092-1.277,12.7,12.7,0,0,0,4.868-2.5,1.567,1.567,0,0,0,2.086-.442,11.82,11.82,0,0,0,3,.4h.369a8.334,8.334,0,0,1-7.58,4.951Z" transform="translate(-3.75 -1.057)" fill="#777"/>
                    <path id="Path_188" data-name="Path 188" d="M34.394,5.7A4.7,4.7,0,1,1,29.7,1,4.7,4.7,0,0,1,34.394,5.7Z" transform="translate(-11.87 -1)" fill="#777"/>
                  </g>
                </g>
                <rect id="Rectangle_2129" data-name="Rectangle 2129" width="127" height="6" rx="3" transform="translate(113 70)" fill="#777"/>
              </g>
            </g>
          </g>
        </g>
      </g>
    </g>
  </g>
</svg>
