<svg xmlns="http://www.w3.org/2000/svg" xmlns:xlink="http://www.w3.org/1999/xlink" width="684" height="1116.999" viewBox="0 0 684 1116.999">
  <defs>
    <filter id="body" x="0" y="0" width="684" height="1116.999" filterUnits="userSpaceOnUse">
      <feOffset dy="25" input="SourceAlpha"/>
      <feGaussianBlur stdDeviation="42.5" result="blur"/>
      <feFlood flood-opacity="0.302"/>
      <feComposite operator="in" in2="blur"/>
      <feComposite in="SourceGraphic"/>
    </filter>
    <clipPath id="clip-path">
      <path id="screen" d="M335,884H40A39.966,39.966,0,0,1,0,844V112A39.967,39.967,0,0,1,40,72H78a5.007,5.007,0,0,1,5,4.91V80a21.982,21.982,0,0,0,22,22H272a19.984,19.984,0,0,0,20-20V77a5.006,5.006,0,0,1,4.995-5H335a39.967,39.967,0,0,1,40,40V844a39.966,39.966,0,0,1-40,40Z" transform="translate(270 173)" fill="#424256"/>
    </clipPath>
  </defs>
  <g id="Staking_SVG" data-name="Staking SVG" transform="translate(-115.5 -116.5)">
    <g id="phone">
      <g transform="matrix(1, 0, 0, 1, 115.5, 116.5)" filter="url(#body)">
        <path id="body-2" data-name="body" d="M64-123A60,60,0,0,1,4-183V-667a4,4,0,0,1-4-4v-54a4,4,0,0,1,4-4v-16a4,4,0,0,1-4-4v-54a4,4,0,0,1,4-4v-30a4,4,0,0,1-4-4v-24a4,4,0,0,1,4-4v-56a60,60,0,0,1,60-60H365a60,60,0,0,1,60,60v139a4,4,0,0,1,4,4v90a4,4,0,0,1-4,4v505a60,60,0,0,1-60,60Z" transform="translate(127.5 1087.5)" fill="#3a3c3d"/>
      </g>
      <path id="camera" d="M114-960a6,6,0,0,1,6-6,6,6,0,0,1,6,6,6,6,0,0,1-6,6A6,6,0,0,1,114-960Zm-64,3a3,3,0,0,1-3-3,3,3,0,0,1,3-3H97a3,3,0,0,1,3,3,3,3,0,0,1-3,3Z" transform="translate(384 1213)" fill="#424256"/>
    </g>
    <g id="YOUR_DESIGN" data-name="YOUR DESIGN" clip-path="url(#clip-path)">
      <g id="Staking" transform="translate(270 244)">
        <rect id="Rectangle_2188" data-name="Rectangle 2188" width="375" height="813" fill="#222"/>
        <g id="Group_212" data-name="Group 212">
          <rect id="Rectangle_2127" data-name="Rectangle 2127" width="375" height="95" fill="#2c2d30"/>
          <g id="Status_Bar" data-name="Status Bar">
            <rect id="Frame" width="375" height="44" fill="#fff" opacity="0.001"/>
            <g id="Status_Bar-2" data-name="Status Bar" transform="translate(21 13)">
              <g id="Battery" transform="translate(315 3)">
                <g id="Border" transform="translate(0.333 0.333)" fill="#fff" stroke="#fff" stroke-miterlimit="10" stroke-width="1" opacity="0.35">
                  <rect width="22" height="11.333" rx="2.667" stroke="none"/>
                  <rect x="0.5" y="0.5" width="21" height="10.333" rx="2.167" fill="none"/>
                </g>
                <path id="Cap" d="M0,0V4A2.17,2.17,0,0,0,1.328,2,2.17,2.17,0,0,0,0,0" transform="translate(23.333 4)" fill="#fff" opacity="0.4"/>
                <rect id="Capacity" width="18" height="7.333" rx="1.333" transform="translate(2.333 2.333)" fill="#fff"/>
              </g>
              <path id="Wifi" d="M7.667,11a.314.314,0,0,1-.222-.093L5.439,8.885a.31.31,0,0,1-.094-.231.316.316,0,0,1,.1-.227,3.437,3.437,0,0,1,4.437,0,.315.315,0,0,1,.009.458L7.889,10.907A.314.314,0,0,1,7.667,11ZM11.19,7.451a.313.313,0,0,1-.215-.086,4.928,4.928,0,0,0-6.612,0,.313.313,0,0,1-.215.086.308.308,0,0,1-.22-.091L2.768,6.189a.322.322,0,0,1,0-.46,7.192,7.192,0,0,1,9.791,0,.323.323,0,0,1,.1.23.319.319,0,0,1-.095.23L11.409,7.36A.309.309,0,0,1,11.19,7.451Zm2.669-2.693a.3.3,0,0,1-.215-.088,8.68,8.68,0,0,0-11.955,0,.307.307,0,0,1-.435,0L.094,3.5a.323.323,0,0,1,0-.457,10.948,10.948,0,0,1,15.141,0,.323.323,0,0,1,0,.457l-1.161,1.17A.306.306,0,0,1,13.859,4.758Z" transform="translate(295 3.331)" fill="#fff"/>
              <path id="Cellular_Connection" data-name="Cellular Connection" d="M16,10.667H15a1,1,0,0,1-1-1V1a1,1,0,0,1,1-1h1a1,1,0,0,1,1,1V9.667A1,1,0,0,1,16,10.667Zm-4.667,0h-1a1,1,0,0,1-1-1V3.334a1,1,0,0,1,1-1h1a1,1,0,0,1,1,1V9.667A1,1,0,0,1,11.334,10.667Zm-4.667,0h-1a1,1,0,0,1-1-1v-4a1,1,0,0,1,1-1h1a1,1,0,0,1,1,1v4A1,1,0,0,1,6.666,10.667ZM2,10.667H1a1,1,0,0,1-1-1v-2a1,1,0,0,1,1-1H2a1,1,0,0,1,1,1v2A1,1,0,0,1,2,10.667Z" transform="translate(273 3.667)" fill="#fff"/>
              <g id="Time_Style" data-name="Time Style">
                <path id="Time" d="M21.785,10.177a9.5,9.5,0,0,1-.341,2.71,5.361,5.361,0,0,1-.937,1.868,3.688,3.688,0,0,1-1.4,1.08,4.287,4.287,0,0,1-1.725.348,5.048,5.048,0,0,1-.6-.037q-.3-.037-.579-.1t-.5-.128a3.345,3.345,0,0,1-.37-.135V14.257a3.031,3.031,0,0,0,.381.194,4.026,4.026,0,0,0,.494.176,4.876,4.876,0,0,0,.557.125,3.45,3.45,0,0,0,.56.048,2.6,2.6,0,0,0,1.132-.242,2.33,2.33,0,0,0,.868-.718,3.473,3.473,0,0,0,.553-1.183,6.208,6.208,0,0,0,.194-1.637h-.029a1.942,1.942,0,0,1-.348.443,2.428,2.428,0,0,1-.494.366,2.761,2.761,0,0,1-.619.253,2.7,2.7,0,0,1-.729.1,3.227,3.227,0,0,1-1.227-.231,2.891,2.891,0,0,1-.985-.656,3.026,3.026,0,0,1-.656-1.033A3.688,3.688,0,0,1,14.746,8.9a3.887,3.887,0,0,1,.271-1.483,3.248,3.248,0,0,1,1.868-1.846,3.8,3.8,0,0,1,1.4-.253,3.421,3.421,0,0,1,1.344.267,2.9,2.9,0,0,1,1.113.85A4.333,4.333,0,0,1,21.5,7.943,7.714,7.714,0,0,1,21.785,10.177ZM20.012,9.057a3.2,3.2,0,0,0-.135-.959,2.3,2.3,0,0,0-.377-.74,1.7,1.7,0,0,0-.575-.476,1.592,1.592,0,0,0-.729-.168,1.62,1.62,0,0,0-.67.143,1.655,1.655,0,0,0-.557.406,1.96,1.96,0,0,0-.377.637,2.355,2.355,0,0,0-.139.828,2.617,2.617,0,0,0,.135.879,1.826,1.826,0,0,0,.377.641,1.582,1.582,0,0,0,.582.4,2.014,2.014,0,0,0,.751.135,1.679,1.679,0,0,0,.677-.135,1.741,1.741,0,0,0,.542-.366,1.68,1.68,0,0,0,.363-.546A1.727,1.727,0,0,0,20.012,9.057ZM24,16.161a1.051,1.051,0,0,1-.747-.289.917.917,0,0,1-.308-.692.937.937,0,0,1,.308-.7A1.043,1.043,0,0,1,24,14.184a1.065,1.065,0,0,1,.758.293.932.932,0,0,1,.311.7.913.913,0,0,1-.311.692A1.073,1.073,0,0,1,24,16.161Zm0-5.793a1.051,1.051,0,0,1-.747-.289.917.917,0,0,1-.308-.692.937.937,0,0,1,.308-.7A1.043,1.043,0,0,1,24,8.39a1.065,1.065,0,0,1,.758.293.932.932,0,0,1,.311.7.913.913,0,0,1-.311.692A1.073,1.073,0,0,1,24,10.368ZM32.288,5.5v6.782h1.56v1.414h-1.56V16H30.64V13.693H25.887V12.265q.645-.725,1.322-1.571t1.3-1.729q.626-.883,1.161-1.769a16.141,16.141,0,0,0,.9-1.7ZM30.64,12.279V7.87a24.336,24.336,0,0,1-1.578,2.5q-.78,1.069-1.461,1.9Zm7.713-7.017V16h-1.7V7.343a5.413,5.413,0,0,1-.992.56,8.181,8.181,0,0,1-1.212.406V6.859q.425-.139.82-.293t.78-.344q.385-.19.776-.425t.809-.535Z" fill="#fff"/>
              </g>
            </g>
          </g>
          <path id="Path_216" data-name="Path 216" d="M-22.92.208A4.746,4.746,0,0,1-25.6-.528a3.894,3.894,0,0,1-1.56-2.016l1.28-.736a2.818,2.818,0,0,0,2.992,2.032,2.824,2.824,0,0,0,1.76-.472,1.511,1.511,0,0,0,.608-1.256,1.341,1.341,0,0,0-.608-1.2,8.735,8.735,0,0,0-2.032-.848l-1.069-.367a7.589,7.589,0,0,1-.924-.408,2.9,2.9,0,0,1-.824-.576,2.9,2.9,0,0,1-.488-.776A2.624,2.624,0,0,1-26.68-8.24a2.857,2.857,0,0,1,1.024-2.312,3.762,3.762,0,0,1,2.5-.856,4,4,0,0,1,2.312.672,4.183,4.183,0,0,1,1.48,1.776l-1.248.72A2.563,2.563,0,0,0-23.16-9.968a2.287,2.287,0,0,0-1.472.448,1.473,1.473,0,0,0-.56,1.215,1.3,1.3,0,0,0,.528,1.119,6.917,6.917,0,0,0,1.825.8l.651.231.605.214a5.705,5.705,0,0,1,.6.241q.192.1.52.273a2.116,2.116,0,0,1,.488.337q.16.16.376.393a1.543,1.543,0,0,1,.312.473,3.8,3.8,0,0,1,.168.553,2.957,2.957,0,0,1,.072.665A2.865,2.865,0,0,1-20.12-.664,4.3,4.3,0,0,1-22.92.208Zm9.6-6.864h-2.128V-2.32a1.217,1.217,0,0,0,.232.84.954.954,0,0,0,.712.256q.48.008,1.184-.024V0a4.117,4.117,0,0,1-2.672-.3A2.209,2.209,0,0,1-16.84-2.32V-6.656h-1.584V-8h1.584V-9.824l1.392-.416V-8h2.128ZM-5.448-8h1.392V0H-5.448V-1.376A3.394,3.394,0,0,1-8.472.208a3.838,3.838,0,0,1-2.864-1.224A4.131,4.131,0,0,1-12.52-4a4.131,4.131,0,0,1,1.184-2.984A3.838,3.838,0,0,1-8.472-8.208,3.394,3.394,0,0,1-5.448-6.624ZM-8.3-1.136A2.744,2.744,0,0,0-6.264-1.96,2.785,2.785,0,0,0-5.448-4a2.785,2.785,0,0,0-.816-2.04A2.744,2.744,0,0,0-8.3-6.864a2.725,2.725,0,0,0-2.016.824A2.785,2.785,0,0,0-11.128-4a2.785,2.785,0,0,0,.816,2.04A2.725,2.725,0,0,0-8.3-1.136ZM4.824,0H3.1L-.552-3.788V0H-1.944V-11.2H-.552v6.722L2.9-8H4.7L.872-4.128Zm2-9.456a.913.913,0,0,1-.672-.272.894.894,0,0,1-.272-.656.921.921,0,0,1,.272-.664.9.9,0,0,1,.672-.28.881.881,0,0,1,.656.28.921.921,0,0,1,.272.664.894.894,0,0,1-.272.656A.894.894,0,0,1,6.824-9.456ZM6.12,0V-8H7.512V0Zm7.5-8.208a2.974,2.974,0,0,1,2.256.888,3.342,3.342,0,0,1,.848,2.408V0H15.336V-4.832a2.063,2.063,0,0,0-.528-1.512,1.951,1.951,0,0,0-1.456-.536,2.256,2.256,0,0,0-1.68.648,2.734,2.734,0,0,0-.64,1.992V0H9.64V-8h1.392v1.152A2.844,2.844,0,0,1,13.624-8.208ZM25.3-8H26.68V-.336a3.37,3.37,0,0,1-1.2,2.76,4.4,4.4,0,0,1-2.88.984,5,5,0,0,1-2.32-.5,3.359,3.359,0,0,1-1.472-1.448L20.024.768a2.614,2.614,0,0,0,2.608,1.344,2.782,2.782,0,0,0,1.96-.656A2.316,2.316,0,0,0,25.3-.336V-1.472A3.4,3.4,0,0,1,22.3.128a3.887,3.887,0,0,1-2.9-1.216,4.085,4.085,0,0,1-1.184-2.96A4.058,4.058,0,0,1,19.4-7a3.9,3.9,0,0,1,2.9-1.208A3.38,3.38,0,0,1,25.3-6.624Zm-4.88,5.984a2.758,2.758,0,0,0,2.032.816,2.758,2.758,0,0,0,2.032-.816A2.758,2.758,0,0,0,25.3-4.048a2.739,2.739,0,0,0-.816-2.016,2.758,2.758,0,0,0-2.032-.816,2.758,2.758,0,0,0-2.032.816,2.739,2.739,0,0,0-.816,2.016A2.758,2.758,0,0,0,20.424-2.016Z" transform="translate(188 72)" fill="#fff"/>
          <path id="android-menu" d="M4.5,22.976H25.464V20.647H4.5Zm0-5.823H25.464V14.823H4.5ZM4.5,9v2.329H25.464V9Z" transform="translate(7.5 50)" fill="#fff"/>
          <g id="bell-solid-badged" transform="translate(342.693 56)">
            <path id="Path_1" data-name="Path 1" d="M16.768,33.232A1.442,1.442,0,0,0,18.161,32H15.32A1.442,1.442,0,0,0,16.768,33.232Z" transform="translate(-5.643 -14.256)" fill="#fff"/>
            <path id="Path_2" data-name="Path 2" d="M19.146,16.01l-.184-.162a7.762,7.762,0,0,1-1.356-1.583,6.822,6.822,0,0,1-.729-2.6V9a5.9,5.9,0,0,0-.086-.967,4.051,4.051,0,0,1-3.235-3.975v-.34a5.709,5.709,0,0,0-1.793-.54V2.5a.721.721,0,1,0-1.442,0V3.2A5.839,5.839,0,0,0,5.3,9v2.668a6.822,6.822,0,0,1-.729,2.6,7.778,7.778,0,0,1-1.334,1.583l-.184.162v1.523h16.1Z" transform="translate(0 -0.356)" fill="#fff"/>
            <path id="Path_3" data-name="Path 3" d="M30.4,3.7A2.7,2.7,0,1,1,27.7,1,2.7,2.7,0,0,1,30.4,3.7Z" transform="translate(-10.094)" fill="#f2a214"/>
          </g>
          <path id="Path_217" data-name="Path 217" d="M-48-11.57a6.568,6.568,0,0,1,3.674,1.934A5.368,5.368,0,0,1-42.9-5.8a5.584,5.584,0,0,1-1.96,4.508A7.139,7.139,0,0,1-49.616.364,7.689,7.689,0,0,1-53.592-.658a5.622,5.622,0,0,1-2.464-2.954L-53.872-4.9Q-53-2.184-49.616-2.184a4.5,4.5,0,0,0,2.968-.952A3.265,3.265,0,0,0-45.5-5.8,3.306,3.306,0,0,0-46.648-8.47a4.453,4.453,0,0,0-2.968-.966h-.672l-1.036-1.6,4.536-6.132H-55.5V-19.6h11.76l-.015,2.285Zm10.956-8.03h2.24V0H-37.38V-16.8l-4.172,1.232-.644-2.24ZM-18.228-2.408A6.463,6.463,0,0,1-23.8.364a6.463,6.463,0,0,1-5.572-2.772A12.429,12.429,0,0,1-31.36-9.8a12.429,12.429,0,0,1,1.988-7.392A6.463,6.463,0,0,1-23.8-19.964a6.463,6.463,0,0,1,5.572,2.772A12.429,12.429,0,0,1-16.24-9.8,12.429,12.429,0,0,1-18.228-2.408Zm-9.24-1.764A4.121,4.121,0,0,0-23.8-2.184a4.154,4.154,0,0,0,3.682-1.988,10.247,10.247,0,0,0,1.3-5.628,10.321,10.321,0,0,0-1.3-5.642,4.147,4.147,0,0,0-3.682-2,4.121,4.121,0,0,0-3.668,1.988A10.4,10.4,0,0,0-28.756-9.8,10.336,10.336,0,0,0-27.468-4.172ZM-10-19.6h2.24V0h-2.576V-16.8L-14.5-15.568l-.644-2.24ZM16.436,0l-1.6-4.4H6.024L4.424,0H1.652L8.96-19.6H11.9L19.208,0ZM6.909-6.832h7.041L10.43-16.508ZM29.176-19.6a8.7,8.7,0,0,1,6.65,2.842A9.833,9.833,0,0,1,38.472-9.8a9.833,9.833,0,0,1-2.646,6.958A8.7,8.7,0,0,1,29.176,0H21.532V-19.6Zm0,17.136a6.314,6.314,0,0,0,4.9-2.1A7.5,7.5,0,0,0,35.98-9.8a7.5,7.5,0,0,0-1.9-5.236,6.314,6.314,0,0,0-4.9-2.1h-5.04V-2.464ZM53.844,0l-1.6-4.4H43.432L41.832,0H39.06l7.308-19.6h2.94L56.616,0ZM44.317-6.832h7.041l-3.521-9.676Z" transform="translate(199 145)" fill="#fff"/>
          <path id="Path_218" data-name="Path 218" d="M-72.5-9.8a9.5,9.5,0,0,1-2.8,7.125A12.258,12.258,0,0,1-82.6.6V5h-3.35V.65a14.321,14.321,0,0,1-7.2-2.35,11.321,11.321,0,0,1-4.3-5.55l5.95-3.45a6.71,6.71,0,0,0,5.55,4.55V-14.8H-86l-.1-.05q-1.75-.65-2.85-1.15a20.828,20.828,0,0,1-2.575-1.45,9.576,9.576,0,0,1-2.3-1.975,9.936,9.936,0,0,1-1.45-2.625,9.539,9.539,0,0,1-.625-3.5,9.128,9.128,0,0,1,2.875-7.05,11.775,11.775,0,0,1,7.075-3.05V-40h3.35v4.45A11.337,11.337,0,0,1-73-28.5l-5.8,3.4a5.527,5.527,0,0,0-3.8-3.65v8.35a36.484,36.484,0,0,1,6.25,2.95A8.874,8.874,0,0,1-72.5-9.8ZM-89.05-25.5a2.884,2.884,0,0,0,.7,1.925,7.675,7.675,0,0,0,2.4,1.675v-7a4.023,4.023,0,0,0-2.3,1.2A3.193,3.193,0,0,0-89.05-25.5ZM-82.6-6.25q3.2-.7,3.2-3.5a3,3,0,0,0-.775-2.1,7.437,7.437,0,0,0-2.425-1.6Zm29-14.55a11.734,11.734,0,0,1,5.775,3.675A9.457,9.457,0,0,1-45.6-10.8a10.446,10.446,0,0,1-3.625,8.45A13.32,13.32,0,0,1-58.1.7a14.3,14.3,0,0,1-7.325-1.875A10.78,10.78,0,0,1-70.1-6.7l5.9-3.4q1.3,4.05,6.1,4.05a6.109,6.109,0,0,0,4.125-1.275A4.355,4.355,0,0,0-52.5-10.8a4.373,4.373,0,0,0-1.475-3.45,6.031,6.031,0,0,0-4.125-1.3h-1.5l-2.65-4,6.9-9h-13.7V-35h22v5.7Zm23.1-1.45A12.434,12.434,0,0,1-22-19.225,10.615,10.615,0,0,1-18.55-10.8a10.446,10.446,0,0,1-3.625,8.45A13.32,13.32,0,0,1-31.05.7a14.585,14.585,0,0,1-7.5-1.9,10.853,10.853,0,0,1-4.7-5.6l5.9-3.45q1.3,4.2,6.3,4.2a6.109,6.109,0,0,0,4.125-1.275A4.355,4.355,0,0,0-25.45-10.8a4.408,4.408,0,0,0-1.45-3.45,5.7,5.7,0,0,0-3.95-1.3h-10.6L-40.05-35H-20.2v6.45H-33.65l-.45,6.3ZM-17.05,0V-5.15L-5.1-17.45q4-4.2,4-7a4.413,4.413,0,0,0-1.275-3.3A4.482,4.482,0,0,0-5.65-29q-3.95,0-5.85,4.1l-5.8-3.4a12.226,12.226,0,0,1,4.75-5.5,12.765,12.765,0,0,1,6.8-1.9A11.959,11.959,0,0,1,2.4-32.725,10.122,10.122,0,0,1,5.8-24.7Q5.791-19.259.057-13.52L-6.809-6.65H6.35V0ZM23.4.7A12.125,12.125,0,0,1,13.125-4.275Q9.4-9.25,9.4-17.5t3.725-13.225A12.125,12.125,0,0,1,23.4-35.7a12.109,12.109,0,0,1,10.3,4.975Q37.4-25.75,37.4-17.5T33.7-4.275A12.109,12.109,0,0,1,23.4.7ZM18.1-8.975A5.84,5.84,0,0,0,23.4-6.05,5.886,5.886,0,0,0,28.725-9q1.825-2.95,1.825-8.5,0-5.6-1.825-8.55A5.886,5.886,0,0,0,23.4-29a5.829,5.829,0,0,0-5.3,2.95q-1.8,2.95-1.8,8.55T18.1-8.975ZM47.35-.6a4.091,4.091,0,0,1-3,1.25,4.091,4.091,0,0,1-3-1.25,4.091,4.091,0,0,1-1.25-3,4.091,4.091,0,0,1,1.25-3,4.091,4.091,0,0,1,3-1.25,4.091,4.091,0,0,1,3,1.25,4.091,4.091,0,0,1,1.25,3A4.091,4.091,0,0,1,47.35-.6Zm26.7-22.95A12.429,12.429,0,0,1,72-16.45h0L61.1,0H53.2l7.794-11.4a12.44,12.44,0,0,1-8.87-3.475A11.654,11.654,0,0,1,48.7-23.55a11.621,11.621,0,0,1,3.525-8.75,12.6,12.6,0,0,1,9.125-3.4,12.717,12.717,0,0,1,9.175,3.375A11.6,11.6,0,0,1,74.05-23.55Zm-18.5,0a5.382,5.382,0,0,0,1.675,4.15,5.846,5.846,0,0,0,4.125,1.55,5.89,5.89,0,0,0,4.2-1.55,5.423,5.423,0,0,0,1.65-4.15,5.343,5.343,0,0,0-1.65-4.125,5.946,5.946,0,0,0-4.2-1.525,5.846,5.846,0,0,0-4.125,1.55A5.321,5.321,0,0,0,55.55-23.55ZM74.841-35H97.45v5.848L85.6,0H78.3L89.791-28.4H74.841Z" transform="translate(199 206)" fill="#fff"/>
          <g id="Group_4" data-name="Group 4" transform="translate(12 42)">
            <g id="Rectangle_2117" data-name="Rectangle 2117" transform="translate(158 192)" fill="#222" stroke="#fff" stroke-width="1">
              <rect width="59" height="26" rx="13" stroke="none"/>
              <rect x="0.5" y="0.5" width="58" height="25" rx="12.5" fill="none"/>
            </g>
            <path id="Path_219" data-name="Path 219" d="M-11.91.156A3.559,3.559,0,0,1-13.92-.4a2.92,2.92,0,0,1-1.17-1.512l.96-.552A2.113,2.113,0,0,0-11.886-.936a2.118,2.118,0,0,0,1.32-.354,1.133,1.133,0,0,0,.456-.942,1.006,1.006,0,0,0-.456-.9,6.551,6.551,0,0,0-1.524-.636l-.8-.276a5.692,5.692,0,0,1-.693-.306,2.175,2.175,0,0,1-.618-.432,2.171,2.171,0,0,1-.366-.582,1.968,1.968,0,0,1-.162-.816,2.143,2.143,0,0,1,.768-1.734,2.822,2.822,0,0,1,1.872-.642,3,3,0,0,1,1.734.5A3.138,3.138,0,0,1-9.246-6.72l-.936.54a1.922,1.922,0,0,0-1.908-1.3,1.715,1.715,0,0,0-1.1.336,1.1,1.1,0,0,0-.42.911.973.973,0,0,0,.4.839,5.188,5.188,0,0,0,1.368.6l.488.173.454.161a4.279,4.279,0,0,1,.45.181q.144.072.39.2a1.587,1.587,0,0,1,.366.252q.12.12.282.294a1.157,1.157,0,0,1,.234.355,2.853,2.853,0,0,1,.126.415,2.218,2.218,0,0,1,.054.5A2.149,2.149,0,0,1-9.81-.5,3.223,3.223,0,0,1-11.91.156Zm7.2-5.148h-1.6V-1.74a.913.913,0,0,0,.174.63A.716.716,0,0,0-5.6-.918q.36.006.888-.018V0a3.088,3.088,0,0,1-2-.222A1.657,1.657,0,0,1-7.35-1.74V-4.992H-8.538V-6H-7.35V-7.368l1.044-.312V-6h1.6ZM1.194-6H2.238V0H1.194V-1.032A2.546,2.546,0,0,1-1.074.156,2.879,2.879,0,0,1-3.222-.762,3.1,3.1,0,0,1-4.11-3a3.1,3.1,0,0,1,.888-2.238,2.879,2.879,0,0,1,2.148-.918A2.546,2.546,0,0,1,1.194-4.968ZM-.942-.852A2.058,2.058,0,0,0,.582-1.47,2.089,2.089,0,0,0,1.194-3,2.089,2.089,0,0,0,.582-4.53,2.058,2.058,0,0,0-.942-5.148a2.044,2.044,0,0,0-1.512.618A2.089,2.089,0,0,0-3.066-3a2.089,2.089,0,0,0,.612,1.53A2.044,2.044,0,0,0-.942-.852ZM8.9,0H7.6L4.866-2.841V0H3.822V-8.4H4.866v5.042L7.458-6H8.8L5.934-3.1ZM10.05-2.52a1.978,1.978,0,0,0,.738,1.248,2.3,2.3,0,0,0,1.434.444A1.878,1.878,0,0,0,13.95-1.7l.888.5A2.932,2.932,0,0,1,12.2.156,3.141,3.141,0,0,1,9.876-.738,3.066,3.066,0,0,1,8.982-3a3.1,3.1,0,0,1,.876-2.256,3.025,3.025,0,0,1,2.268-.9,2.76,2.76,0,0,1,2.154.93,3.236,3.236,0,0,1,.834,2.238,3.153,3.153,0,0,1-.036.468Zm2.076-2.652a2.061,2.061,0,0,0-1.392.474,2.052,2.052,0,0,0-.684,1.266h4.008a2,2,0,0,0-.672-1.3A1.924,1.924,0,0,0,12.126-5.172Z" transform="translate(188 210)" fill="#fff"/>
          </g>
          <g id="Group_5" data-name="Group 5" transform="translate(0 -30)">
            <rect id="Rectangle_2124" data-name="Rectangle 2124" width="351" height="108" rx="6" transform="translate(12 330)" fill="#2c2d30"/>
            <path id="Rectangle_2125" data-name="Rectangle 2125" d="M8,0H343a8,8,0,0,1,8,8V39a0,0,0,0,1,0,0H0a0,0,0,0,1,0,0V8A8,8,0,0,1,8,0Z" transform="translate(12 330)" fill="#2c2d30"/>
            <path id="Path_220" data-name="Path 220" d="M-19.215,0l-.8-2.2h-4.407l-.8,2.2h-1.386l3.654-9.8h1.47L-17.829,0Zm-4.763-3.416h3.521l-1.76-4.838Zm10.307,3.6A3.558,3.558,0,0,1-16.3-.875,3.576,3.576,0,0,1-17.353-3.5,3.576,3.576,0,0,1-16.3-6.125a3.558,3.558,0,0,1,2.632-1.057,3.541,3.541,0,0,1,1.862.5,3.121,3.121,0,0,1,1.232,1.337L-11.6-4.76a2.075,2.075,0,0,0-.819-.9,2.365,2.365,0,0,0-1.253-.336,2.373,2.373,0,0,0-1.757.714A2.426,2.426,0,0,0-16.135-3.5a2.409,2.409,0,0,0,.707,1.764,2.373,2.373,0,0,0,1.757.714,2.441,2.441,0,0,0,1.26-.329,2.2,2.2,0,0,0,.854-.889l1.036.6A3.4,3.4,0,0,1-11.809-.315,3.588,3.588,0,0,1-13.671.182Zm7.546,0A3.558,3.558,0,0,1-8.757-.875,3.576,3.576,0,0,1-9.807-3.5a3.576,3.576,0,0,1,1.05-2.625A3.558,3.558,0,0,1-6.125-7.182a3.541,3.541,0,0,1,1.862.5A3.121,3.121,0,0,1-3.031-5.348l-1.022.588a2.075,2.075,0,0,0-.819-.9,2.365,2.365,0,0,0-1.253-.336,2.373,2.373,0,0,0-1.757.714A2.426,2.426,0,0,0-8.589-3.5a2.409,2.409,0,0,0,.707,1.764,2.373,2.373,0,0,0,1.757.714,2.441,2.441,0,0,0,1.26-.329,2.2,2.2,0,0,0,.854-.889l1.036.6A3.4,3.4,0,0,1-4.263-.315,3.588,3.588,0,0,1-6.125.182ZM4.039-.882A3.588,3.588,0,0,1,1.421.182,3.565,3.565,0,0,1-1.19-.882,3.546,3.546,0,0,1-2.261-3.5,3.546,3.546,0,0,1-1.19-6.118,3.565,3.565,0,0,1,1.421-7.182,3.588,3.588,0,0,1,4.039-6.118,3.535,3.535,0,0,1,5.117-3.5,3.535,3.535,0,0,1,4.039-.882ZM1.421-1.008a2.4,2.4,0,0,0,1.764-.714A2.413,2.413,0,0,0,3.9-3.5a2.413,2.413,0,0,0-.714-1.778,2.4,2.4,0,0,0-1.764-.714,2.38,2.38,0,0,0-1.75.714A2.413,2.413,0,0,0-1.043-3.5,2.413,2.413,0,0,0-.329-1.722,2.38,2.38,0,0,0,1.421-1.008ZM11.389-7h1.218V0H11.389V-1.008A2.489,2.489,0,0,1,9.121.182,2.6,2.6,0,0,1,7.147-.6,2.924,2.924,0,0,1,6.405-2.7V-7H7.623v4.228a1.8,1.8,0,0,0,.462,1.323A1.707,1.707,0,0,0,9.359-.98a1.974,1.974,0,0,0,1.47-.567,2.392,2.392,0,0,0,.56-1.743Zm6.552-.182a2.6,2.6,0,0,1,1.974.777A2.924,2.924,0,0,1,20.657-4.3V0H19.439V-4.228a1.8,1.8,0,0,0-.462-1.323A1.707,1.707,0,0,0,17.7-6.02a1.974,1.974,0,0,0-1.47.567,2.392,2.392,0,0,0-.56,1.743V0H14.455V-7h1.218v1.008A2.489,2.489,0,0,1,17.941-7.182Zm8.218,1.358H24.3V-2.03a1.065,1.065,0,0,0,.2.735.835.835,0,0,0,.623.224q.42.007,1.036-.021V0a3.6,3.6,0,0,1-2.338-.259,1.933,1.933,0,0,1-.742-1.771V-5.824H21.693V-7h1.386V-8.6L24.3-8.96V-7h1.862Z" transform="translate(94 355)" fill="#f2a214"/>
            <path id="Path_221" data-name="Path 221" d="M-21.864,0l-2.741-9.8h1.369l2.243,8.064,2.38-8.064H-17.3l2.38,8.065,2.24-8.065h1.3L-14.119,0h-1.512l-2.331-7.85L-20.294,0ZM-5.075-7h1.218V0H-5.075V-1.2A2.97,2.97,0,0,1-7.721.182,3.358,3.358,0,0,1-10.227-.889,3.615,3.615,0,0,1-11.263-3.5a3.615,3.615,0,0,1,1.036-2.611A3.358,3.358,0,0,1-7.721-7.182,2.97,2.97,0,0,1-5.075-5.8ZM-7.567-.994a2.4,2.4,0,0,0,1.778-.721A2.437,2.437,0,0,0-5.075-3.5a2.437,2.437,0,0,0-.714-1.785,2.4,2.4,0,0,0-1.778-.721,2.384,2.384,0,0,0-1.764.721A2.437,2.437,0,0,0-10.045-3.5a2.437,2.437,0,0,0,.714,1.785A2.384,2.384,0,0,0-7.567-.994ZM-2.009,0V-10.22H-.791V0Zm3.08,0V-10.22H2.289V0ZM5-2.94a2.308,2.308,0,0,0,.861,1.456,2.677,2.677,0,0,0,1.673.518A2.191,2.191,0,0,0,9.555-1.988l1.036.588A3.42,3.42,0,0,1,7.511.182,3.665,3.665,0,0,1,4.8-.861,3.577,3.577,0,0,1,3.759-3.5,3.622,3.622,0,0,1,4.781-6.132a3.529,3.529,0,0,1,2.646-1.05A3.22,3.22,0,0,1,9.94-6.1a3.775,3.775,0,0,1,.973,2.611,3.679,3.679,0,0,1-.042.546ZM7.427-6.034A2.4,2.4,0,0,0,5.8-5.481,2.394,2.394,0,0,0,5-4H9.681A2.333,2.333,0,0,0,8.9-5.516,2.245,2.245,0,0,0,7.427-6.034Zm8.484.21H14.049V-2.03a1.065,1.065,0,0,0,.2.735.835.835,0,0,0,.623.224q.42.007,1.036-.021V0a3.6,3.6,0,0,1-2.338-.259,1.933,1.933,0,0,1-.742-1.771V-5.824H11.445V-7h1.386V-8.6l1.218-.364V-7h1.862ZM22.743-9.8h1.12V0H22.575V-8.4l-2.086.616L20.167-8.9Z" transform="translate(281 355)" fill="#777"/>
            <line id="Line_1" data-name="Line 1" x2="351" transform="translate(12.5 369.5)" fill="none" stroke="#777" stroke-width="1" opacity="0.25"/>
            <line id="Line_2" data-name="Line 2" x2="351" transform="translate(12.5 406)" fill="none" stroke="#777" stroke-width="1" opacity="0.25"/>
            <rect id="Rectangle_2126" data-name="Rectangle 2126" width="6" height="1" rx="0.5" transform="translate(91 360)" fill="#f2a214"/>
            <path id="Path_223" data-name="Path 223" d="M3.1,0,.1-8.4H1.3l2.438,7,2.422-7H7.368L4.356,0Zm9.4-6h1.044V0H12.492V-1.032A2.546,2.546,0,0,1,10.224.156,2.879,2.879,0,0,1,8.076-.762,3.1,3.1,0,0,1,7.188-3a3.1,3.1,0,0,1,.888-2.238,2.879,2.879,0,0,1,2.148-.918,2.546,2.546,0,0,1,2.268,1.188ZM10.356-.852A2.058,2.058,0,0,0,11.88-1.47,2.089,2.089,0,0,0,12.492-3a2.089,2.089,0,0,0-.612-1.53,2.058,2.058,0,0,0-1.524-.618,2.044,2.044,0,0,0-1.512.618A2.089,2.089,0,0,0,8.232-3a2.089,2.089,0,0,0,.612,1.53A2.044,2.044,0,0,0,10.356-.852ZM15.12,0V-8.76h1.044V0Zm3.168-7.092a.685.685,0,0,1-.5-.2.671.671,0,0,1-.2-.492.691.691,0,0,1,.2-.5.675.675,0,0,1,.5-.21.661.661,0,0,1,.492.21.691.691,0,0,1,.2.5.671.671,0,0,1-.2.492A.671.671,0,0,1,18.288-7.092ZM17.76,0V-6H18.8V0Zm7.608-8.4h1.044V0H25.368V-1.032A2.546,2.546,0,0,1,23.1.156a2.879,2.879,0,0,1-2.148-.918A3.1,3.1,0,0,1,20.064-3a3.1,3.1,0,0,1,.888-2.238A2.879,2.879,0,0,1,23.1-6.156a2.546,2.546,0,0,1,2.268,1.188ZM23.232-.852a2.058,2.058,0,0,0,1.524-.618A2.089,2.089,0,0,0,25.368-3a2.089,2.089,0,0,0-.612-1.53,2.058,2.058,0,0,0-1.524-.618,2.044,2.044,0,0,0-1.512.618A2.089,2.089,0,0,0,21.108-3a2.089,2.089,0,0,0,.612,1.53A2.044,2.044,0,0,0,23.232-.852ZM32.964-6h1.044V0H32.964V-1.032A2.546,2.546,0,0,1,30.7.156a2.879,2.879,0,0,1-2.148-.918A3.1,3.1,0,0,1,27.66-3a3.1,3.1,0,0,1,.888-2.238A2.879,2.879,0,0,1,30.7-6.156a2.546,2.546,0,0,1,2.268,1.188ZM30.828-.852a2.058,2.058,0,0,0,1.524-.618A2.089,2.089,0,0,0,32.964-3a2.089,2.089,0,0,0-.612-1.53,2.058,2.058,0,0,0-1.524-.618,2.044,2.044,0,0,0-1.512.618A2.089,2.089,0,0,0,28.7-3a2.089,2.089,0,0,0,.612,1.53A2.044,2.044,0,0,0,30.828-.852Zm8.028-4.14h-1.6V-1.74a.913.913,0,0,0,.174.63.716.716,0,0,0,.534.192q.36.006.888-.018V0a3.088,3.088,0,0,1-2-.222,1.657,1.657,0,0,1-.636-1.518V-4.992H35.028V-6h1.188V-7.368L37.26-7.68V-6h1.6Zm6,4.236a3.076,3.076,0,0,1-2.244.912,3.056,3.056,0,0,1-2.238-.912A3.04,3.04,0,0,1,39.456-3a3.04,3.04,0,0,1,.918-2.244,3.056,3.056,0,0,1,2.238-.912,3.076,3.076,0,0,1,2.244.912A3.03,3.03,0,0,1,45.78-3,3.03,3.03,0,0,1,44.856-.756ZM42.612-.864a2.054,2.054,0,0,0,1.512-.612A2.069,2.069,0,0,0,44.736-3a2.069,2.069,0,0,0-.612-1.524,2.054,2.054,0,0,0-1.512-.612,2.04,2.04,0,0,0-1.5.612A2.069,2.069,0,0,0,40.5-3a2.069,2.069,0,0,0,.612,1.524A2.04,2.04,0,0,0,42.612-.864ZM48.06-4.992a1.882,1.882,0,0,1,1.872-1.116v1.092a1.891,1.891,0,0,0-1.32.408A1.726,1.726,0,0,0,48.06-3.18V0H47.016V-6H48.06Z" transform="translate(27 393)" fill="#fff"/>
            <path id="Path_224" data-name="Path 224" d="M4.848.156A4.236,4.236,0,0,1,1.7-1.1,4.24,4.24,0,0,1,.456-4.2,4.24,4.24,0,0,1,1.7-7.3a4.236,4.236,0,0,1,3.15-1.26A4.2,4.2,0,0,1,6.966-8,3.985,3.985,0,0,1,8.472-6.516L7.5-5.952a2.7,2.7,0,0,0-1.074-1.11,3.089,3.089,0,0,0-1.578-.414,3.174,3.174,0,0,0-2.37.936A3.208,3.208,0,0,0,1.56-4.2a3.193,3.193,0,0,0,.918,2.328,3.174,3.174,0,0,0,2.37.936A3.089,3.089,0,0,0,6.426-1.35,2.724,2.724,0,0,0,7.5-2.448l.972.552A3.928,3.928,0,0,1,6.972-.4,4.192,4.192,0,0,1,4.848.156Zm9.816-.912A3.076,3.076,0,0,1,12.42.156a3.056,3.056,0,0,1-2.238-.912A3.04,3.04,0,0,1,9.264-3a3.04,3.04,0,0,1,.918-2.244,3.056,3.056,0,0,1,2.238-.912,3.076,3.076,0,0,1,2.244.912A3.03,3.03,0,0,1,15.588-3,3.03,3.03,0,0,1,14.664-.756ZM12.42-.864a2.054,2.054,0,0,0,1.512-.612A2.069,2.069,0,0,0,14.544-3a2.069,2.069,0,0,0-.612-1.524,2.054,2.054,0,0,0-1.512-.612,2.04,2.04,0,0,0-1.5.612A2.069,2.069,0,0,0,10.308-3a2.069,2.069,0,0,0,.612,1.524A2.04,2.04,0,0,0,12.42-.864ZM23.3-6.156a2.153,2.153,0,0,1,1.632.654,2.458,2.458,0,0,1,.624,1.77V0H24.516V-3.7a1.518,1.518,0,0,0-.36-1.08,1.253,1.253,0,0,0-.96-.384,1.369,1.369,0,0,0-1.074.45,2.013,2.013,0,0,0-.4,1.374V0H20.676V-3.7a1.569,1.569,0,0,0-.342-1.08,1.182,1.182,0,0,0-.93-.384,1.459,1.459,0,0,0-1.1.456,1.906,1.906,0,0,0-.438,1.368V0H16.824V-6h1.044v.8a1.99,1.99,0,0,1,1.788-.96,1.862,1.862,0,0,1,1.764,1.02A2.062,2.062,0,0,1,23.3-6.156Zm10.188,0a2.153,2.153,0,0,1,1.632.654,2.458,2.458,0,0,1,.624,1.77V0H34.7V-3.7a1.518,1.518,0,0,0-.36-1.08,1.253,1.253,0,0,0-.96-.384,1.369,1.369,0,0,0-1.074.45,2.013,2.013,0,0,0-.4,1.374V0H30.864V-3.7a1.569,1.569,0,0,0-.342-1.08,1.182,1.182,0,0,0-.93-.384,1.459,1.459,0,0,0-1.1.456,1.906,1.906,0,0,0-.438,1.368V0H27.012V-6h1.044v.8a1.99,1.99,0,0,1,1.788-.96,1.862,1.862,0,0,1,1.764,1.02A2.062,2.062,0,0,1,33.492-6.156ZM45.144-7.344h-3.72V-4.62h3.564v1.056H41.424V0H40.308V-8.4h4.836Zm2.472,6.288h3.9V0H46.5V-8.4h4.956v1.056h-3.84v2.58h3.54V-3.72h-3.54Zm6.36,0h3.9V0H52.86V-8.4h4.956v1.056h-3.84v2.58h3.54V-3.72h-3.54Z" transform="translate(27 426)" fill="#fff"/>
            <path id="Path_222" data-name="Path 222" d="M-31.6-8.4a2.629,2.629,0,0,1,1.938.774A2.614,2.614,0,0,1-28.884-5.7a2.62,2.62,0,0,1-.774,1.92A2.618,2.618,0,0,1-31.6-3h-1.932V0h-1.116V-8.4Zm0,4.356a1.531,1.531,0,0,0,1.152-.474A1.638,1.638,0,0,0-29.988-5.7a1.632,1.632,0,0,0-.456-1.188A1.541,1.541,0,0,0-31.6-7.356h-1.932v3.312ZM-27.564-8.4h1.116V0h-1.116Zm11.016,4.236v.5A3.631,3.631,0,0,1-17.676-.93,4.127,4.127,0,0,1-20.664.156,4.28,4.28,0,0,1-23.838-1.11,4.225,4.225,0,0,1-25.092-4.2a4.225,4.225,0,0,1,1.254-3.09,4.251,4.251,0,0,1,3.15-1.266A4.215,4.215,0,0,1-18.552-8a3.983,3.983,0,0,1,1.5,1.47l-.96.564a2.7,2.7,0,0,0-1.086-1.1,3.177,3.177,0,0,0-1.6-.414,3.169,3.169,0,0,0-2.364.942A3.2,3.2,0,0,0-23.988-4.2a3.171,3.171,0,0,0,.93,2.328,3.244,3.244,0,0,0,2.406.936,3.188,3.188,0,0,0,2.04-.618,2.519,2.519,0,0,0,.948-1.6h-3.084V-4.164Zm9.456,0v.5A3.631,3.631,0,0,1-8.22-.93,4.127,4.127,0,0,1-11.208.156,4.28,4.28,0,0,1-14.382-1.11,4.225,4.225,0,0,1-15.636-4.2a4.225,4.225,0,0,1,1.254-3.09,4.251,4.251,0,0,1,3.15-1.266A4.215,4.215,0,0,1-9.1-8a3.983,3.983,0,0,1,1.5,1.47l-.96.564a2.7,2.7,0,0,0-1.086-1.1,3.177,3.177,0,0,0-1.6-.414,3.169,3.169,0,0,0-2.364.942A3.2,3.2,0,0,0-14.532-4.2a3.171,3.171,0,0,0,.93,2.328A3.244,3.244,0,0,0-11.2-.936a3.188,3.188,0,0,0,2.04-.618,2.519,2.519,0,0,0,.948-1.6h-3.084V-4.164ZM-.1-8.4l-2.976,5V0H-4.188V-3.408L-7.152-8.4H-5.9l2.285,3.943L-1.344-8.4Z" transform="translate(348 393)" fill="#fff"/>
            <path id="Path_225" data-name="Path 225" d="M-10.26-4.344a2.459,2.459,0,0,1,.96.84,2.131,2.131,0,0,1,.348,1.2A2.2,2.2,0,0,1-9.756-.5a3.185,3.185,0,0,1-2.076.654A3.166,3.166,0,0,1-13.9-.5,2.2,2.2,0,0,1-14.7-2.3a2.131,2.131,0,0,1,.348-1.2,2.459,2.459,0,0,1,.96-.84A2.051,2.051,0,0,1-14.424-6.18a2.134,2.134,0,0,1,.762-1.758,2.814,2.814,0,0,1,1.83-.618,2.831,2.831,0,0,1,1.842.618A2.134,2.134,0,0,1-9.228-6.18,2.051,2.051,0,0,1-10.26-4.344Zm-1.572-3.144a1.662,1.662,0,0,0-1.062.336,1.192,1.192,0,0,0-.426,1,1.209,1.209,0,0,0,.432.99,1.612,1.612,0,0,0,1.056.354,1.612,1.612,0,0,0,1.056-.354,1.209,1.209,0,0,0,.432-.99,1.2,1.2,0,0,0-.42-1A1.656,1.656,0,0,0-11.832-7.488Zm0,6.576a2.044,2.044,0,0,0,1.29-.378,1.294,1.294,0,0,0,.486-1.086,1.281,1.281,0,0,0-.486-1.074,2.044,2.044,0,0,0-1.29-.378,2.024,2.024,0,0,0-1.278.378A1.281,1.281,0,0,0-13.6-2.376,1.294,1.294,0,0,0-13.11-1.29,2.024,2.024,0,0,0-11.832-.912ZM-6.18-4.836a1.839,1.839,0,0,1-1.356-.54,1.8,1.8,0,0,1-.54-1.32A1.791,1.791,0,0,1-7.53-8.01a1.834,1.834,0,0,1,1.35-.546,1.839,1.839,0,0,1,1.356.54,1.8,1.8,0,0,1,.54,1.32,1.806,1.806,0,0,1-.534,1.32A1.834,1.834,0,0,1-6.18-4.836Zm-.69-1.158a.914.914,0,0,0,.69.282A.9.9,0,0,0-5.49-6a.981.981,0,0,0,.27-.7.96.96,0,0,0-.27-.69.914.914,0,0,0-.69-.282.914.914,0,0,0-.69.282.96.96,0,0,0-.27.69A.975.975,0,0,0-6.87-5.994Zm-.642,4.806,5.58-6.24.588.324L-6.936-.852ZM-1.2-.4a1.839,1.839,0,0,1-1.356.54A1.839,1.839,0,0,1-3.912-.4a1.8,1.8,0,0,1-.54-1.32,1.8,1.8,0,0,1,.54-1.32,1.839,1.839,0,0,1,1.356-.54,1.839,1.839,0,0,1,1.356.54,1.8,1.8,0,0,1,.54,1.32A1.8,1.8,0,0,1-1.2-.4Zm-2.046-.63a.914.914,0,0,0,.69.282.914.914,0,0,0,.69-.282.96.96,0,0,0,.27-.69.96.96,0,0,0-.27-.69.914.914,0,0,0-.69-.282.914.914,0,0,0-.69.282.96.96,0,0,0-.27.69A.96.96,0,0,0-3.246-1.026Z" transform="translate(348 426)" fill="#fff"/>
          </g>
          <g id="Component_1_12" data-name="Component 1 – 12" transform="translate(0 719)">
            <rect id="Rectangle_2128" data-name="Rectangle 2128" width="375" height="93" fill="#292a2c"/>
            <g id="Wallet" transform="translate(0 -719)">
              <path id="bxs-wallet" d="M19.541,8.176V6.338A1.839,1.839,0,0,0,17.7,4.5H5.757A2.76,2.76,0,0,0,3,7.257V18.284a2.68,2.68,0,0,0,2.757,2.757H19.541A1.839,1.839,0,0,0,21.379,19.2v-9.19A1.839,1.839,0,0,0,19.541,8.176ZM17.7,16.447H15.865V12.771H17.7ZM5.757,8.176a.92.92,0,0,1,0-1.838H17.7V8.176Z" transform="translate(25.81 730.5)" fill="#777"/>
              <path id="Path_226" data-name="Path 226" d="M-12.587,0l-1.958-7h.978l1.6,5.76,1.7-5.76h.94l1.7,5.761L-6.025-7H-5.1L-7.055,0h-1.08L-9.8-5.607-11.466,0ZM-.6-5h.87V0H-.6V-.86a2.121,2.121,0,0,1-1.89.99,2.4,2.4,0,0,1-1.79-.765A2.582,2.582,0,0,1-5.015-2.5a2.582,2.582,0,0,1,.74-1.865,2.4,2.4,0,0,1,1.79-.765A2.121,2.121,0,0,1-.6-4.14ZM-2.375-.71a1.715,1.715,0,0,0,1.27-.515A1.74,1.74,0,0,0-.6-2.5a1.74,1.74,0,0,0-.51-1.275,1.715,1.715,0,0,0-1.27-.515,1.7,1.7,0,0,0-1.26.515A1.74,1.74,0,0,0-4.145-2.5a1.74,1.74,0,0,0,.51,1.275A1.7,1.7,0,0,0-2.375-.71ZM1.595,0V-7.3h.87V0Zm2.2,0V-7.3h.87V0Zm2.81-2.1A1.649,1.649,0,0,0,7.22-1.06a1.912,1.912,0,0,0,1.2.37,1.565,1.565,0,0,0,1.44-.73L10.6-1A2.443,2.443,0,0,1,8.4.13,2.618,2.618,0,0,1,6.46-.615,2.555,2.555,0,0,1,5.715-2.5a2.587,2.587,0,0,1,.73-1.88,2.521,2.521,0,0,1,1.89-.75,2.3,2.3,0,0,1,1.8.775,2.7,2.7,0,0,1,.7,1.865,2.628,2.628,0,0,1-.03.39Zm1.73-2.21a1.718,1.718,0,0,0-1.16.4,1.71,1.71,0,0,0-.57,1.055h3.34a1.666,1.666,0,0,0-.56-1.08A1.6,1.6,0,0,0,8.335-4.31Zm6.06.15h-1.33v2.71a.761.761,0,0,0,.145.525.6.6,0,0,0,.445.16q.3,0,.74-.015V0a2.573,2.573,0,0,1-1.67-.185A1.381,1.381,0,0,1,12.2-1.45V-4.16H11.2V-5h.99V-6.14l.87-.26V-5H14.4Z" transform="translate(38 772)" fill="#777"/>
            </g>
            <g id="Staking-2" data-name="Staking" transform="translate(0 -719)">
              <path id="layersalt" d="M15.927,6.112,9.815,9.944a2.929,2.929,0,0,1-1.536.388,2.929,2.929,0,0,1-1.536-.388L.631,6.112A1.114,1.114,0,0,1,0,5.166,1.149,1.149,0,0,1,.631,4.2L6.743.388A2.929,2.929,0,0,1,8.279,0,2.929,2.929,0,0,1,9.815.388L15.927,4.2a1.15,1.15,0,0,1,.631.962A1.113,1.113,0,0,1,15.927,6.112Zm-15.3,4.3L2.425,9.3l4.317,2.716a2.929,2.929,0,0,0,1.536.388,2.929,2.929,0,0,0,1.536-.388L14.132,9.3l1.795,1.116a1.15,1.15,0,0,1,.631.962,1.113,1.113,0,0,1-.631.946L9.815,16.153a2.929,2.929,0,0,1-1.536.388,2.929,2.929,0,0,1-1.536-.388L.631,12.321A1.114,1.114,0,0,1,0,11.375,1.149,1.149,0,0,1,.631,10.413Z" transform="translate(104.721 735)" fill="#f2a214"/>
              <path id="Path_227" data-name="Path 227" d="M-14.325.13A2.966,2.966,0,0,1-16-.33a2.433,2.433,0,0,1-.975-1.26l.8-.46A1.761,1.761,0,0,0-14.3-.78a1.765,1.765,0,0,0,1.1-.3.944.944,0,0,0,.38-.785.838.838,0,0,0-.38-.75,5.459,5.459,0,0,0-1.27-.53l-.668-.23a4.743,4.743,0,0,1-.577-.255,1.812,1.812,0,0,1-.515-.36,1.81,1.81,0,0,1-.305-.485,1.64,1.64,0,0,1-.135-.68,1.785,1.785,0,0,1,.64-1.445,2.351,2.351,0,0,1,1.56-.535,2.5,2.5,0,0,1,1.445.42A2.615,2.615,0,0,1-12.1-5.6l-.78.45a1.6,1.6,0,0,0-1.59-1.08,1.429,1.429,0,0,0-.92.28.921.921,0,0,0-.35.76.811.811,0,0,0,.33.7,4.323,4.323,0,0,0,1.14.5l.407.144.378.134a3.566,3.566,0,0,1,.375.15q.12.06.325.17a1.322,1.322,0,0,1,.3.21q.1.1.235.245a.964.964,0,0,1,.195.3,2.378,2.378,0,0,1,.1.346,1.848,1.848,0,0,1,.045.416,1.791,1.791,0,0,1-.67,1.465A2.686,2.686,0,0,1-14.325.13Zm6-4.29h-1.33v2.71a.761.761,0,0,0,.145.525.6.6,0,0,0,.445.16q.3,0,.74-.015V0a2.573,2.573,0,0,1-1.67-.185,1.381,1.381,0,0,1-.53-1.265V-4.16h-.99V-5h.99V-6.14l.87-.26V-5h1.33ZM-3.4-5h.87V0H-3.4V-.86A2.121,2.121,0,0,1-5.3.13a2.4,2.4,0,0,1-1.79-.765A2.582,2.582,0,0,1-7.825-2.5a2.582,2.582,0,0,1,.74-1.865A2.4,2.4,0,0,1-5.3-5.13a2.121,2.121,0,0,1,1.89.99ZM-5.185-.71a1.715,1.715,0,0,0,1.27-.515A1.74,1.74,0,0,0-3.4-2.5a1.74,1.74,0,0,0-.51-1.275,1.715,1.715,0,0,0-1.27-.515,1.7,1.7,0,0,0-1.26.515A1.74,1.74,0,0,0-6.955-2.5a1.74,1.74,0,0,0,.51,1.275A1.7,1.7,0,0,0-5.185-.71Zm8.2.71H1.935L-.345-2.367V0h-.87V-7h.87v4.2L1.815-5h1.12L.545-2.58Zm1.25-5.91a.571.571,0,0,1-.42-.17.559.559,0,0,1-.17-.41.575.575,0,0,1,.17-.415.562.562,0,0,1,.42-.175.551.551,0,0,1,.41.175.575.575,0,0,1,.17.415.559.559,0,0,1-.17.41A.559.559,0,0,1,4.265-5.91ZM3.825,0V-5H4.7V0Zm4.69-5.13a1.859,1.859,0,0,1,1.41.555,2.089,2.089,0,0,1,.53,1.505V0h-.87V-3.02a1.289,1.289,0,0,0-.33-.945,1.219,1.219,0,0,0-.91-.335,1.41,1.41,0,0,0-1.05.4A1.709,1.709,0,0,0,6.9-2.65V0h-.87V-5H6.9v.72A1.778,1.778,0,0,1,8.515-5.13Zm7.3.13h.86V-.21a2.106,2.106,0,0,1-.75,1.725,2.748,2.748,0,0,1-1.8.615,3.123,3.123,0,0,1-1.45-.315,2.1,2.1,0,0,1-.92-.9l.76-.43a1.633,1.633,0,0,0,1.63.84A1.739,1.739,0,0,0,15.37.91a1.448,1.448,0,0,0,.445-1.12V-.92a2.122,2.122,0,0,1-1.88,1,2.429,2.429,0,0,1-1.81-.76,2.553,2.553,0,0,1-.74-1.85,2.536,2.536,0,0,1,.74-1.845,2.437,2.437,0,0,1,1.81-.755,2.112,2.112,0,0,1,1.88.99Zm-3.05,3.74a1.724,1.724,0,0,0,1.27.51,1.724,1.724,0,0,0,1.27-.51,1.724,1.724,0,0,0,.51-1.27,1.712,1.712,0,0,0-.51-1.26,1.724,1.724,0,0,0-1.27-.51,1.724,1.724,0,0,0-1.27.51,1.712,1.712,0,0,0-.51,1.26A1.724,1.724,0,0,0,12.765-1.26Z" transform="translate(113 772)" fill="#f2a214"/>
            </g>
            <g id="Browser" transform="translate(0 -719)">
              <g id="network-globe-solid" transform="translate(251.25 733)" opacity="0">
                <path id="Path_10" data-name="Path 10" d="M14.528,9.5a1.329,1.329,0,0,1-.278,1.046,9.452,9.452,0,0,0,2.912,3.09c.2.136.408.254.591.372a1.347,1.347,0,0,1,1.524-.337,9.984,9.984,0,0,0,1.837-4.135A10.043,10.043,0,0,0,14.528,9.5Z" transform="translate(-4.297 -2.848)" fill="#777"/>
                <path id="Path_11" data-name="Path 11" d="M12.021,2A8.271,8.271,0,0,0,3.75,10.271a4.967,4.967,0,0,0,.041.786A8.271,8.271,0,1,0,12.021,2Zm6.114,11.277a10.285,10.285,0,0,1-2.552-.331,1.353,1.353,0,0,1-1.772.366,10.888,10.888,0,0,1-4.135,2.068,1.382,1.382,0,0,1-.927,1.057l-.171.035a7.048,7.048,0,0,1-2-1.654h.39a1.376,1.376,0,0,1,2.582-.343,10.007,10.007,0,0,0,3.674-1.843,1.371,1.371,0,0,1-.106-.691c-.248-.142-.5-.289-.738-.449A10.356,10.356,0,0,1,9.214,8.185a1.365,1.365,0,0,1-1.347-.372,16.133,16.133,0,0,0-2.954,2.8v-.337A7.089,7.089,0,0,1,5,9.254,11.077,11.077,0,0,1,7.478,7.01a1.347,1.347,0,0,1,.65-1.329c-.071-.254-.142-.508-.195-.768a1.072,1.072,0,0,0-.065-.378,7.089,7.089,0,0,1,.809-.514c.059.349.083.532.124.715s.118.5.189.75h.148a1.376,1.376,0,0,1,.668.372,10.935,10.935,0,0,1,7.154-.041V5.226A7.089,7.089,0,0,1,18.507,7.5q-.431-.254-.874-.461a10.87,10.87,0,0,1-2,4.354,1.376,1.376,0,0,1,.195.7,13,13,0,0,0,2.954.266,7.018,7.018,0,0,1-.36.9Z" fill="#777"/>
              </g>
              <path id="Path_229" data-name="Path 229" d="M-5.5-7h.93V0h-.75l-3.6-5.23V0h-.93V-7h.719L-5.5-1.743Zm6.46.88h-3.1v2.27H.825v.88h-2.97V0h-.93V-7H.955ZM6.565-7v.88H4.495V0h-.92V-6.12H1.515V-7Zm.87,3.335a.513.513,0,0,0,.295.455,3.184,3.184,0,0,0,.7.291l.82.241a1.437,1.437,0,0,1,.7.454,1.266,1.266,0,0,1,.286.855A1.314,1.314,0,0,1,9.71-.28,2.121,2.121,0,0,1,8.365.13a2.339,2.339,0,0,1-1.25-.32,1.789,1.789,0,0,1-.74-.85l.75-.43a1.055,1.055,0,0,0,.45.57,1.441,1.441,0,0,0,.79.21,1.383,1.383,0,0,0,.71-.165.554.554,0,0,0,.28-.514.526.526,0,0,0-.29-.464,3.055,3.055,0,0,0-.7-.3l-.82-.246a1.521,1.521,0,0,1-.7-.444,1.174,1.174,0,0,1-.29-.82,1.331,1.331,0,0,1,.5-1.07,1.912,1.912,0,0,1,1.265-.42,2.126,2.126,0,0,1,1.085.275,1.761,1.761,0,0,1,.715.765l-.73.41a1.047,1.047,0,0,0-1.07-.64,1.121,1.121,0,0,0-.63.171A.547.547,0,0,0,7.435-3.665Z" transform="translate(263 772)" fill="#777"/>
              <path id="bxs-dashboard" d="M5.419,13.69h5.514a.919.919,0,0,0,.919-.919V5.419a.919.919,0,0,0-.919-.919H5.419a.919.919,0,0,0-.919.919v7.352A.919.919,0,0,0,5.419,13.69ZM4.5,20.122a.919.919,0,0,0,.919.919h5.514a.919.919,0,0,0,.919-.919V16.447a.919.919,0,0,0-.919-.919H5.419a.919.919,0,0,0-.919.919Zm9.19,0a.919.919,0,0,0,.919.919h5.514a.919.919,0,0,0,.919-.919V13.69a.919.919,0,0,0-.919-.919H14.609a.919.919,0,0,0-.919.919Zm.919-9.19h5.514a.919.919,0,0,0,.919-.919V5.419a.919.919,0,0,0-.919-.919H14.609a.919.919,0,0,0-.919.919v4.595A.919.919,0,0,0,14.609,10.933Z" transform="translate(250.229 730.5)" fill="#777"/>
            </g>
            <g id="Settings" transform="translate(0 -719)">
              <path id="ios-settings" d="M19.672,12.769a2.127,2.127,0,0,1,1.365-1.985,8.456,8.456,0,0,0-1.02-2.459,2.155,2.155,0,0,1-.865.185A2.123,2.123,0,0,1,17.21,5.521,8.4,8.4,0,0,0,14.755,4.5a2.126,2.126,0,0,1-3.971,0A8.456,8.456,0,0,0,8.325,5.52,2.123,2.123,0,0,1,6.382,8.509a2.085,2.085,0,0,1-.865-.185A8.622,8.622,0,0,0,4.5,10.788a2.127,2.127,0,0,1,0,3.97,8.456,8.456,0,0,0,1.02,2.459,2.124,2.124,0,0,1,2.8,2.8,8.474,8.474,0,0,0,2.459,1.02,2.122,2.122,0,0,1,3.962,0,8.456,8.456,0,0,0,2.459-1.02,2.126,2.126,0,0,1,2.8-2.8,8.474,8.474,0,0,0,1.02-2.459,2.138,2.138,0,0,1-1.361-1.989ZM12.807,16.21a3.445,3.445,0,1,1,3.445-3.445A3.444,3.444,0,0,1,12.807,16.21Z" transform="translate(325.231 730.5)" fill="#777"/>
              <path id="Path_230" data-name="Path 230" d="M-15.77.13a2.966,2.966,0,0,1-1.675-.46,2.433,2.433,0,0,1-.975-1.26l.8-.46A1.761,1.761,0,0,0-15.75-.78a1.765,1.765,0,0,0,1.1-.3.944.944,0,0,0,.38-.785.838.838,0,0,0-.38-.75,5.459,5.459,0,0,0-1.27-.53l-.668-.23a4.743,4.743,0,0,1-.577-.255,1.812,1.812,0,0,1-.515-.36,1.81,1.81,0,0,1-.305-.485,1.64,1.64,0,0,1-.135-.68A1.785,1.785,0,0,1-17.48-6.6a2.351,2.351,0,0,1,1.56-.535,2.5,2.5,0,0,1,1.445.42A2.615,2.615,0,0,1-13.55-5.6l-.78.45a1.6,1.6,0,0,0-1.59-1.08,1.429,1.429,0,0,0-.92.28.921.921,0,0,0-.35.76.811.811,0,0,0,.33.7,4.323,4.323,0,0,0,1.14.5l.407.144.378.134a3.566,3.566,0,0,1,.375.15q.12.06.325.17a1.322,1.322,0,0,1,.3.21q.1.1.235.245a.964.964,0,0,1,.195.3,2.378,2.378,0,0,1,.1.346,1.848,1.848,0,0,1,.045.416,1.791,1.791,0,0,1-.67,1.465A2.686,2.686,0,0,1-15.77.13Zm4.16-2.23a1.649,1.649,0,0,0,.615,1.04A1.912,1.912,0,0,0-9.8-.69a1.565,1.565,0,0,0,1.44-.73l.74.42A2.443,2.443,0,0,1-9.82.13a2.618,2.618,0,0,1-1.935-.745A2.555,2.555,0,0,1-12.5-2.5a2.587,2.587,0,0,1,.73-1.88,2.521,2.521,0,0,1,1.89-.75,2.3,2.3,0,0,1,1.8.775,2.7,2.7,0,0,1,.7,1.865,2.628,2.628,0,0,1-.03.39Zm1.73-2.21a1.718,1.718,0,0,0-1.16.4,1.71,1.71,0,0,0-.57,1.055h3.34a1.666,1.666,0,0,0-.56-1.08A1.6,1.6,0,0,0-9.88-4.31Zm6.06.15H-5.15v2.71A.761.761,0,0,0-5-.925a.6.6,0,0,0,.445.16q.3,0,.74-.015V0A2.573,2.573,0,0,1-5.49-.185,1.381,1.381,0,0,1-6.02-1.45V-4.16h-.99V-5h.99V-6.14l.87-.26V-5h1.33Zm3.49,0H-1.66v2.71a.761.761,0,0,0,.145.525.6.6,0,0,0,.445.16q.3,0,.74-.015V0A2.573,2.573,0,0,1-2-.185,1.381,1.381,0,0,1-2.53-1.45V-4.16h-.99V-5h.99V-6.14l.87-.26V-5H-.33ZM1.14-5.91a.571.571,0,0,1-.42-.17.559.559,0,0,1-.17-.41.575.575,0,0,1,.17-.415.562.562,0,0,1,.42-.175.551.551,0,0,1,.41.175.575.575,0,0,1,.17.415.559.559,0,0,1-.17.41A.559.559,0,0,1,1.14-5.91ZM.7,0V-5h.87V0ZM5.39-5.13a1.859,1.859,0,0,1,1.41.555A2.089,2.089,0,0,1,7.33-3.07V0H6.46V-3.02a1.289,1.289,0,0,0-.33-.945A1.219,1.219,0,0,0,5.22-4.3a1.41,1.41,0,0,0-1.05.4,1.709,1.709,0,0,0-.4,1.245V0H2.9V-5h.87v.72A1.778,1.778,0,0,1,5.39-5.13Zm7.3.13h.86V-.21a2.106,2.106,0,0,1-.75,1.725A2.748,2.748,0,0,1,11,2.13a3.123,3.123,0,0,1-1.45-.315,2.1,2.1,0,0,1-.92-.9L9.39.48a1.633,1.633,0,0,0,1.63.84A1.739,1.739,0,0,0,12.245.91,1.448,1.448,0,0,0,12.69-.21V-.92a2.122,2.122,0,0,1-1.88,1A2.429,2.429,0,0,1,9-.68a2.553,2.553,0,0,1-.74-1.85A2.536,2.536,0,0,1,9-4.375a2.437,2.437,0,0,1,1.81-.755,2.112,2.112,0,0,1,1.88.99ZM9.64-1.26a1.724,1.724,0,0,0,1.27.51,1.724,1.724,0,0,0,1.27-.51,1.724,1.724,0,0,0,.51-1.27,1.712,1.712,0,0,0-.51-1.26,1.724,1.724,0,0,0-1.27-.51,1.724,1.724,0,0,0-1.27.51,1.712,1.712,0,0,0-.51,1.26A1.724,1.724,0,0,0,9.64-1.26Zm5.97-2.4a.513.513,0,0,0,.295.455,3.184,3.184,0,0,0,.7.291l.82.241a1.437,1.437,0,0,1,.7.454,1.266,1.266,0,0,1,.286.855,1.314,1.314,0,0,1-.525,1.09A2.121,2.121,0,0,1,16.54.13a2.339,2.339,0,0,1-1.25-.32,1.789,1.789,0,0,1-.74-.85l.75-.43a1.055,1.055,0,0,0,.45.57,1.441,1.441,0,0,0,.79.21,1.383,1.383,0,0,0,.71-.165.554.554,0,0,0,.28-.514.526.526,0,0,0-.29-.464,3.055,3.055,0,0,0-.7-.3l-.82-.246a1.521,1.521,0,0,1-.7-.444,1.174,1.174,0,0,1-.29-.82,1.331,1.331,0,0,1,.505-1.07A1.912,1.912,0,0,1,16.5-5.13a2.126,2.126,0,0,1,1.085.275,1.761,1.761,0,0,1,.715.765l-.73.41a1.047,1.047,0,0,0-1.07-.64,1.121,1.121,0,0,0-.63.171A.547.547,0,0,0,15.61-3.665Z" transform="translate(338 772)" fill="#777"/>
            </g>
            <g id="NFTs" transform="translate(0 -719)">
              <path id="Path_228" data-name="Path 228" d="M-15.24-.88h3.25V0h-4.18V-7h4.13v.88h-3.2v2.15h2.95v.87h-2.95ZM-6.62,0H-7.64l-1.4-1.888L-10.45,0h-1.02l1.915-2.574L-11.36-5h1.03l1.288,1.736L-7.75-5h1.02l-1.8,2.422Zm3.57-5.13a2.4,2.4,0,0,1,1.79.765A2.582,2.582,0,0,1-.52-2.5,2.582,2.582,0,0,1-1.26-.635,2.4,2.4,0,0,1-3.05.13,2.121,2.121,0,0,1-4.94-.86V2h-.87V-5h.87v.86A2.121,2.121,0,0,1-3.05-5.13ZM-3.16-.71A1.7,1.7,0,0,0-1.9-1.225,1.74,1.74,0,0,0-1.39-2.5,1.74,1.74,0,0,0-1.9-3.775,1.7,1.7,0,0,0-3.16-4.29a1.715,1.715,0,0,0-1.27.515A1.74,1.74,0,0,0-4.94-2.5a1.74,1.74,0,0,0,.51,1.275A1.715,1.715,0,0,0-3.16-.71ZM.52,0V-7.3h.87V0ZM6.94-.63A2.563,2.563,0,0,1,5.07.13,2.546,2.546,0,0,1,3.2-.63,2.533,2.533,0,0,1,2.44-2.5,2.533,2.533,0,0,1,3.2-4.37,2.546,2.546,0,0,1,5.07-5.13a2.563,2.563,0,0,1,1.87.76A2.525,2.525,0,0,1,7.71-2.5,2.525,2.525,0,0,1,6.94-.63ZM5.07-.72a1.712,1.712,0,0,0,1.26-.51A1.724,1.724,0,0,0,6.84-2.5a1.724,1.724,0,0,0-.51-1.27,1.712,1.712,0,0,0-1.26-.51,1.7,1.7,0,0,0-1.25.51A1.724,1.724,0,0,0,3.31-2.5a1.724,1.724,0,0,0,.51,1.27A1.7,1.7,0,0,0,5.07-.72ZM9.61-4.16a1.568,1.568,0,0,1,1.56-.93v.91a1.576,1.576,0,0,0-1.1.34,1.438,1.438,0,0,0-.46,1.19V0H8.74V-5h.87ZM12.36-2.1a1.649,1.649,0,0,0,.615,1.04,1.912,1.912,0,0,0,1.195.37,1.565,1.565,0,0,0,1.44-.73l.74.42A2.443,2.443,0,0,1,14.15.13a2.618,2.618,0,0,1-1.935-.745A2.555,2.555,0,0,1,11.47-2.5a2.587,2.587,0,0,1,.73-1.88,2.521,2.521,0,0,1,1.89-.75,2.3,2.3,0,0,1,1.8.775A2.7,2.7,0,0,1,16.58-2.49a2.628,2.628,0,0,1-.03.39Zm1.73-2.21a1.718,1.718,0,0,0-1.16.4,1.71,1.71,0,0,0-.57,1.055H15.7a1.666,1.666,0,0,0-.56-1.08A1.6,1.6,0,0,0,14.09-4.31Z" transform="translate(188 772)" fill="#777"/>
              <g id="network-globe-outline-badged" transform="translate(173.436 731)">
                <path id="Path_187" data-name="Path 187" d="M24.294,10.605a5.446,5.446,0,0,1-1.11.114h-.378a9.271,9.271,0,0,1-.185,4.557,11.556,11.556,0,0,1-3.7-.311,1.8,1.8,0,0,0-.244-.9,14.241,14.241,0,0,0,2.058-3.934,5.526,5.526,0,0,1-.97-.623,13.032,13.032,0,0,1-1.932,3.8,1.659,1.659,0,0,0-1.91.433,6.608,6.608,0,0,1-.74-.478,12.03,12.03,0,0,1-3.65-3.972,1.741,1.741,0,0,0,.348-1.344,12.283,12.283,0,0,1,6.315-.471,5.741,5.741,0,0,1-.415-1.208,13.414,13.414,0,0,0-6.441.684,1.712,1.712,0,0,0-.844-.463h-.185c-.089-.319-.17-.638-.237-.965s-.1-.615-.141-.927a8.626,8.626,0,0,1,7.751-.327,5.775,5.775,0,0,1,.392-1.519,10.141,10.141,0,0,0-9.741,1A10.711,10.711,0,0,0,3.75,12.618a6.55,6.55,0,0,0,.052,1.01,10.61,10.61,0,0,0,6.318,8.8,10.155,10.155,0,0,0,10.542-1.563A10.784,10.784,0,0,0,24.294,10.59ZM8.94,5.228a2.758,2.758,0,0,0,.074.486c.067.334.155.661.244.987A1.746,1.746,0,0,0,8.444,8.41a13.687,13.687,0,0,0-3.1,2.856,9.152,9.152,0,0,1,3.6-6.038Zm0,11.932A1.763,1.763,0,0,0,7.785,18.5H7.311a9.2,9.2,0,0,1-2.043-5.18l.081-.144A12.686,12.686,0,0,1,8.91,9.458a1.682,1.682,0,0,0,1.688.478,13.178,13.178,0,0,0,3.961,4.291c.3.205.614.395.925.577a1.8,1.8,0,0,0,.133.851,12.422,12.422,0,0,1-4.59,2.362,1.714,1.714,0,0,0-2.088-.843Zm5.182,4.557a8.651,8.651,0,0,1-4.3-1.147l.207-.046a1.763,1.763,0,0,0,1.162-1.359,13.514,13.514,0,0,0,5.182-2.658,1.668,1.668,0,0,0,2.221-.471,12.582,12.582,0,0,0,3.2.425h.392a8.871,8.871,0,0,1-8.069,5.271Z" fill="#777"/>
                <path id="Path_188" data-name="Path 188" d="M35,6a5,5,0,1,1-5-5A5,5,0,0,1,35,6Z" transform="translate(-7.273)" fill="#777"/>
              </g>
            </g>
            <rect id="Rectangle_2129" data-name="Rectangle 2129" width="134" height="6" rx="3" transform="translate(121 74)" fill="#777"/>
          </g>
        </g>
      </g>
    </g>
  </g>
</svg>
