<svg xmlns="http://www.w3.org/2000/svg" xmlns:xlink="http://www.w3.org/1999/xlink" width="684" height="1116.999" viewBox="0 0 684 1116.999">
  <defs>
    <filter id="body" x="0" y="0" width="684" height="1116.999" filterUnits="userSpaceOnUse">
      <feOffset dy="25" input="SourceAlpha"/>
      <feGaussianBlur stdDeviation="42.5" result="blur"/>
      <feFlood flood-opacity="0.302"/>
      <feComposite operator="in" in2="blur"/>
      <feComposite in="SourceGraphic"/>
    </filter>
  </defs>
  <g id="phone" transform="translate(-115.5 -116.5)">
    <g transform="matrix(1, 0, 0, 1, 115.5, 116.5)" filter="url(#body)">
      <path id="body-2" data-name="body" d="M64-123A60,60,0,0,1,4-183V-667a4,4,0,0,1-4-4v-54a4,4,0,0,1,4-4v-16a4,4,0,0,1-4-4v-54a4,4,0,0,1,4-4v-30a4,4,0,0,1-4-4v-24a4,4,0,0,1,4-4v-56a60,60,0,0,1,60-60H365a60,60,0,0,1,60,60v139a4,4,0,0,1,4,4v90a4,4,0,0,1-4,4v505a60,60,0,0,1-60,60Z" transform="translate(127.5 1087.5)" fill="#3a3c3d"/>
    </g>
    <path id="camera" d="M114-960a6,6,0,0,1,6-6,6,6,0,0,1,6,6,6,6,0,0,1-6,6A6,6,0,0,1,114-960Zm-64,3a3,3,0,0,1-3-3,3,3,0,0,1,3-3H97a3,3,0,0,1,3,3,3,3,0,0,1-3,3Z" transform="translate(384 1213)" fill="#424256"/>
  </g>
</svg>
